SplineFontDB: 3.0
FontName: KacstPoster
FullName: KacstPoster
FamilyName: KacstPoster
Weight: Medium
Copyright: KACST holds the copyright of the included Arabic font which is donated under GPL by KACST. \nURW Design and Development holds the copyright of the included Latin font which is donated under GPL by URW. 
Version: 1
ItalicAngle: 0
UnderlinePosition: -800
UnderlineWidth: 100
Ascent: 1638
Descent: 410
LayerCount: 2
Layer: 0 1 "Back" 
Layer: 1 1 "Fore" 
NeedsXUIDChange: 1
XUID: [1021 295 993259513 2047193]
FSType: 0
OS2Version: 2
OS2_WeightWidthSlopeOnly: 0
OS2_UseTypoMetrics: 1
CreationTime: 1163511077
ModificationTime: 1215812584
PfmFamily: 17
TTFWeight: 500
TTFWidth: 5
LineGap: 59
VLineGap: 0
Panose: 2 0 0 0 0 0 0 0 0 0
OS2TypoAscent: -38
OS2TypoAOffset: 1
OS2TypoDescent: -190
OS2TypoDOffset: 1
OS2TypoLinegap: 59
OS2WinAscent: -1
OS2WinAOffset: 1
OS2WinDescent: -25
OS2WinDOffset: 1
HheadAscent: -564
HheadAOffset: 1
HheadDescent: 425
HheadDOffset: 1
OS2SubXSize: 1434
OS2SubYSize: 1331
OS2SubXOff: 0
OS2SubYOff: 293
OS2SupXSize: 1434
OS2SupYSize: 1331
OS2SupXOff: 0
OS2SupYOff: 928
OS2StrikeYSize: 102
OS2StrikeYPos: 530
OS2Vendor: 'GLYF'
OS2CodePages: 00000040.00000000
OS2UnicodeRanges: 00002000.00000000.00000000.00000000
Lookup: 1 0 0 "'aalt' Access All Alternates in Latin lookup 0"  {"'aalt' Access All Alternates in Latin lookup 0 subtable"  } ['aalt' ('latn' <'dflt' > ) ]
Lookup: 3 0 0 "'aalt' Access All Alternates in Latin lookup 1"  {"'aalt' Access All Alternates in Latin lookup 1 subtable"  } ['aalt' ('latn' <'dflt' > ) ]
Lookup: 1 1 0 "'isol' Isolated Forms in Arabic lookup 2"  {"'isol' Isolated Forms in Arabic lookup 2 subtable"  } ['isol' ('arab' <'dflt' > ) ]
Lookup: 1 1 0 "'init' Initial Forms in Arabic lookup 3"  {"'init' Initial Forms in Arabic lookup 3 subtable"  } ['init' ('arab' <'dflt' > ) ]
Lookup: 1 1 0 "'medi' Medial Forms in Arabic lookup 4"  {"'medi' Medial Forms in Arabic lookup 4 subtable"  } ['medi' ('arab' <'dflt' > ) ]

StartChar: arabiccomma
Encoding: 1548 1548 1
Width: 403
Flags: W
LayerCount: 2
Fore
SplineSet
277 379 m 1,0,1
 239 351 239 351 207 314 c 128,-1,2
 175 277 175 277 158.5 241 c 128,-1,3
 142 205 142 205 144 174.5 c 128,-1,4
 146 144 146 144 175 130 c 1,5,-1
 177 131 l 1,6,7
 185 138 185 138 192.5 142.5 c 128,-1,8
 200 147 200 147 207 151 c 1,9,-1
 209 153 l 1,10,11
 213 155 213 155 214 156 c 1,12,13
 219 158 219 158 222.5 159.5 c 128,-1,14
 226 161 226 161 229 163 c 1,15,-1
 234 164 l 1,16,-1
 235 164 l 1,17,18
 237 165 237 165 247 165 c 0,19,20
 254 165 254 165 260 164 c 128,-1,21
 266 163 266 163 271 161 c 0,22,23
 274 160 274 160 278 158 c 1,24,25
 279 157 279 157 280 157 c 1,26,27
 283 155 283 155 285.5 153 c 128,-1,28
 288 151 288 151 291 149 c 0,29,30
 295 145 295 145 296 143 c 2,31,32
 297 142 297 142 297.5 141 c 128,-1,33
 298 140 298 140 299 139 c 256,34,35
 300 138 300 138 302 134 c 0,36,37
 305 130 305 130 309 120 c 1,38,-1
 317 82 l 1,39,-1
 317 79 l 2,40,41
 317 74 317 74 316.5 70.5 c 128,-1,42
 316 67 316 67 315 63 c 2,43,44
 315 59 315 59 313 51 c 1,45,46
 312 49 312 49 312 48 c 1,47,-1
 311 46 l 1,48,49
 311 44 311 44 310 43 c 1,50,51
 310 41 310 41 308 37 c 0,52,53
 307 35 307 35 306.5 33.5 c 128,-1,54
 306 32 306 32 305 30 c 0,55,56
 303 26 303 26 299 20 c 0,57,58
 296 14 296 14 291 9 c 0,59,60
 285 3 l 128,-1,61
 282 0 282 0 279 -2 c 0,62,63
 277 -3 277 -3 276.5 -3.5 c 128,-1,64
 276 -4 276 -4 274 -5 c 1,65,66
 272 -7 272 -7 269.5 -8.5 c 128,-1,67
 267 -10 267 -10 264 -11 c 1,68,69
 263 -12 263 -12 263 -22 c 256,70,71
 263 -32 263 -32 262 -32 c 1,72,-1
 262 -12 l 1,73,74
 260 -14 260 -14 257 -14.5 c 128,-1,75
 254 -15 254 -15 252 -16 c 1,76,77
 251 -17 251 -17 249 -17 c 1,78,-1
 244 -19 l 1,79,-1
 241 -19 l 1,80,81
 239 -20 239 -20 236 -20 c 0,82,83
 231 -21 231 -21 221 -21 c 2,84,-1
 208 -21 l 1,85,-1
 199 -19 l 2,86,87
 188 -17 188 -17 179 -13 c 2,88,-1
 173 -10 l 1,89,90
 172 -9 172 -9 168 -7 c 2,91,92
 167 -6 167 -6 163 -4 c 2,93,94
 162 -3 162 -3 161 -2.5 c 128,-1,95
 160 -2 160 -2 158 0 c 0,96,97
 140 15 140 15 128 39 c 2,98,-1
 124 50 l 1,99,-1
 124 49 l 1,100,-1
 122 52 l 1,101,102
 120 60 120 60 119 63 c 2,103,-1
 112 88 l 1,104,-1
 111 98 l 1,105,106
 110 100 110 100 110 106 c 0,107,108
 110 107 110 107 109.5 107.5 c 128,-1,109
 109 108 109 108 109 110 c 2,110,-1
 109 143 l 2,111,112
 109 148 109 148 110 151 c 1,113,-1
 110 156 l 1,114,115
 116 193 116 193 132 230 c 128,-1,116
 148 267 148 267 170 300 c 128,-1,117
 192 333 192 333 219.5 360 c 128,-1,118
 247 387 247 387 276 405 c 1,119,-1
 277 379 l 1,0,1
EndSplineSet
EndChar

StartChar: arabicsemicolon
Encoding: 1563 1563 2
Width: 852
Flags: W
LayerCount: 2
Fore
SplineSet
580 371 m 0,0,1
 580 350 580 350 572.5 330.5 c 128,-1,2
 565 311 565 311 550.5 296.5 c 128,-1,3
 536 282 536 282 515 273 c 128,-1,4
 494 264 494 264 467 264 c 0,5,6
 405 264 405 264 349 335 c 256,7,8
 293 406 293 406 293 500 c 0,9,10
 293 597 293 597 346 668 c 0,11,12
 384 721 384 721 438 749 c 1,13,-1
 469 758 l 1,14,15
 429 732 429 732 398 674 c 0,16,17
 373 618 373 618 373 561 c 0,18,19
 373 506 373 506 406 451 c 1,20,-1
 438 471 l 1,21,22
 448 475 448 475 457.5 477.5 c 128,-1,23
 467 480 467 480 475 481 c 0,24,25
 497 481 497 481 516.5 472 c 128,-1,26
 536 463 536 463 550 448 c 128,-1,27
 564 433 564 433 572 413 c 128,-1,28
 580 393 580 393 580 371 c 0,0,1
539 74 m 0,29,30
 539 56 539 56 532 40.5 c 128,-1,31
 525 25 525 25 513.5 13.5 c 128,-1,32
 502 2 502 2 486.5 -5 c 128,-1,33
 471 -12 471 -12 453 -12 c 0,34,35
 421 -12 421 -12 396 15 c 0,36,37
 371 40 371 40 371 74 c 0,38,39
 371 106 371 106 396 131 c 0,40,41
 421 158 421 158 453 158 c 0,42,43
 486 158 486 158 512 132 c 0,44,45
 539 108 539 108 539 74 c 0,29,30
EndSplineSet
EndChar

StartChar: arabicquestionmark
Encoding: 1567 1567 3
Width: 1053
Flags: W
LayerCount: 2
Fore
SplineSet
1042 267 m 1,0,-1
 634 267 l 1,1,-1
 634 593 l 1,2,-1
 223 593 l 1,3,-1
 134 593 l 1,4,-1
 19 709 l 1,5,-1
 19 798 l 1,6,-1
 19 1166 l 1,7,-1
 19 1256 l 1,8,-1
 133 1371 l 1,9,-1
 223 1371 l 1,10,-1
 837 1371 l 1,11,-1
 928 1371 l 1,12,-1
 1042 1257 l 1,13,-1
 1042 1166 l 1,14,-1
 1042 961 l 1,15,-1
 634 961 l 1,16,-1
 634 1084 l 1,17,-1
 429 1084 l 1,18,-1
 429 879 l 1,19,-1
 837 879 l 1,20,-1
 928 879 l 1,21,-1
 1042 766 l 1,22,-1
 1042 675 l 1,23,-1
 1042 267 l 1,0,-1
997 63 m 1,24,-1
 997 -5 l 1,25,-1
 902 -100 l 1,26,-1
 834 -100 l 1,27,-1
 766 -100 l 1,28,-1
 670 -5 l 1,29,-1
 670 63 l 1,30,-1
 670 131 l 1,31,-1
 766 227 l 1,32,-1
 834 227 l 1,33,-1
 902 227 l 1,34,-1
 997 131 l 1,35,-1
 997 63 l 1,24,-1
EndSplineSet
EndChar

StartChar: hamza
Encoding: 1569 1569 4
Width: 580
Flags: W
AnchorPoint: "ArabicBelow" 290 -251 basechar 0
AnchorPoint: "ArabicAbove" 290 697 basechar 0
LayerCount: 2
Fore
SplineSet
554 -1 m 1,0,-1
 -1 -1 l 1,1,-1
 -1 165 l 1,2,-1
 93 165 l 1,3,-1
 93 328 l 1,4,-1
 211 447 l 1,5,-1
 523 447 l 1,6,-1
 523 282 l 1,7,-1
 330 282 l 1,8,-1
 330 165 l 1,9,-1
 554 165 l 1,10,-1
 554 -1 l 1,0,-1
EndSplineSet
Substitution2: "'isol' Isolated Forms in Arabic lookup 2 subtable" hamzaisolated
Substitution2: "'aalt' Access All Alternates in Latin lookup 0 subtable" hamzaisolated
EndChar

StartChar: alefwithmaddaabove
Encoding: 1570 1570 5
Width: 785
Flags: W
AnchorPoint: "ArabicBelow" 392 -249 basechar 0
AnchorPoint: "ArabicAbove" 392 2051 basechar 0
LayerCount: 2
Fore
SplineSet
594 1 m 1,0,-1
 389 1 l 1,1,-1
 184 205 l 1,2,-1
 184 1555 l 1,3,-1
 594 1555 l 1,4,-1
 594 1 l 1,0,-1
770 1629 m 1,5,-1
 448 1629 l 1,6,-1
 448 1694 l 1,7,-1
 341 1694 l 1,8,-1
 341 1629 l 1,9,-1
 126 1629 l 1,10,-1
 126 1694 l 1,11,-1
 126 1738 l 1,12,-1
 189 1801 l 1,13,-1
 234 1801 l 1,14,-1
 555 1801 l 1,15,-1
 555 1736 l 1,16,-1
 662 1736 l 1,17,-1
 662 1801 l 1,18,-1
 770 1801 l 1,19,-1
 770 1629 l 1,5,-1
EndSplineSet
Substitution2: "'fina' Terminal Forms in Arabic lookup 5 subtable" alefwithmaddaabovefinal
Substitution2: "'isol' Isolated Forms in Arabic lookup 2 subtable" alefwithmaddaaboveisolated
AlternateSubs2: "'aalt' Access All Alternates in Latin lookup 1 subtable" alefwithmaddaaboveisolated alefwithmaddaabovefinal
EndChar

StartChar: alefwithhamzaabove
Encoding: 1571 1571 6
Width: 619
Flags: W
AnchorPoint: "ArabicBelow" 309 -249 basechar 0
AnchorPoint: "ArabicAbove" 309 1944 basechar 0
LayerCount: 2
Fore
SplineSet
594 1 m 1,0,-1
 389 1 l 1,1,-1
 184 205 l 1,2,-1
 184 1335 l 1,3,-1
 594 1335 l 1,4,-1
 594 1 l 1,0,-1
596 1384 m 1,5,-1
 184 1384 l 1,6,-1
 184 1499 l 1,7,-1
 249 1499 l 1,8,-1
 249 1612 l 1,9,-1
 331 1694 l 1,10,-1
 547 1694 l 1,11,-1
 547 1580 l 1,12,-1
 413 1580 l 1,13,-1
 413 1499 l 1,14,-1
 596 1499 l 1,15,-1
 596 1384 l 1,5,-1
EndSplineSet
Substitution2: "'fina' Terminal Forms in Arabic lookup 5 subtable" alefwithhamzaabovefinal
Substitution2: "'isol' Isolated Forms in Arabic lookup 2 subtable" alefwithhamzaaboveisolated
AlternateSubs2: "'aalt' Access All Alternates in Latin lookup 1 subtable" alefwithhamzaaboveisolated alefwithhamzaabovefinal
EndChar

StartChar: wawwithhamzaabove
Encoding: 1572 1572 7
Width: 1234
Flags: W
AnchorPoint: "ArabicBelow" 617 -742 basechar 0
AnchorPoint: "ArabicAbove" 617 1602 basechar 0
LayerCount: 2
Fore
SplineSet
1207 -492 m 1,0,-1
 184 -492 l 1,1,-1
 184 -205 l 1,2,-1
 799 -205 l 1,3,-1
 799 1 l 1,4,-1
 184 1 l 1,5,-1
 184 574 l 1,6,-1
 389 778 l 1,7,-1
 1004 778 l 1,8,-1
 1208 574 l 1,9,-1
 1207 -492 l 1,0,-1
799 287 m 1,10,-1
 799 492 l 1,11,-1
 594 492 l 1,12,-1
 594 287 l 1,13,-1
 799 287 l 1,10,-1
944 992 m 1,14,-1
 466 992 l 1,15,-1
 466 1126 l 1,16,-1
 541 1126 l 1,17,-1
 541 1257 l 1,18,-1
 637 1352 l 1,19,-1
 887 1352 l 1,20,-1
 887 1220 l 1,21,-1
 732 1220 l 1,22,-1
 732 1126 l 1,23,-1
 944 1126 l 1,24,-1
 944 992 l 1,14,-1
EndSplineSet
Substitution2: "'fina' Terminal Forms in Arabic lookup 5 subtable" wawwithhamzaabovefinal
Substitution2: "'isol' Isolated Forms in Arabic lookup 2 subtable" wawwithhamzaaboveisolated
AlternateSubs2: "'aalt' Access All Alternates in Latin lookup 1 subtable" wawwithhamzaaboveisolated wawwithhamzaabovefinal
EndChar

StartChar: alefwithhamzabelow
Encoding: 1573 1573 8
Width: 622
Flags: W
AnchorPoint: "ArabicBelow" 311 -641 basechar 0
AnchorPoint: "ArabicAbove" 311 1585 basechar 0
LayerCount: 2
Fore
SplineSet
594 1 m 1,0,-1
 389 1 l 1,1,-1
 184 205 l 1,2,-1
 184 1335 l 1,3,-1
 594 1335 l 1,4,-1
 594 1 l 1,0,-1
593 -391 m 1,5,-1
 181 -391 l 1,6,-1
 181 -276 l 1,7,-1
 246 -276 l 1,8,-1
 246 -163 l 1,9,-1
 328 -81 l 1,10,-1
 544 -81 l 1,11,-1
 544 -195 l 1,12,-1
 410 -195 l 1,13,-1
 410 -276 l 1,14,-1
 593 -276 l 1,15,-1
 593 -391 l 1,5,-1
EndSplineSet
Substitution2: "'fina' Terminal Forms in Arabic lookup 5 subtable" alefwithhamzabelowfinal
Substitution2: "'isol' Isolated Forms in Arabic lookup 2 subtable" alefwithhamzabelowisolated
AlternateSubs2: "'aalt' Access All Alternates in Latin lookup 1 subtable" alefwithhamzabelowisolated alefwithhamzabelowfinal
EndChar

StartChar: yehwithhamzaabove
Encoding: 1574 1574 9
Width: 1647
Flags: W
AnchorPoint: "ArabicBelow" 823 -742 basechar 0
AnchorPoint: "ArabicAbove" 823 1239 basechar 0
LayerCount: 2
Fore
SplineSet
1618 -287 m 1,0,-1
 1413 -492 l 1,1,-1
 389 -492 l 1,2,-1
 184 -287 l 1,3,-1
 184 492 l 1,4,-1
 594 492 l 1,5,-1
 594 -205 l 1,6,-1
 1208 -205 l 1,7,-1
 1208 1 l 1,8,-1
 799 1 l 1,9,-1
 799 573 l 1,10,-1
 1004 778 l 1,11,-1
 1618 778 l 1,12,-1
 1618 492 l 1,13,-1
 1208 492 l 1,14,-1
 1208 287 l 1,15,-1
 1618 287 l 1,16,-1
 1618 -287 l 1,0,-1
593 679 m 1,17,-1
 181 679 l 1,18,-1
 181 794 l 1,19,-1
 246 794 l 1,20,-1
 246 907 l 1,21,-1
 328 989 l 1,22,-1
 544 989 l 1,23,-1
 544 875 l 1,24,-1
 410 875 l 1,25,-1
 410 794 l 1,26,-1
 593 794 l 1,27,-1
 593 679 l 1,17,-1
EndSplineSet
Substitution2: "'fina' Terminal Forms in Arabic lookup 5 subtable" yehwithhamzaabovefinal
Substitution2: "'medi' Medial Forms in Arabic lookup 4 subtable" yehwithhamzaabovemedial
Substitution2: "'init' Initial Forms in Arabic lookup 3 subtable" yehwithhamzaaboveinitial
Substitution2: "'isol' Isolated Forms in Arabic lookup 2 subtable" yehwithhamzaaboveisolated
AlternateSubs2: "'aalt' Access All Alternates in Latin lookup 1 subtable" yehwithhamzaaboveisolated yehwithhamzaaboveinitial yehwithhamzaabovemedial yehwithhamzaabovefinal
EndChar

StartChar: arabicalef
Encoding: 1575 1575 10
Width: 540
Flags: W
AnchorPoint: "ArabicBelow" 270 -249 basechar 0
AnchorPoint: "ArabicAbove" 270 1809 basechar 0
LayerCount: 2
Fore
SplineSet
514 1 m 1,0,-1
 309 1 l 1,1,-1
 104 205 l 1,2,-1
 104 1559 l 1,3,-1
 514 1559 l 1,4,-1
 514 1 l 1,0,-1
EndSplineSet
Substitution2: "'fina' Terminal Forms in Arabic lookup 5 subtable" aleffinal
Substitution2: "'isol' Isolated Forms in Arabic lookup 2 subtable" alefisolated
AlternateSubs2: "'aalt' Access All Alternates in Latin lookup 1 subtable" alefisolated aleffinal
EndChar

StartChar: beh
Encoding: 1576 1576 11
Width: 1790
Flags: W
AnchorPoint: "ArabicBelow" 895 -695 basechar 0
AnchorPoint: "ArabicAbove" 895 1028 basechar 0
LayerCount: 2
Fore
SplineSet
1740 205 m 1,0,-1
 1535 1 l 1,1,-1
 389 1 l 1,2,-1
 184 205 l 1,3,-1
 184 778 l 1,4,-1
 594 778 l 1,5,-1
 594 287 l 1,6,-1
 1330 287 l 1,7,-1
 1330 778 l 1,8,-1
 1740 778 l 1,9,-1
 1740 205 l 1,0,-1
791 -280 m 1,10,-1
 791 -214 l 1,11,-1
 888 -115 l 1,12,-1
 953 -115 l 1,13,-1
 1016 -115 l 1,14,-1
 1103 -208 l 1,15,-1
 1103 -279 l 1,16,-1
 1103 -349 l 1,17,-1
 1011 -445 l 1,18,-1
 947 -445 l 1,19,-1
 884 -445 l 1,20,-1
 791 -347 l 1,21,-1
 791 -280 l 1,10,-1
EndSplineSet
Substitution2: "'fina' Terminal Forms in Arabic lookup 5 subtable" behfinal
Substitution2: "'medi' Medial Forms in Arabic lookup 4 subtable" behmedial
Substitution2: "'init' Initial Forms in Arabic lookup 3 subtable" behinitial
Substitution2: "'isol' Isolated Forms in Arabic lookup 2 subtable" behisolated
AlternateSubs2: "'aalt' Access All Alternates in Latin lookup 1 subtable" behisolated behinitial behmedial behfinal
EndChar

StartChar: tehmarbuta
Encoding: 1577 1577 12
Width: 1252
Flags: W
AnchorPoint: "ArabicBelow" 626 -249 basechar 0
AnchorPoint: "ArabicAbove" 626 1619 basechar 0
LayerCount: 2
Fore
SplineSet
1208 207 m 1,0,-1
 1208 1 l 1,1,-1
 1004 1 l 1,2,-1
 390 1 l 1,3,-1
 184 1 l 1,4,-1
 184 202 l 1,5,-1
 184 574 l 1,6,-1
 389 778 l 1,7,-1
 1004 778 l 1,8,-1
 1208 574 l 1,9,-1
 1208 207 l 1,0,-1
799 287 m 1,10,-1
 799 492 l 1,11,-1
 594 492 l 1,12,-1
 594 287 l 1,13,-1
 799 287 l 1,10,-1
368 1202 m 1,14,-1
 368 1268 l 1,15,-1
 465 1367 l 1,16,-1
 530 1367 l 1,17,-1
 593 1367 l 1,18,-1
 680 1274 l 1,19,-1
 680 1203 l 1,20,-1
 680 1133 l 1,21,-1
 588 1037 l 1,22,-1
 524 1037 l 1,23,-1
 461 1037 l 1,24,-1
 368 1135 l 1,25,-1
 368 1202 l 1,14,-1
695 1204 m 1,26,-1
 695 1270 l 1,27,-1
 792 1369 l 1,28,-1
 857 1369 l 1,29,-1
 920 1369 l 1,30,-1
 1007 1276 l 1,31,-1
 1007 1205 l 1,32,-1
 1007 1135 l 1,33,-1
 915 1039 l 1,34,-1
 851 1039 l 1,35,-1
 788 1039 l 1,36,-1
 695 1137 l 1,37,-1
 695 1204 l 1,26,-1
EndSplineSet
Substitution2: "'fina' Terminal Forms in Arabic lookup 5 subtable" tehmarbutafinal
Substitution2: "'isol' Isolated Forms in Arabic lookup 2 subtable" tehmarbutaisolated
AlternateSubs2: "'aalt' Access All Alternates in Latin lookup 1 subtable" tehmarbutaisolated tehmarbutafinal
EndChar

StartChar: teh
Encoding: 1578 1578 13
Width: 1787
Flags: W
AnchorPoint: "ArabicBelow" 893 -249 basechar 0
AnchorPoint: "ArabicAbove" 893 1477 basechar 0
LayerCount: 2
Fore
SplineSet
1740 205 m 1,0,-1
 1535 1 l 1,1,-1
 389 1 l 1,2,-1
 184 205 l 1,3,-1
 184 778 l 1,4,-1
 594 778 l 1,5,-1
 594 287 l 1,6,-1
 1330 287 l 1,7,-1
 1330 778 l 1,8,-1
 1740 778 l 1,9,-1
 1740 205 l 1,0,-1
632 1060 m 1,10,-1
 632 1126 l 1,11,-1
 729 1225 l 1,12,-1
 794 1225 l 1,13,-1
 857 1225 l 1,14,-1
 944 1132 l 1,15,-1
 944 1061 l 1,16,-1
 944 991 l 1,17,-1
 852 895 l 1,18,-1
 788 895 l 1,19,-1
 725 895 l 1,20,-1
 632 993 l 1,21,-1
 632 1060 l 1,10,-1
959 1062 m 1,22,-1
 959 1128 l 1,23,-1
 1056 1227 l 1,24,-1
 1121 1227 l 1,25,-1
 1184 1227 l 1,26,-1
 1271 1134 l 1,27,-1
 1271 1063 l 1,28,-1
 1271 993 l 1,29,-1
 1179 897 l 1,30,-1
 1115 897 l 1,31,-1
 1052 897 l 1,32,-1
 959 995 l 1,33,-1
 959 1062 l 1,22,-1
EndSplineSet
Substitution2: "'fina' Terminal Forms in Arabic lookup 5 subtable" tehfinal
Substitution2: "'medi' Medial Forms in Arabic lookup 4 subtable" tehmedial
Substitution2: "'init' Initial Forms in Arabic lookup 3 subtable" tehinitial
Substitution2: "'isol' Isolated Forms in Arabic lookup 2 subtable" tehisolated
AlternateSubs2: "'aalt' Access All Alternates in Latin lookup 1 subtable" tehisolated tehinitial tehmedial tehfinal
EndChar

StartChar: theh
Encoding: 1579 1579 14
Width: 1782
Flags: W
AnchorPoint: "ArabicBelow" 891 -249 basechar 0
AnchorPoint: "ArabicAbove" 891 1801 basechar 0
LayerCount: 2
Fore
SplineSet
1740 205 m 1,0,-1
 1535 1 l 1,1,-1
 389 1 l 1,2,-1
 184 205 l 1,3,-1
 184 778 l 1,4,-1
 594 778 l 1,5,-1
 594 287 l 1,6,-1
 1330 287 l 1,7,-1
 1330 778 l 1,8,-1
 1740 778 l 1,9,-1
 1740 205 l 1,0,-1
798 1386 m 1,10,-1
 798 1452 l 1,11,-1
 895 1551 l 1,12,-1
 960 1551 l 1,13,-1
 1023 1551 l 1,14,-1
 1110 1458 l 1,15,-1
 1110 1387 l 1,16,-1
 1110 1317 l 1,17,-1
 1018 1221 l 1,18,-1
 954 1221 l 1,19,-1
 891 1221 l 1,20,-1
 798 1319 l 1,21,-1
 798 1386 l 1,10,-1
632 1060 m 1,22,-1
 632 1126 l 1,23,-1
 729 1225 l 1,24,-1
 794 1225 l 1,25,-1
 857 1225 l 1,26,-1
 944 1132 l 1,27,-1
 944 1061 l 1,28,-1
 944 991 l 1,29,-1
 852 895 l 1,30,-1
 788 895 l 1,31,-1
 725 895 l 1,32,-1
 632 993 l 1,33,-1
 632 1060 l 1,22,-1
959 1062 m 1,34,-1
 959 1128 l 1,35,-1
 1056 1227 l 1,36,-1
 1121 1227 l 1,37,-1
 1184 1227 l 1,38,-1
 1271 1134 l 1,39,-1
 1271 1063 l 1,40,-1
 1271 993 l 1,41,-1
 1179 897 l 1,42,-1
 1115 897 l 1,43,-1
 1052 897 l 1,44,-1
 959 995 l 1,45,-1
 959 1062 l 1,34,-1
EndSplineSet
Substitution2: "'fina' Terminal Forms in Arabic lookup 5 subtable" thehfinal
Substitution2: "'medi' Medial Forms in Arabic lookup 4 subtable" thehmedial
Substitution2: "'init' Initial Forms in Arabic lookup 3 subtable" thehinitial
Substitution2: "'isol' Isolated Forms in Arabic lookup 2 subtable" thehisolated
AlternateSubs2: "'aalt' Access All Alternates in Latin lookup 1 subtable" thehisolated thehinitial thehmedial thehfinal
EndChar

StartChar: jeem
Encoding: 1580 1580 15
Width: 1430
Flags: W
AnchorPoint: "ArabicBelow" 715 -822 basechar 0
AnchorPoint: "ArabicAbove" 715 1028 basechar 0
LayerCount: 2
Fore
SplineSet
1413 1 m 1,0,-1
 584 1 l 1,1,-1
 584 -326 l 1,2,-1
 869 -326 l 1,3,-1
 869 -572 l 1,4,-1
 389 -572 l 1,5,-1
 184 -367 l 1,6,-1
 184 82 l 1,7,-1
 389 287 l 1,8,-1
 1004 287 l 1,9,-1
 1004 492 l 1,10,-1
 512 492 l 1,11,-1
 512 778 l 1,12,-1
 1208 778 l 1,13,-1
 1413 574 l 1,14,-1
 1413 287 l 1,15,-1
 1413 1 l 1,0,-1
1056 -315 m 1,16,-1
 1056 -249 l 1,17,-1
 1153 -150 l 1,18,-1
 1218 -150 l 1,19,-1
 1281 -150 l 1,20,-1
 1368 -243 l 1,21,-1
 1368 -314 l 1,22,-1
 1368 -384 l 1,23,-1
 1276 -480 l 1,24,-1
 1212 -480 l 1,25,-1
 1149 -480 l 1,26,-1
 1056 -382 l 1,27,-1
 1056 -315 l 1,16,-1
EndSplineSet
Substitution2: "'fina' Terminal Forms in Arabic lookup 5 subtable" jeemfinal
Substitution2: "'medi' Medial Forms in Arabic lookup 4 subtable" jeemmedial
Substitution2: "'init' Initial Forms in Arabic lookup 3 subtable" jeeminitial
Substitution2: "'isol' Isolated Forms in Arabic lookup 2 subtable" jeemisolated
AlternateSubs2: "'aalt' Access All Alternates in Latin lookup 1 subtable" jeemisolated jeeminitial jeemmedial jeemfinal
EndChar

StartChar: hah
Encoding: 1581 1581 16
Width: 1426
Flags: W
AnchorPoint: "ArabicBelow" 713 -822 basechar 0
AnchorPoint: "ArabicAbove" 713 1028 basechar 0
LayerCount: 2
Fore
SplineSet
1413 1 m 1,0,-1
 584 1 l 1,1,-1
 584 -326 l 1,2,-1
 869 -326 l 1,3,-1
 869 -572 l 1,4,-1
 389 -572 l 1,5,-1
 184 -367 l 1,6,-1
 184 82 l 1,7,-1
 389 287 l 1,8,-1
 1004 287 l 1,9,-1
 1004 492 l 1,10,-1
 512 492 l 1,11,-1
 512 778 l 1,12,-1
 1208 778 l 1,13,-1
 1413 574 l 1,14,-1
 1413 287 l 1,15,-1
 1413 1 l 1,0,-1
EndSplineSet
Substitution2: "'fina' Terminal Forms in Arabic lookup 5 subtable" hahfinal
Substitution2: "'medi' Medial Forms in Arabic lookup 4 subtable" hahmedial
Substitution2: "'init' Initial Forms in Arabic lookup 3 subtable" hahinitial
Substitution2: "'isol' Isolated Forms in Arabic lookup 2 subtable" hahisolated
AlternateSubs2: "'aalt' Access All Alternates in Latin lookup 1 subtable" hahisolated hahinitial hahmedial hahfinal
EndChar

StartChar: khah
Encoding: 1582 1582 17
Width: 1443
Flags: W
AnchorPoint: "ArabicBelow" 721 -822 basechar 0
AnchorPoint: "ArabicAbove" 721 1635 basechar 0
LayerCount: 2
Fore
SplineSet
1413 1 m 1,0,-1
 584 1 l 1,1,-1
 584 -326 l 1,2,-1
 869 -326 l 1,3,-1
 869 -572 l 1,4,-1
 389 -572 l 1,5,-1
 184 -367 l 1,6,-1
 184 82 l 1,7,-1
 389 287 l 1,8,-1
 1004 287 l 1,9,-1
 1004 492 l 1,10,-1
 512 492 l 1,11,-1
 512 778 l 1,12,-1
 1208 778 l 1,13,-1
 1413 574 l 1,14,-1
 1413 287 l 1,15,-1
 1413 1 l 1,0,-1
822 1220 m 1,16,-1
 822 1286 l 1,17,-1
 919 1385 l 1,18,-1
 984 1385 l 1,19,-1
 1047 1385 l 1,20,-1
 1134 1292 l 1,21,-1
 1134 1221 l 1,22,-1
 1134 1151 l 1,23,-1
 1042 1055 l 1,24,-1
 978 1055 l 1,25,-1
 915 1055 l 1,26,-1
 822 1153 l 1,27,-1
 822 1220 l 1,16,-1
EndSplineSet
Substitution2: "'fina' Terminal Forms in Arabic lookup 5 subtable" khahfinal
Substitution2: "'medi' Medial Forms in Arabic lookup 4 subtable" khahmedial
Substitution2: "'init' Initial Forms in Arabic lookup 3 subtable" khahinitial
Substitution2: "'isol' Isolated Forms in Arabic lookup 2 subtable" khahisolated
AlternateSubs2: "'aalt' Access All Alternates in Latin lookup 1 subtable" khahisolated khahinitial khahmedial khahfinal
EndChar

StartChar: dal
Encoding: 1583 1583 18
Width: 1153
Flags: W
AnchorPoint: "ArabicBelow" 576 -249 basechar 0
AnchorPoint: "ArabicAbove" 576 1028 basechar 0
LayerCount: 2
Fore
SplineSet
1134 206 m 1,0,-1
 1134 1 l 1,1,-1
 929 1 l 1,2,-1
 184 1 l 1,3,-1
 184 287 l 1,4,-1
 724 287 l 1,5,-1
 724 492 l 1,6,-1
 307 492 l 1,7,-1
 307 778 l 1,8,-1
 929 778 l 1,9,-1
 1134 574 l 1,10,-1
 1134 206 l 1,0,-1
EndSplineSet
Substitution2: "'fina' Terminal Forms in Arabic lookup 5 subtable" dalfinal
Substitution2: "'isol' Isolated Forms in Arabic lookup 2 subtable" dalisolated
AlternateSubs2: "'aalt' Access All Alternates in Latin lookup 1 subtable" dalisolated dalfinal
EndChar

StartChar: thal
Encoding: 1584 1584 19
Width: 1140
Flags: W
AnchorPoint: "ArabicBelow" 570 -249 basechar 0
AnchorPoint: "ArabicAbove" 570 1635 basechar 0
LayerCount: 2
Fore
SplineSet
1134 206 m 1,0,-1
 1134 1 l 1,1,-1
 929 1 l 1,2,-1
 184 1 l 1,3,-1
 184 287 l 1,4,-1
 724 287 l 1,5,-1
 724 492 l 1,6,-1
 307 492 l 1,7,-1
 307 778 l 1,8,-1
 929 778 l 1,9,-1
 1134 574 l 1,10,-1
 1134 206 l 1,0,-1
492 1220 m 1,11,-1
 492 1286 l 1,12,-1
 589 1385 l 1,13,-1
 654 1385 l 1,14,-1
 717 1385 l 1,15,-1
 804 1292 l 1,16,-1
 804 1221 l 1,17,-1
 804 1151 l 1,18,-1
 712 1055 l 1,19,-1
 648 1055 l 1,20,-1
 585 1055 l 1,21,-1
 492 1153 l 1,22,-1
 492 1220 l 1,11,-1
EndSplineSet
Substitution2: "'fina' Terminal Forms in Arabic lookup 5 subtable" thalfinal
Substitution2: "'isol' Isolated Forms in Arabic lookup 2 subtable" thalisolated
AlternateSubs2: "'aalt' Access All Alternates in Latin lookup 1 subtable" thalisolated thalfinal
EndChar

StartChar: reh
Encoding: 1585 1585 20
Width: 828
Flags: W
AnchorPoint: "ArabicBelow" 414 -742 basechar 0
AnchorPoint: "ArabicAbove" 414 1028 basechar 0
LayerCount: 2
Fore
SplineSet
799 -287 m 1,0,-1
 594 -492 l 1,1,-1
 124 -492 l 1,2,-1
 124 -205 l 1,3,-1
 389 -205 l 1,4,-1
 389 778 l 1,5,-1
 799 778 l 1,6,-1
 799 -287 l 1,0,-1
EndSplineSet
Substitution2: "'fina' Terminal Forms in Arabic lookup 5 subtable" rehfinal
Substitution2: "'isol' Isolated Forms in Arabic lookup 2 subtable" rehisolated
AlternateSubs2: "'aalt' Access All Alternates in Latin lookup 1 subtable" rehisolated rehfinal
EndChar

StartChar: zain
Encoding: 1586 1586 21
Width: 823
Flags: W
AnchorPoint: "ArabicBelow" 411 -742 basechar 0
AnchorPoint: "ArabicAbove" 411 1635 basechar 0
LayerCount: 2
Fore
SplineSet
799 -287 m 1,0,-1
 594 -492 l 1,1,-1
 124 -492 l 1,2,-1
 124 -205 l 1,3,-1
 389 -205 l 1,4,-1
 389 778 l 1,5,-1
 799 778 l 1,6,-1
 799 -287 l 1,0,-1
442 1220 m 1,7,-1
 442 1286 l 1,8,-1
 539 1385 l 1,9,-1
 604 1385 l 1,10,-1
 667 1385 l 1,11,-1
 754 1292 l 1,12,-1
 754 1221 l 1,13,-1
 754 1151 l 1,14,-1
 662 1055 l 1,15,-1
 598 1055 l 1,16,-1
 535 1055 l 1,17,-1
 442 1153 l 1,18,-1
 442 1220 l 1,7,-1
EndSplineSet
Substitution2: "'fina' Terminal Forms in Arabic lookup 5 subtable" zainfinal
Substitution2: "'isol' Isolated Forms in Arabic lookup 2 subtable" zainisolated
AlternateSubs2: "'aalt' Access All Alternates in Latin lookup 1 subtable" zainisolated zainfinal
EndChar

StartChar: seen
Encoding: 1587 1587 22
Width: 2754
Flags: W
AnchorPoint: "ArabicBelow" 1377 -742 basechar 0
AnchorPoint: "ArabicAbove" 1377 1028 basechar 0
LayerCount: 2
Fore
SplineSet
2724 206 m 1,0,-1
 2519 1 l 1,1,-1
 1495 1 l 1,2,-1
 1495 -287 l 1,3,-1
 1290 -492 l 1,4,-1
 389 -492 l 1,5,-1
 184 -287 l 1,6,-1
 184 614 l 1,7,-1
 594 614 l 1,8,-1
 594 -205 l 1,9,-1
 1085 -205 l 1,10,-1
 1085 778 l 1,11,-1
 1495 778 l 1,12,-1
 1495 287 l 1,13,-1
 1700 287 l 1,14,-1
 1700 778 l 1,15,-1
 2109 778 l 1,16,-1
 2109 287 l 1,17,-1
 2314 287 l 1,18,-1
 2314 778 l 1,19,-1
 2724 778 l 1,20,-1
 2724 206 l 1,0,-1
EndSplineSet
Substitution2: "'fina' Terminal Forms in Arabic lookup 5 subtable" seenfinal
Substitution2: "'medi' Medial Forms in Arabic lookup 4 subtable" seenmedial
Substitution2: "'init' Initial Forms in Arabic lookup 3 subtable" seeninitial
Substitution2: "'isol' Isolated Forms in Arabic lookup 2 subtable" seenisolated
AlternateSubs2: "'aalt' Access All Alternates in Latin lookup 1 subtable" seenisolated seeninitial seenmedial seenfinal
EndChar

StartChar: sheen
Encoding: 1588 1588 23
Width: 2782
Flags: W
AnchorPoint: "ArabicBelow" 1391 -742 basechar 0
AnchorPoint: "ArabicAbove" 1391 1961 basechar 0
LayerCount: 2
Fore
SplineSet
2724 206 m 1,0,-1
 2519 1 l 1,1,-1
 1495 1 l 1,2,-1
 1495 -287 l 1,3,-1
 1290 -492 l 1,4,-1
 389 -492 l 1,5,-1
 184 -287 l 1,6,-1
 184 614 l 1,7,-1
 594 614 l 1,8,-1
 594 -205 l 1,9,-1
 1085 -205 l 1,10,-1
 1085 778 l 1,11,-1
 1495 778 l 1,12,-1
 1495 287 l 1,13,-1
 1700 287 l 1,14,-1
 1700 778 l 1,15,-1
 2109 778 l 1,16,-1
 2109 287 l 1,17,-1
 2314 287 l 1,18,-1
 2314 778 l 1,19,-1
 2724 778 l 1,20,-1
 2724 206 l 1,0,-1
1748 1546 m 1,21,-1
 1748 1612 l 1,22,-1
 1845 1711 l 1,23,-1
 1910 1711 l 1,24,-1
 1973 1711 l 1,25,-1
 2060 1618 l 1,26,-1
 2060 1547 l 1,27,-1
 2060 1477 l 1,28,-1
 1968 1381 l 1,29,-1
 1904 1381 l 1,30,-1
 1841 1381 l 1,31,-1
 1748 1479 l 1,32,-1
 1748 1546 l 1,21,-1
1582 1220 m 1,33,-1
 1582 1286 l 1,34,-1
 1679 1385 l 1,35,-1
 1744 1385 l 1,36,-1
 1807 1385 l 1,37,-1
 1894 1292 l 1,38,-1
 1894 1221 l 1,39,-1
 1894 1151 l 1,40,-1
 1802 1055 l 1,41,-1
 1738 1055 l 1,42,-1
 1675 1055 l 1,43,-1
 1582 1153 l 1,44,-1
 1582 1220 l 1,33,-1
1909 1222 m 1,45,-1
 1909 1288 l 1,46,-1
 2006 1387 l 1,47,-1
 2071 1387 l 1,48,-1
 2134 1387 l 1,49,-1
 2221 1294 l 1,50,-1
 2221 1223 l 1,51,-1
 2221 1153 l 1,52,-1
 2129 1057 l 1,53,-1
 2065 1057 l 1,54,-1
 2002 1057 l 1,55,-1
 1909 1155 l 1,56,-1
 1909 1222 l 1,45,-1
EndSplineSet
Substitution2: "'fina' Terminal Forms in Arabic lookup 5 subtable" sheenfinal
Substitution2: "'medi' Medial Forms in Arabic lookup 4 subtable" sheenmedial
Substitution2: "'init' Initial Forms in Arabic lookup 3 subtable" sheeninitial
Substitution2: "'isol' Isolated Forms in Arabic lookup 2 subtable" sheenisolated
AlternateSubs2: "'aalt' Access All Alternates in Latin lookup 1 subtable" sheenisolated sheeninitial sheenmedial sheenfinal
EndChar

StartChar: sad
Encoding: 1589 1589 24
Width: 2895
Flags: W
AnchorPoint: "ArabicBelow" 1447 -742 basechar 0
AnchorPoint: "ArabicAbove" 1447 1028 basechar 0
LayerCount: 2
Fore
SplineSet
2847 206 m 1,0,-1
 2848 1 l 1,1,-1
 2642 1 l 1,2,-1
 1495 1 l 1,3,-1
 1495 -287 l 1,4,-1
 1290 -492 l 1,5,-1
 389 -492 l 1,6,-1
 184 -287 l 1,7,-1
 184 614 l 1,8,-1
 594 614 l 1,9,-1
 594 -205 l 1,10,-1
 1085 -205 l 1,11,-1
 1085 778 l 1,12,-1
 1495 778 l 1,13,-1
 1495 287 l 1,14,-1
 1777 639 l 2,15,16
 1888 778 1888 778 2056 778 c 2,17,-1
 2642 778 l 1,18,-1
 2847 574 l 1,19,-1
 2847 206 l 1,0,-1
2437 287 m 1,20,-1
 2437 492 l 1,21,-1
 2109 492 l 1,22,-1
 1946 287 l 1,23,-1
 2437 287 l 1,20,-1
EndSplineSet
Substitution2: "'fina' Terminal Forms in Arabic lookup 5 subtable" sadfinal
Substitution2: "'medi' Medial Forms in Arabic lookup 4 subtable" sadmedial
Substitution2: "'init' Initial Forms in Arabic lookup 3 subtable" sadinitial
Substitution2: "'isol' Isolated Forms in Arabic lookup 2 subtable" sadisolated
AlternateSubs2: "'aalt' Access All Alternates in Latin lookup 1 subtable" sadisolated sadinitial sadmedial sadfinal
EndChar

StartChar: dad
Encoding: 1590 1590 25
Width: 2881
Flags: W
AnchorPoint: "ArabicBelow" 1440 -742 basechar 0
AnchorPoint: "ArabicAbove" 1440 1558 basechar 0
LayerCount: 2
Fore
SplineSet
2847 206 m 1,0,-1
 2848 1 l 1,1,-1
 2642 1 l 1,2,-1
 1495 1 l 1,3,-1
 1495 -287 l 1,4,-1
 1290 -492 l 1,5,-1
 389 -492 l 1,6,-1
 184 -287 l 1,7,-1
 184 614 l 1,8,-1
 594 614 l 1,9,-1
 594 -205 l 1,10,-1
 1085 -205 l 1,11,-1
 1085 778 l 1,12,-1
 1495 778 l 1,13,-1
 1495 287 l 1,14,-1
 1777 639 l 2,15,16
 1888 778 1888 778 2056 778 c 2,17,-1
 2642 778 l 1,18,-1
 2847 574 l 1,19,-1
 2847 206 l 1,0,-1
2437 287 m 1,20,-1
 2437 492 l 1,21,-1
 2109 492 l 1,22,-1
 1946 287 l 1,23,-1
 2437 287 l 1,20,-1
2103 1143 m 1,24,-1
 2103 1209 l 1,25,-1
 2200 1308 l 1,26,-1
 2265 1308 l 1,27,-1
 2328 1308 l 1,28,-1
 2415 1215 l 1,29,-1
 2415 1144 l 1,30,-1
 2415 1074 l 1,31,-1
 2323 978 l 1,32,-1
 2259 978 l 1,33,-1
 2196 978 l 1,34,-1
 2103 1076 l 1,35,-1
 2103 1143 l 1,24,-1
EndSplineSet
Substitution2: "'fina' Terminal Forms in Arabic lookup 5 subtable" dadfinal
Substitution2: "'medi' Medial Forms in Arabic lookup 4 subtable" dadmedial
Substitution2: "'init' Initial Forms in Arabic lookup 3 subtable" dadinitial
Substitution2: "'isol' Isolated Forms in Arabic lookup 2 subtable" dadisolated
AlternateSubs2: "'aalt' Access All Alternates in Latin lookup 1 subtable" dadisolated dadinitial dadmedial dadfinal
EndChar

StartChar: tah
Encoding: 1591 1591 26
Width: 1752
Flags: W
AnchorPoint: "ArabicBelow" 876 -249 basechar 0
AnchorPoint: "ArabicAbove" 876 1806 basechar 0
LayerCount: 2
Fore
SplineSet
1712 206 m 1,0,-1
 1712 1 l 1,1,-1
 1508 1 l 1,2,-1
 93 1 l 1,3,-1
 93 144 l 1,4,-1
 196 287 l 1,5,-1
 359 287 l 1,6,-1
 640 639 l 1,7,-1
 751 778 l 1,8,-1
 843 778 l 1,9,-1
 843 1556 l 1,10,-1
 1253 1556 l 1,11,-1
 1253 982 l 1,12,-1
 1253 778 l 1,13,-1
 1508 778 l 1,14,-1
 1712 574 l 1,15,-1
 1712 206 l 1,0,-1
1303 287 m 1,16,-1
 1303 502 l 1,17,-1
 963 502 l 1,18,-1
 809 287 l 1,19,-1
 1303 287 l 1,16,-1
EndSplineSet
Substitution2: "'fina' Terminal Forms in Arabic lookup 5 subtable" tahfinal
Substitution2: "'medi' Medial Forms in Arabic lookup 4 subtable" tahmedial
Substitution2: "'init' Initial Forms in Arabic lookup 3 subtable" tahinitial
Substitution2: "'isol' Isolated Forms in Arabic lookup 2 subtable" tahisolated
AlternateSubs2: "'aalt' Access All Alternates in Latin lookup 1 subtable" tahisolated tahinitial tahmedial tahfinal
EndChar

StartChar: zah
Encoding: 1592 1592 27
Width: 1746
Flags: W
AnchorPoint: "ArabicBelow" 873 -249 basechar 0
AnchorPoint: "ArabicAbove" 873 1806 basechar 0
LayerCount: 2
Fore
SplineSet
1712 206 m 1,0,-1
 1712 1 l 1,1,-1
 1508 1 l 1,2,-1
 93 1 l 1,3,-1
 93 144 l 1,4,-1
 196 287 l 1,5,-1
 359 287 l 1,6,-1
 640 639 l 1,7,-1
 751 778 l 1,8,-1
 843 778 l 1,9,-1
 843 1556 l 1,10,-1
 1253 1556 l 1,11,-1
 1253 982 l 1,12,-1
 1253 778 l 1,13,-1
 1508 778 l 1,14,-1
 1712 574 l 1,15,-1
 1712 206 l 1,0,-1
1303 287 m 1,16,-1
 1303 502 l 1,17,-1
 963 502 l 1,18,-1
 809 287 l 1,19,-1
 1303 287 l 1,16,-1
1363 1143 m 1,20,-1
 1363 1209 l 1,21,-1
 1460 1308 l 1,22,-1
 1525 1308 l 1,23,-1
 1588 1308 l 1,24,-1
 1675 1215 l 1,25,-1
 1675 1144 l 1,26,-1
 1675 1074 l 1,27,-1
 1583 978 l 1,28,-1
 1519 978 l 1,29,-1
 1456 978 l 1,30,-1
 1363 1076 l 1,31,-1
 1363 1143 l 1,20,-1
EndSplineSet
Substitution2: "'fina' Terminal Forms in Arabic lookup 5 subtable" zahfinal
Substitution2: "'medi' Medial Forms in Arabic lookup 4 subtable" zahmedial
Substitution2: "'init' Initial Forms in Arabic lookup 3 subtable" zahinitial
Substitution2: "'isol' Isolated Forms in Arabic lookup 2 subtable" zahisolated
AlternateSubs2: "'aalt' Access All Alternates in Latin lookup 1 subtable" zahisolated zahinitial zahmedial zahfinal
EndChar

StartChar: ain
Encoding: 1593 1593 28
Width: 1438
Flags: W
AnchorPoint: "ArabicBelow" 719 -742 basechar 0
AnchorPoint: "ArabicAbove" 719 1028 basechar 0
LayerCount: 2
Fore
SplineSet
1416 1 m 1,0,-1
 594 1 l 1,1,-1
 594 -246 l 1,2,-1
 594 -326 l 1,3,-1
 747 -373 l 1,4,-1
 1238 -373 l 1,5,-1
 1238 -492 l 1,6,-1
 389 -492 l 1,7,-1
 184 -287 l 1,8,-1
 184 82 l 1,9,-1
 389 287 l 1,10,-1
 594 287 l 1,11,-1
 594 574 l 1,12,-1
 799 778 l 1,13,-1
 1413 778 l 1,14,-1
 1413 492 l 1,15,-1
 1004 492 l 1,16,-1
 1004 287 l 1,17,-1
 1416 287 l 1,18,-1
 1416 1 l 1,0,-1
EndSplineSet
Substitution2: "'fina' Terminal Forms in Arabic lookup 5 subtable" ainfinal
Substitution2: "'medi' Medial Forms in Arabic lookup 4 subtable" ainmedial
Substitution2: "'init' Initial Forms in Arabic lookup 3 subtable" aininitial
Substitution2: "'isol' Isolated Forms in Arabic lookup 2 subtable" ainisolated
AlternateSubs2: "'aalt' Access All Alternates in Latin lookup 1 subtable" ainisolated aininitial ainmedial ainfinal
EndChar

StartChar: ghain
Encoding: 1594 1594 29
Width: 1560
Flags: W
AnchorPoint: "ArabicBelow" 780 -742 basechar 0
AnchorPoint: "ArabicAbove" 780 1558 basechar 0
LayerCount: 2
Fore
SplineSet
1416 1 m 1,0,-1
 594 1 l 1,1,-1
 594 -246 l 1,2,-1
 594 -326 l 1,3,-1
 747 -373 l 1,4,-1
 1238 -373 l 1,5,-1
 1238 -492 l 1,6,-1
 389 -492 l 1,7,-1
 184 -287 l 1,8,-1
 184 82 l 1,9,-1
 389 287 l 1,10,-1
 594 287 l 1,11,-1
 594 574 l 1,12,-1
 799 778 l 1,13,-1
 1413 778 l 1,14,-1
 1413 492 l 1,15,-1
 1004 492 l 1,16,-1
 1004 287 l 1,17,-1
 1416 287 l 1,18,-1
 1416 1 l 1,0,-1
923 1143 m 1,19,-1
 923 1209 l 1,20,-1
 1020 1308 l 1,21,-1
 1085 1308 l 1,22,-1
 1148 1308 l 1,23,-1
 1235 1215 l 1,24,-1
 1235 1144 l 1,25,-1
 1235 1074 l 1,26,-1
 1143 978 l 1,27,-1
 1079 978 l 1,28,-1
 1016 978 l 1,29,-1
 923 1076 l 1,30,-1
 923 1143 l 1,19,-1
EndSplineSet
Substitution2: "'fina' Terminal Forms in Arabic lookup 5 subtable" ghainfinal
Substitution2: "'medi' Medial Forms in Arabic lookup 4 subtable" ghainmedial
Substitution2: "'init' Initial Forms in Arabic lookup 3 subtable" ghaininitial
Substitution2: "'isol' Isolated Forms in Arabic lookup 2 subtable" ghainisolated
AlternateSubs2: "'aalt' Access All Alternates in Latin lookup 1 subtable" ghainisolated ghaininitial ghainmedial ghainfinal
EndChar

StartChar: tatweel
Encoding: 1600 1600 30
Width: 350
Flags: W
LayerCount: 2
Fore
SplineSet
370 287 m 1,0,-1
 370 1 l 1,1,-1
 -12 1 l 1,2,-1
 -12 287 l 1,3,-1
 370 287 l 1,0,-1
EndSplineSet
EndChar

StartChar: feh
Encoding: 1601 1601 31
Width: 1930
Flags: W
AnchorPoint: "ArabicBelow" 965 -742 basechar 0
AnchorPoint: "ArabicAbove" 965 1687 basechar 0
LayerCount: 2
Fore
SplineSet
1906 -287 m 1,0,-1
 1701 -492 l 1,1,-1
 389 -492 l 1,2,-1
 184 -288 l 1,3,-1
 184 613 l 1,4,-1
 594 613 l 1,5,-1
 594 -205 l 1,6,-1
 1496 -205 l 1,7,-1
 1496 0 l 1,8,-1
 1084 0 l 1,9,-1
 880 0 l 1,10,-1
 880 205 l 1,11,-1
 880 694 l 1,12,-1
 1084 898 l 1,13,-1
 1701 898 l 1,14,-1
 1906 694 l 1,15,-1
 1906 -287 l 1,0,-1
1547 305 m 1,16,-1
 1547 597 l 1,17,-1
 1255 597 l 1,18,-1
 1255 305 l 1,19,20
 1547 305 l 1,16,-1
1289 1272 m 1,21,-1
 1289 1338 l 1,22,-1
 1386 1437 l 1,23,-1
 1451 1437 l 1,24,-1
 1514 1437 l 1,25,-1
 1601 1344 l 1,26,-1
 1601 1273 l 1,27,-1
 1601 1203 l 1,28,-1
 1509 1107 l 1,29,-1
 1445 1107 l 1,30,-1
 1382 1107 l 1,31,-1
 1289 1205 l 1,32,-1
 1289 1272 l 1,21,-1
EndSplineSet
Substitution2: "'fina' Terminal Forms in Arabic lookup 5 subtable" fehfinal
Substitution2: "'medi' Medial Forms in Arabic lookup 4 subtable" fehmedial
Substitution2: "'init' Initial Forms in Arabic lookup 3 subtable" fehinitial
Substitution2: "'isol' Isolated Forms in Arabic lookup 2 subtable" fehisolated
AlternateSubs2: "'aalt' Access All Alternates in Latin lookup 1 subtable" fehisolated fehinitial fehmedial fehfinal
EndChar

StartChar: qaf
Encoding: 1602 1602 32
Width: 1935
Flags: W
AnchorPoint: "ArabicBelow" 967 -742 basechar 0
AnchorPoint: "ArabicAbove" 967 1687 basechar 0
LayerCount: 2
Fore
SplineSet
1906 -287 m 1,0,-1
 1701 -492 l 1,1,-1
 389 -492 l 1,2,-1
 184 -288 l 1,3,-1
 184 613 l 1,4,-1
 594 613 l 1,5,-1
 594 -205 l 1,6,-1
 1496 -205 l 1,7,-1
 1496 0 l 1,8,-1
 1084 0 l 1,9,-1
 880 0 l 1,10,-1
 880 205 l 1,11,-1
 880 694 l 1,12,-1
 1084 898 l 1,13,-1
 1701 898 l 1,14,-1
 1906 694 l 1,15,-1
 1906 -287 l 1,0,-1
1547 305 m 1,16,-1
 1547 597 l 1,17,-1
 1255 597 l 1,18,-1
 1255 305 l 1,19,20
 1547 305 l 1,16,-1
1072 1270 m 1,21,-1
 1072 1336 l 1,22,-1
 1169 1435 l 1,23,-1
 1234 1435 l 1,24,-1
 1297 1435 l 1,25,-1
 1384 1342 l 1,26,-1
 1384 1271 l 1,27,-1
 1384 1201 l 1,28,-1
 1292 1105 l 1,29,-1
 1228 1105 l 1,30,-1
 1165 1105 l 1,31,-1
 1072 1203 l 1,32,-1
 1072 1270 l 1,21,-1
1399 1272 m 1,33,-1
 1399 1338 l 1,34,-1
 1496 1437 l 1,35,-1
 1561 1437 l 1,36,-1
 1624 1437 l 1,37,-1
 1711 1344 l 1,38,-1
 1711 1273 l 1,39,-1
 1711 1203 l 1,40,-1
 1619 1107 l 1,41,-1
 1555 1107 l 1,42,-1
 1492 1107 l 1,43,-1
 1399 1205 l 1,44,-1
 1399 1272 l 1,33,-1
EndSplineSet
Substitution2: "'fina' Terminal Forms in Arabic lookup 5 subtable" qaffinal
Substitution2: "'medi' Medial Forms in Arabic lookup 4 subtable" qafmedial
Substitution2: "'init' Initial Forms in Arabic lookup 3 subtable" qafinitial
Substitution2: "'isol' Isolated Forms in Arabic lookup 2 subtable" qafisolated
AlternateSubs2: "'aalt' Access All Alternates in Latin lookup 1 subtable" qafisolated qafinitial qafmedial qaffinal
EndChar

StartChar: arabickaf
Encoding: 1603 1603 33
Width: 2124
Flags: W
AnchorPoint: "ArabicBelow" 1062 -737 basechar 0
AnchorPoint: "ArabicAbove" 1062 1811 basechar 0
LayerCount: 2
Fore
SplineSet
2098 -282 m 1,0,-1
 1893 -487 l 1,1,-1
 382 -487 l 1,2,-1
 177 -282 l 1,3,-1
 177 129 l 1,4,-1
 587 129 l 1,5,-1
 587 -200 l 1,6,-1
 1688 -200 l 1,7,-1
 1688 1561 l 1,8,-1
 2098 1561 l 1,9,-1
 2098 -282 l 1,0,-1
1376 127 m 1,10,-1
 882 127 l 1,11,-1
 882 265 l 1,12,-1
 960 265 l 1,13,-1
 960 401 l 1,14,-1
 1058 499 l 1,15,-1
 1317 499 l 1,16,-1
 1317 362 l 1,17,-1
 1157 362 l 1,18,-1
 1157 265 l 1,19,-1
 1376 265 l 1,20,-1
 1376 127 l 1,10,-1
EndSplineSet
Substitution2: "'fina' Terminal Forms in Arabic lookup 5 subtable" arabickaffinal
Substitution2: "'medi' Medial Forms in Arabic lookup 4 subtable" kafmedial
Substitution2: "'init' Initial Forms in Arabic lookup 3 subtable" kafinitial
Substitution2: "'isol' Isolated Forms in Arabic lookup 2 subtable" kafisolated
AlternateSubs2: "'aalt' Access All Alternates in Latin lookup 1 subtable" kafisolated kafinitial kafmedial arabickaffinal
EndChar

StartChar: lam
Encoding: 1604 1604 34
Width: 1540
Flags: W
AnchorPoint: "ArabicBelow" 770 -742 basechar 0
AnchorPoint: "ArabicAbove" 770 1806 basechar 0
LayerCount: 2
Fore
SplineSet
1495 -287 m 1,0,-1
 1290 -492 l 1,1,-1
 389 -492 l 1,2,-1
 184 -287 l 1,3,-1
 184 474 l 1,4,-1
 594 474 l 1,5,-1
 594 -205 l 1,6,-1
 1085 -205 l 1,7,-1
 1085 1556 l 1,8,-1
 1495 1556 l 1,9,-1
 1495 -287 l 1,0,-1
EndSplineSet
Substitution2: "'fina' Terminal Forms in Arabic lookup 5 subtable" lamfinal
Substitution2: "'medi' Medial Forms in Arabic lookup 4 subtable" lammedial
Substitution2: "'init' Initial Forms in Arabic lookup 3 subtable" laminitial
Substitution2: "'isol' Isolated Forms in Arabic lookup 2 subtable" lamisolated
AlternateSubs2: "'aalt' Access All Alternates in Latin lookup 1 subtable" lamisolated laminitial lammedial lamfinal
EndChar

StartChar: meem
Encoding: 1605 1605 35
Width: 1639
Flags: W
AnchorPoint: "ArabicBelow" 819 -742 basechar 0
AnchorPoint: "ArabicAbove" 819 1028 basechar 0
LayerCount: 2
Fore
SplineSet
1618 207 m 1,0,-1
 1618 1 l 1,1,-1
 1413 1 l 1,2,-1
 594 1 l 1,3,-1
 594 -492 l 1,4,-1
 184 -492 l 1,5,-1
 184 82 l 1,6,-1
 389 287 l 1,7,-1
 594 287 l 1,8,-1
 594 574 l 1,9,-1
 799 778 l 1,10,-1
 1413 778 l 1,11,-1
 1618 574 l 1,12,-1
 1618 207 l 1,0,-1
1208 287 m 1,13,-1
 1208 492 l 1,14,-1
 1004 492 l 1,15,-1
 1004 287 l 1,16,-1
 1208 287 l 1,13,-1
EndSplineSet
Substitution2: "'fina' Terminal Forms in Arabic lookup 5 subtable" meemfinal
Substitution2: "'medi' Medial Forms in Arabic lookup 4 subtable" meemmedial
Substitution2: "'init' Initial Forms in Arabic lookup 3 subtable" meeminitial
Substitution2: "'isol' Isolated Forms in Arabic lookup 2 subtable" meemisolated
AlternateSubs2: "'aalt' Access All Alternates in Latin lookup 1 subtable" meemisolated meeminitial meemmedial meemfinal
EndChar

StartChar: noon
Encoding: 1606 1606 36
Width: 1509
Flags: W
AnchorPoint: "ArabicBelow" 754 -742 basechar 0
AnchorPoint: "ArabicAbove" 754 1032 basechar 0
LayerCount: 2
Fore
SplineSet
1495 -287 m 1,0,-1
 1290 -492 l 1,1,-1
 389 -492 l 1,2,-1
 184 -287 l 1,3,-1
 184 778 l 1,4,-1
 594 778 l 1,5,-1
 594 -205 l 1,6,-1
 1085 -205 l 1,7,-1
 1085 778 l 1,8,-1
 1495 778 l 1,9,-1
 1495 -287 l 1,0,-1
681 617 m 1,10,-1
 681 683 l 1,11,-1
 778 782 l 1,12,-1
 843 782 l 1,13,-1
 906 782 l 1,14,-1
 993 689 l 1,15,-1
 993 618 l 1,16,-1
 993 548 l 1,17,-1
 901 452 l 1,18,-1
 837 452 l 1,19,-1
 774 452 l 1,20,-1
 681 550 l 1,21,-1
 681 617 l 1,10,-1
EndSplineSet
Substitution2: "'fina' Terminal Forms in Arabic lookup 5 subtable" noonfinal
Substitution2: "'medi' Medial Forms in Arabic lookup 4 subtable" noonmedial
Substitution2: "'init' Initial Forms in Arabic lookup 3 subtable" nooninitial
Substitution2: "'isol' Isolated Forms in Arabic lookup 2 subtable" noonisolated
AlternateSubs2: "'aalt' Access All Alternates in Latin lookup 1 subtable" noonisolated nooninitial noonmedial noonfinal
EndChar

StartChar: heh
Encoding: 1607 1607 37
Width: 1240
Flags: W
AnchorPoint: "ArabicBelow" 620 -249 basechar 0
AnchorPoint: "ArabicAbove" 620 1028 basechar 0
LayerCount: 2
Fore
SplineSet
1208 207 m 1,0,-1
 1208 1 l 1,1,-1
 1004 1 l 1,2,-1
 390 1 l 1,3,-1
 184 1 l 1,4,-1
 184 202 l 1,5,-1
 184 574 l 1,6,-1
 389 778 l 1,7,-1
 1004 778 l 1,8,-1
 1208 574 l 1,9,-1
 1208 207 l 1,0,-1
799 287 m 1,10,-1
 799 492 l 1,11,-1
 594 492 l 1,12,-1
 594 287 l 1,13,-1
 799 287 l 1,10,-1
EndSplineSet
Substitution2: "'fina' Terminal Forms in Arabic lookup 5 subtable" hehfinal
Substitution2: "'medi' Medial Forms in Arabic lookup 4 subtable" hehmedial
Substitution2: "'init' Initial Forms in Arabic lookup 3 subtable" hehinitial
Substitution2: "'isol' Isolated Forms in Arabic lookup 2 subtable" hehisolated
AlternateSubs2: "'aalt' Access All Alternates in Latin lookup 1 subtable" hehisolated hehinitial hehmedial hehfinal
EndChar

StartChar: waw
Encoding: 1608 1608 38
Width: 1230
Flags: W
AnchorPoint: "ArabicBelow" 615 -742 basechar 0
AnchorPoint: "ArabicAbove" 615 1028 basechar 0
LayerCount: 2
Fore
SplineSet
1208 -287 m 1,0,-1
 1208 -492 l 1,1,-1
 1004 -492 l 1,2,-1
 184 -492 l 1,3,-1
 184 -205 l 1,4,-1
 799 -205 l 1,5,-1
 799 1 l 1,6,-1
 184 1 l 1,7,-1
 184 574 l 1,8,-1
 389 778 l 1,9,-1
 1004 778 l 1,10,-1
 1208 574 l 1,11,-1
 1208 -287 l 1,0,-1
799 287 m 1,12,-1
 799 492 l 1,13,-1
 594 492 l 1,14,-1
 594 287 l 1,15,-1
 799 287 l 1,12,-1
EndSplineSet
Substitution2: "'fina' Terminal Forms in Arabic lookup 5 subtable" wawfinal
Substitution2: "'isol' Isolated Forms in Arabic lookup 2 subtable" wawisolated
AlternateSubs2: "'aalt' Access All Alternates in Latin lookup 1 subtable" wawisolated wawfinal
EndChar

StartChar: alefmaksura
Encoding: 1609 1609 39
Width: 1635
Flags: W
AnchorPoint: "ArabicBelow" 817 -742 basechar 0
AnchorPoint: "ArabicAbove" 817 1028 basechar 0
LayerCount: 2
Fore
SplineSet
1618 -287 m 1,0,-1
 1413 -492 l 1,1,-1
 389 -492 l 1,2,-1
 184 -287 l 1,3,-1
 184 492 l 1,4,-1
 594 492 l 1,5,-1
 594 -205 l 1,6,-1
 1208 -205 l 1,7,-1
 1208 1 l 1,8,-1
 799 1 l 1,9,-1
 799 573 l 1,10,-1
 1004 778 l 1,11,-1
 1618 778 l 1,12,-1
 1618 492 l 1,13,-1
 1208 492 l 1,14,-1
 1208 287 l 1,15,-1
 1618 287 l 1,16,-1
 1618 -287 l 1,0,-1
EndSplineSet
Substitution2: "'fina' Terminal Forms in Arabic lookup 5 subtable" alefmaksurafinal
Substitution2: "'isol' Isolated Forms in Arabic lookup 2 subtable" alefmaksuraisolated
AlternateSubs2: "'aalt' Access All Alternates in Latin lookup 1 subtable" alefmaksuraisolated alefmaksurafinal
EndChar

StartChar: yeh
Encoding: 1610 1610 40
Width: 1639
Flags: W
AnchorPoint: "ArabicBelow" 819 -1134 basechar 0
AnchorPoint: "ArabicAbove" 819 1028 basechar 0
LayerCount: 2
Fore
SplineSet
1618 -287 m 1,0,-1
 1413 -492 l 1,1,-1
 389 -492 l 1,2,-1
 184 -287 l 1,3,-1
 184 492 l 1,4,-1
 594 492 l 1,5,-1
 594 -205 l 1,6,-1
 1208 -205 l 1,7,-1
 1208 1 l 1,8,-1
 799 1 l 1,9,-1
 799 573 l 1,10,-1
 1004 778 l 1,11,-1
 1618 778 l 1,12,-1
 1618 492 l 1,13,-1
 1208 492 l 1,14,-1
 1208 287 l 1,15,-1
 1618 287 l 1,16,-1
 1618 -287 l 1,0,-1
519 -719 m 1,17,-1
 519 -653 l 1,18,-1
 616 -554 l 1,19,-1
 681 -554 l 1,20,-1
 744 -554 l 1,21,-1
 831 -647 l 1,22,-1
 831 -718 l 1,23,-1
 831 -788 l 1,24,-1
 739 -884 l 1,25,-1
 675 -884 l 1,26,-1
 612 -884 l 1,27,-1
 519 -786 l 1,28,-1
 519 -719 l 1,17,-1
846 -717 m 1,29,-1
 846 -651 l 1,30,-1
 943 -552 l 1,31,-1
 1008 -552 l 1,32,-1
 1071 -552 l 1,33,-1
 1158 -645 l 1,34,-1
 1158 -716 l 1,35,-1
 1158 -786 l 1,36,-1
 1066 -882 l 1,37,-1
 1002 -882 l 1,38,-1
 939 -882 l 1,39,-1
 846 -784 l 1,40,-1
 846 -717 l 1,29,-1
EndSplineSet
Substitution2: "'fina' Terminal Forms in Arabic lookup 5 subtable" yehfinal
Substitution2: "'medi' Medial Forms in Arabic lookup 4 subtable" yehmedial
Substitution2: "'init' Initial Forms in Arabic lookup 3 subtable" yehinitial
Substitution2: "'isol' Isolated Forms in Arabic lookup 2 subtable" yehisolated
AlternateSubs2: "'aalt' Access All Alternates in Latin lookup 1 subtable" yehisolated yehinitial yehmedial yehfinal
EndChar

StartChar: fathatan
Encoding: 1611 1611 41
Width: 0
Flags: W
AnchorPoint: "ArabicAboveLigature" 230 1275 mark 0
AnchorPoint: "ArabicAbove" 230 1275 mark 0
LayerCount: 2
Fore
SplineSet
398 2164 m 1,0,1
 398 2098 398 2098 363 2078 c 2,2,-1
 60 1906 l 1,3,4
 63 1944 63 1944 74 1965 c 0,5,6
 86 1985 86 1985 126 2007 c 2,7,-1
 398 2164 l 1,0,1
398 2018 m 1,8,9
 398 1952 398 1952 363 1932 c 2,10,-1
 60 1760 l 1,11,12
 63 1798 63 1798 74 1819 c 0,13,14
 86 1839 86 1839 126 1861 c 2,15,-1
 398 2018 l 1,8,9
EndSplineSet
AlternateSubs2: "'aalt' Access All Alternates in Latin lookup 1 subtable" fathatanisolated fathatanlow
EndChar

StartChar: dammatan
Encoding: 1612 1612 42
Width: 0
Flags: W
AnchorPoint: "ArabicAboveLigature" 230 1275 mark 0
AnchorPoint: "ArabicAbove" 230 1275 mark 0
LayerCount: 2
Fore
SplineSet
396 1582 m 0,0,1
 396 1565 396 1565 395.5 1550 c 128,-1,2
 395 1535 395 1535 394 1523 c 1,3,4
 374 1534 374 1534 351 1548.5 c 128,-1,5
 328 1563 328 1563 302 1582 c 1,6,7
 176 1453 176 1453 62 1437 c 1,8,9
 105 1526 105 1526 105 1566 c 0,10,11
 105 1621 105 1621 56 1621 c 0,12,13
 14 1621 14 1621 7 1545 c 1,14,15
 -3 1574 -3 1574 -3 1597 c 256,16,17
 -3 1620 -3 1620 3.5 1640 c 128,-1,18
 10 1660 10 1660 21.5 1675 c 128,-1,19
 33 1690 33 1690 48 1698.5 c 128,-1,20
 63 1707 63 1707 81 1707 c 0,21,22
 148 1707 148 1707 148 1607 c 2,23,-1
 142 1515 l 1,24,25
 207 1540 207 1540 266 1605 c 1,26,27
 200 1648 200 1648 200 1699 c 0,28,29
 200 1752 200 1752 240 1798 c 0,30,31
 280 1846 280 1846 322 1846 c 0,32,33
 344 1846 344 1846 367 1819 c 0,34,35
 390 1793 390 1793 390 1766 c 0,36,37
 390 1736 390 1736 379 1708 c 0,38,-1
 357 1652 l 1,39,40
 396 1622 396 1622 396 1582 c 0,0,1
320 1726 m 0,41,42
 320 1779 320 1779 279 1779 c 0,43,44
 253 1779 253 1779 253 1756 c 0,45,46
 253 1730 253 1730 316 1687 c 1,47,48
 320 1696 320 1696 320 1726 c 0,41,42
EndSplineSet
AlternateSubs2: "'aalt' Access All Alternates in Latin lookup 1 subtable" dammatanisolated dammatanlow
EndChar

StartChar: kasratan
Encoding: 1613 1613 43
Width: 0
Flags: W
AnchorPoint: "ArabicBelowLigature" 165 -500 mark 0
AnchorPoint: "ArabicBelow" 165 -500 mark 0
LayerCount: 2
Fore
SplineSet
339 -620 m 1,0,1
 339 -686 339 -686 304 -706 c 2,2,-1
 1 -878 l 1,3,4
 4 -840 4 -840 15 -818 c 1,5,6
 28 -800 28 -800 67 -777 c 2,7,-1
 339 -620 l 1,0,1
339 -767 m 1,8,9
 339 -833 339 -833 304 -853 c 2,10,-1
 1 -1025 l 1,11,12
 4 -987 4 -987 15 -965 c 1,13,14
 28 -947 28 -947 67 -924 c 2,15,-1
 339 -767 l 1,8,9
EndSplineSet
AlternateSubs2: "'aalt' Access All Alternates in Latin lookup 1 subtable" kasratanisolated kasratanlow
EndChar

StartChar: fatha
Encoding: 1614 1614 44
Width: 0
Flags: W
AnchorPoint: "ArabicAboveLigature" 230 1275 mark 0
AnchorPoint: "ArabicAbove" 230 1275 mark 0
LayerCount: 2
Fore
SplineSet
283 1910 m 1,0,1
 283 1856 283 1856 254 1839 c 2,2,-1
 5 1698 l 1,3,4
 7 1732 7 1732 16 1747 c 0,5,6
 26 1762 26 1762 59 1781 c 2,7,-1
 283 1910 l 1,0,1
EndSplineSet
AlternateSubs2: "'aalt' Access All Alternates in Latin lookup 1 subtable" fathaisolated fathalow
EndChar

StartChar: damma
Encoding: 1615 1615 45
Width: 0
Flags: W
AnchorPoint: "ArabicAboveLigature" 230 1275 mark 0
AnchorPoint: "ArabicAbove" 230 1275 mark 0
LayerCount: 2
Fore
SplineSet
280 1883 m 1,0,-1
 273 1802 l 1,1,-1
 208 1845 l 1,2,3
 109 1727 109 1727 46 1727 c 0,4,5
 28 1727 28 1727 -2 1737 c 1,6,7
 40 1760 40 1760 83.5 1791.5 c 128,-1,8
 127 1823 127 1823 173 1865 c 1,9,10
 123 1903 123 1903 123 1938 c 0,11,12
 123 1988 123 1988 159 2041 c 0,13,14
 185 2076 185 2076 218 2076 c 0,15,16
 273 2076 273 2076 273 2004 c 0,17,18
 273 1962 273 1962 248 1908 c 1,19,20
 254 1904 254 1904 262 1897.5 c 128,-1,21
 270 1891 270 1891 280 1883 c 1,0,-1
223 1956 m 0,22,23
 223 1974 223 1974 209.5 1990 c 128,-1,24
 196 2006 196 2006 179 2006 c 0,25,26
 164 2006 164 2006 164 1989 c 0,27,28
 164 1964 164 1964 218 1928 c 1,29,30
 223 1948 223 1948 223 1956 c 0,22,23
EndSplineSet
AlternateSubs2: "'aalt' Access All Alternates in Latin lookup 1 subtable" dammaisolated dammalow
EndChar

StartChar: kasra
Encoding: 1616 1616 46
Width: 0
Flags: W
AnchorPoint: "ArabicBelowLigature" 165 -500 mark 0
AnchorPoint: "ArabicBelow" 165 -500 mark 0
LayerCount: 2
Fore
SplineSet
351 -620 m 1,0,1
 351 -686 351 -686 316 -706 c 2,2,-1
 13 -878 l 1,3,4
 16 -840 16 -840 27 -818 c 1,5,6
 40 -800 40 -800 79 -777 c 2,7,-1
 351 -620 l 1,0,1
EndSplineSet
AlternateSubs2: "'aalt' Access All Alternates in Latin lookup 1 subtable" kasraisolated kasralow
EndChar

StartChar: shadda
Encoding: 1617 1617 47
Width: 0
Flags: W
AnchorPoint: "ArabicAboveLigature" 300 1650 mark 0
AnchorPoint: "ArabicAbove" 300 1650 mark 0
LayerCount: 2
Fore
SplineSet
355 1683 m 0,0,1
 355 1515 355 1515 251 1515 c 0,2,3
 215 1515 215 1515 187 1536 c 1,4,5
 179 1501 179 1501 148 1476 c 0,6,7
 116 1450 116 1450 83 1450 c 0,8,9
 1 1450 1 1450 1 1558 c 0,10,11
 1 1583 1 1583 23 1659 c 1,12,-1
 46 1663 l 1,13,14
 46 1552 46 1552 85 1552 c 0,15,16
 149 1552 149 1552 175 1714 c 1,17,-1
 193 1720 l 1,18,19
 216 1622 216 1622 251 1622 c 0,20,21
 309 1622 309 1622 318 1769 c 1,22,-1
 341 1779 l 1,23,24
 355 1718 355 1718 355 1683 c 0,0,1
EndSplineSet
AlternateSubs2: "'aalt' Access All Alternates in Latin lookup 1 subtable" shaddaisolated shaddalow
EndChar

StartChar: sukun
Encoding: 1618 1618 48
Width: 0
Flags: W
AnchorPoint: "ArabicAboveLigature" 230 1275 mark 0
AnchorPoint: "ArabicAbove" 230 1275 mark 0
LayerCount: 2
Fore
SplineSet
260 1614 m 0,0,1
 260 1549 260 1549 214 1500 c 0,2,3
 167 1450 167 1450 109 1450 c 0,4,5
 2 1450 2 1450 2 1571 c 0,6,7
 2 1655 2 1655 40 1708 c 0,8,9
 77 1762 77 1762 139 1762 c 0,10,11
 186 1762 186 1762 223 1716 c 0,12,13
 260 1673 260 1673 260 1614 c 0,0,1
205 1590 m 0,14,15
 205 1616 205 1616 162 1647 c 0,16,17
 121 1676 121 1676 94 1676 c 0,18,19
 35 1676 35 1676 35 1608 c 0,20,21
 35 1549 35 1549 127 1549 c 0,22,23
 205 1549 205 1549 205 1590 c 0,14,15
EndSplineSet
AlternateSubs2: "'aalt' Access All Alternates in Latin lookup 1 subtable" sukunisolated sukunlow
EndChar

StartChar: arabicindicdigitzero
Encoding: 1632 1632 49
Width: 466
Flags: W
LayerCount: 2
Fore
SplineSet
362 449 m 1,0,-1
 292 205 l 1,1,-1
 98 325 l 1,2,-1
 168 569 l 1,3,-1
 362 449 l 1,0,-1
EndSplineSet
EndChar

StartChar: arabicindicdigitone
Encoding: 1633 1633 50
Width: 502
Flags: W
LayerCount: 2
Fore
SplineSet
404 134 m 2,0,1
 404 83 404 83 401 46.5 c 128,-1,2
 398 10 398 10 393 -15 c 1,3,-1
 393 -16 l 1,4,5
 385 -66 385 -66 367 -66 c 0,6,7
 355 -66 355 -66 342 0 c 0,8,9
 319 147 319 147 302.5 235 c 128,-1,10
 286 323 286 323 272 359 c 0,11,12
 258 394 258 394 246 425 c 128,-1,13
 234 456 234 456 222 484 c 0,14,15
 211 510 211 510 199 533.5 c 128,-1,16
 187 557 187 557 174 581 c 2,17,-1
 104 701 l 1,18,19
 105 714 105 714 106 723 c 128,-1,20
 107 732 107 732 109 738 c 0,21,22
 113 750 113 750 119.5 770.5 c 128,-1,23
 126 791 126 791 138 827 c 0,24,25
 171 917 171 917 177 919 c 1,26,27
 191 914 191 914 236 847 c 0,28,29
 265 805 265 805 291.5 749 c 128,-1,30
 318 693 318 693 344 618 c 0,31,32
 357 573 357 573 367.5 526 c 128,-1,33
 378 479 378 479 387 428 c 0,34,35
 395 377 395 377 399 329 c 128,-1,36
 403 281 403 281 403 235 c 2,37,-1
 403 199 l 1,38,-1
 404 134 l 2,0,1
EndSplineSet
EndChar

StartChar: arabicindicdigittwo
Encoding: 1634 1634 51
Width: 724
Flags: W
LayerCount: 2
Fore
SplineSet
183 720 m 1,0,-1
 183 792 l 2,1,2
 185 812 185 812 189 834.5 c 128,-1,3
 193 857 193 857 204 875 c 0,4,5
 228 915 228 915 281.5 931 c 128,-1,6
 335 947 335 947 400 950 c 128,-1,7
 465 953 465 953 531 948 c 128,-1,8
 597 943 597 943 673 930 c 1,9,10
 654 809 654 809 648 782 c 1,11,12
 632 788 632 788 569 795.5 c 128,-1,13
 506 803 506 803 484 802 c 128,-1,14
 462 801 462 801 454 800 c 0,15,16
 401 795 401 795 373 777.5 c 128,-1,17
 345 760 345 760 335.5 734.5 c 128,-1,18
 326 709 326 709 330.5 676.5 c 128,-1,19
 335 644 335 644 347.5 609 c 128,-1,20
 360 574 360 574 375.5 538 c 128,-1,21
 391 502 391 502 404 470 c 0,22,23
 405 467 405 467 407 462.5 c 128,-1,24
 409 458 409 458 413 444.5 c 128,-1,25
 417 431 417 431 424.5 404.5 c 128,-1,26
 432 378 432 378 444 331 c 2,27,-1
 460 233 l 1,28,-1
 467 155 l 1,29,-1
 470 73 l 2,30,31
 470 -78 470 -78 440 -78 c 0,32,33
 420 -78 420 -78 402 19 c 0,34,35
 388 95 388 95 369 178 c 0,36,37
 362 211 362 211 348 248 c 2,38,-1
 329 311 l 2,39,40
 297 402 297 402 265.5 475 c 128,-1,41
 234 548 234 548 209 631 c 2,42,-1
 183 720 l 1,0,-1
EndSplineSet
EndChar

StartChar: arabicindicdigitthree
Encoding: 1635 1635 52
Width: 939
Flags: W
LayerCount: 2
Fore
SplineSet
765 964 m 1,0,1
 766 964 766 964 766.5 964.5 c 128,-1,2
 767 965 767 965 768 965 c 1,3,-1
 765 964 l 1,0,1
768 944 m 1,4,5
 771 944 771 944 776 940 c 1,6,-1
 779 927 l 1,7,-1
 781 898 l 2,8,9
 781 856 781 856 773 813 c 128,-1,10
 765 770 765 770 748 720 c 0,11,12
 714 618 714 618 669 602 c 1,13,-1
 668 601 l 1,14,15
 659 599 659 599 650 597.5 c 128,-1,16
 641 596 641 596 637 596 c 0,17,18
 601 596 601 596 568 613 c 1,19,-1
 567 613 l 1,20,-1
 530 630 l 1,21,-1
 510 640 l 1,22,-1
 496 651 l 1,23,-1
 483 649 l 1,24,25
 459 619 459 619 436 599.5 c 128,-1,26
 413 580 413 580 392 569 c 2,27,-1
 353 555 l 1,28,-1
 346 538 l 1,29,-1
 361 472 l 1,30,-1
 376 395 l 1,31,-1
 383 330 l 1,32,-1
 390 273 l 1,33,-1
 390 117 l 2,34,35
 390 61 390 61 389 22.5 c 128,-1,36
 388 -16 388 -16 384 -40.5 c 128,-1,37
 380 -65 380 -65 374 -75.5 c 128,-1,38
 368 -86 368 -86 358 -86 c 0,39,40
 340 -86 340 -86 325 66 c 0,41,42
 309 230 309 230 272 348 c 0,43,44
 259 394 259 394 246.5 434 c 128,-1,45
 234 474 234 474 221 508 c 0,46,47
 208 545 208 545 197.5 573.5 c 128,-1,48
 187 602 187 602 178 623 c 1,49,-1
 177 624 l 1,50,-1
 123 732 l 1,51,-1
 100 778 l 1,52,-1
 122 831 l 2,53,54
 137 862 137 862 152.5 887 c 128,-1,55
 168 912 168 912 184 933 c 1,56,-1
 242 858 l 2,57,58
 319 762 319 762 369 762 c 0,59,60
 384 762 384 762 401 772 c 0,61,62
 455 815 455 815 487 872 c 2,63,-1
 553 981 l 1,64,65
 563 981 563 981 563 950 c 2,66,-1
 563 923 l 1,67,-1
 565 896 l 1,68,-1
 565 894 l 1,69,70
 570 875 570 875 600 846 c 1,71,-1
 600 845 l 1,72,73
 616 833 616 833 633 826 c 128,-1,74
 650 819 650 819 669 819 c 0,75,76
 695 819 695 819 718 848 c 2,77,-1
 721 852 l 1,78,-1
 746 918 l 2,79,80
 754 936 754 936 768 944 c 1,4,5
EndSplineSet
EndChar

StartChar: arabicindicdigitfour
Encoding: 1636 1636 53
Width: 630
Flags: W
LayerCount: 2
Fore
SplineSet
462 -64 m 1,0,-1
 457 -64 l 2,1,2
 402 -64 402 -64 289 -24 c 0,3,4
 116 28 116 28 116 107 c 0,5,6
 116 125 116 125 128.5 154 c 128,-1,7
 141 183 141 183 164 218 c 2,8,-1
 286 386 l 1,9,-1
 288 396 l 1,10,11
 288 416 288 416 188 484 c 0,12,13
 165 498 165 498 145.5 515 c 128,-1,14
 126 532 126 532 112 547 c 1,15,16
 111 555 111 555 110.5 561 c 128,-1,17
 110 567 110 567 109 575 c 0,18,19
 109 598 109 598 115.5 622.5 c 128,-1,20
 122 647 122 647 134 675 c 1,21,-1
 134 674 l 1,22,23
 158 720 158 720 193.5 764.5 c 128,-1,24
 229 809 229 809 274 850 c 0,25,26
 312 882 312 882 344 904 c 128,-1,27
 376 926 376 926 396 933 c 1,28,29
 390 896 390 896 385.5 864 c 128,-1,30
 381 832 381 832 376 795 c 1,31,-1
 311 775 l 1,32,33
 237 740 237 740 226 703 c 1,34,35
 226 670 226 670 309 621 c 0,36,37
 343 605 343 605 374.5 589.5 c 128,-1,38
 406 574 406 574 439 559 c 1,39,-1
 440 551 l 2,40,41
 440 533 440 533 423 501.5 c 128,-1,42
 406 470 406 470 377 433 c 2,43,-1
 295 346 l 2,44,45
 273 324 273 324 251 286 c 0,46,47
 239 266 239 266 237 247.5 c 128,-1,48
 235 229 235 229 240 215 c 1,49,-1
 244 209 l 1,50,51
 251 204 251 204 267 195.5 c 128,-1,52
 283 187 283 187 311 176 c 2,53,-1
 426 134 l 2,54,55
 444 129 444 129 462 124.5 c 128,-1,56
 480 120 480 120 499 115 c 0,57,58
 505 113 505 113 510 111 c 128,-1,59
 515 109 515 109 521 107 c 1,60,-1
 462 -64 l 1,0,-1
EndSplineSet
EndChar

StartChar: arabicindicdigitfive
Encoding: 1637 1637 54
Width: 740
Flags: W
LayerCount: 2
Fore
SplineSet
555 359 m 1,0,1
 560 364 560 364 560.5 367 c 128,-1,2
 561 370 561 370 561 374 c 0,3,4
 561 390 561 390 542.5 420.5 c 128,-1,5
 524 451 524 451 487 502 c 1,6,-1
 486 502 l 1,7,8
 388 624 388 624 313 624 c 0,9,10
 288 624 288 624 244 547 c 0,11,12
 202 472 202 472 202 411 c 2,13,-1
 202 410 l 1,14,-1
 206 368 l 1,15,16
 213 346 213 346 261 319 c 1,17,-1
 263 319 l 1,18,-1
 282 312 l 1,19,-1
 283 311 l 1,20,-1
 314 304 l 1,21,-1
 316 304 l 1,22,-1
 374 300 l 1,23,-1
 396 300 l 1,24,-1
 421 301 l 1,25,-1
 422 301 l 2,26,27
 442 303 442 303 448 306 c 1,28,-1
 473 313 l 2,29,30
 500 320 500 320 520.5 332 c 128,-1,31
 541 344 541 344 556 359 c 1,32,-1
 555 359 l 1,0,1
640 494 m 2,33,34
 640 423 640 423 616 321 c 0,35,36
 593 225 593 225 563 198 c 0,37,38
 513 159 513 159 442 130 c 0,39,40
 425 124 425 124 408 119.5 c 128,-1,41
 391 115 391 115 372 110 c 2,42,-1
 338 105 l 1,43,-1
 305 103 l 2,44,45
 262 103 262 103 221 116.5 c 128,-1,46
 180 130 180 130 143 172 c 0,47,48
 103 215 103 215 103 305 c 0,49,50
 103 454 103 454 206 641 c 0,51,52
 307 823 307 823 390 823 c 0,53,54
 447 823 447 823 522 737 c 0,55,56
 596 651 596 651 635 542 c 1,57,-1
 639 516 l 1,58,-1
 640 494 l 2,33,34
EndSplineSet
EndChar

StartChar: arabicindicdigitsix
Encoding: 1638 1638 55
Width: 770
Flags: W
LayerCount: 2
Fore
SplineSet
634 -57 m 2,0,1
 632 -57 632 -57 632 -55 c 1,2,3
 635 -57 635 -57 636 -57 c 1,4,-1
 634 -57 l 2,0,1
675 150 m 2,5,6
 674 138 674 138 668 107 c 128,-1,7
 662 76 662 76 652 31 c 0,8,9
 630 -43 630 -43 632 -55 c 1,10,11
 621 -48 621 -48 602 -19.5 c 128,-1,12
 583 9 583 9 560 54 c 0,13,14
 522 129 522 129 502 210 c 128,-1,15
 482 291 482 291 482 375 c 2,16,-1
 482 474 l 2,17,18
 485 519 485 519 485.5 549 c 128,-1,19
 486 579 486 579 486 591 c 0,20,21
 487 603 487 603 489.5 625 c 128,-1,22
 492 647 492 647 495 673 c 1,23,-1
 471 698 l 1,24,25
 460 696 460 696 445.5 693 c 128,-1,26
 431 690 431 690 419 688 c 0,27,28
 415 687 415 687 410 687 c 0,29,30
 406 687 406 687 403 686 c 0,31,32
 371 681 371 681 351 678 c 128,-1,33
 331 675 331 675 312 675 c 0,34,35
 230 675 230 675 201 691 c 0,36,37
 145 714 145 714 115 766 c 1,38,-1
 117 763 l 1,39,40
 115 768 115 768 113 775.5 c 128,-1,41
 111 783 111 783 109 789 c 1,42,-1
 107 819 l 2,43,44
 107 859 107 859 133 965 c 1,45,-1
 191 928 l 2,46,47
 236 907 236 907 280.5 896 c 128,-1,48
 325 885 325 885 375 885 c 0,49,50
 406 885 406 885 450 893 c 128,-1,51
 494 901 494 901 546 915 c 1,52,-1
 548 915 l 1,53,-1
 542 885 l 1,54,-1
 542 886 l 1,55,-1
 528 808 l 2,56,57
 527 794 527 794 526 779 c 128,-1,58
 525 764 525 764 524 750 c 2,59,-1
 513 643 l 1,60,-1
 518 643 l 1,61,-1
 518 599 l 1,62,-1
 523 552 l 1,63,-1
 527 516 l 1,64,-1
 545 435 l 2,65,66
 557 388 557 388 574.5 341.5 c 128,-1,67
 592 295 592 295 615 251 c 0,68,69
 630 223 630 223 643 201.5 c 128,-1,70
 656 180 656 180 675 155 c 1,71,-1
 675 150 l 2,5,6
EndSplineSet
EndChar

StartChar: arabicindicdigitseven
Encoding: 1639 1639 56
Width: 919
Flags: W
LayerCount: 2
Fore
SplineSet
814 763 m 1,0,1
 800 749 800 749 776 715.5 c 128,-1,2
 752 682 752 682 720 628 c 0,3,4
 691 579 691 579 661.5 514.5 c 128,-1,5
 632 450 632 450 601 369 c 2,6,-1
 568 271 l 1,7,-1
 510 87 l 2,8,9
 478 -11 478 -11 466 -15 c 1,10,11
 453 -15 453 -15 428 73 c 0,12,13
 416 119 416 119 404 158.5 c 128,-1,14
 392 198 392 198 379 234 c 0,15,16
 368 267 368 267 355.5 297 c 128,-1,17
 343 327 343 327 329 355 c 2,18,-1
 289 442 l 2,19,20
 278 463 278 463 269 480.5 c 128,-1,21
 260 498 260 498 250 514 c 0,22,23
 232 546 232 546 212 576 c 128,-1,24
 192 606 192 606 170 634 c 1,25,-1
 170 635 l 1,26,-1
 119 692 l 1,27,-1
 100 710 l 1,28,-1
 126 784 l 2,29,30
 140 823 140 823 152 849.5 c 128,-1,31
 164 876 164 876 174 889 c 1,32,-1
 217 844 l 1,33,-1
 243 809 l 1,34,-1
 275 759 l 2,35,36
 286 742 286 742 296.5 721 c 128,-1,37
 307 700 307 700 320 674 c 2,38,-1
 418 438 l 1,39,-1
 479 279 l 1,40,-1
 501 279 l 1,41,-1
 544 409 l 1,42,-1
 569 484 l 1,43,-1
 598 562 l 1,44,-1
 626 633 l 1,45,-1
 655 698 l 2,46,47
 670 736 670 736 694.5 776 c 128,-1,48
 719 816 719 816 751 861 c 0,49,50
 770 887 770 887 780.5 901.5 c 128,-1,51
 791 916 791 916 796 921 c 1,52,53
 796 916 796 916 799 895 c 0,54,55
 802 875 802 875 814 763 c 1,0,1
EndSplineSet
EndChar

StartChar: arabicindicdigiteight
Encoding: 1640 1640 57
Width: 903
Flags: W
LayerCount: 2
Fore
SplineSet
793 104 m 2,0,1
 777 47 777 47 764 13.5 c 128,-1,2
 751 -20 751 -20 740 -34 c 1,3,-1
 697 13 l 2,4,5
 681 33 681 33 668 53.5 c 128,-1,6
 655 74 655 74 644 94 c 0,7,8
 637 105 637 105 625.5 127.5 c 128,-1,9
 614 150 614 150 597 186 c 2,10,-1
 558 273 l 1,11,-1
 501 417 l 1,12,-1
 441 573 l 1,13,-1
 419 573 l 1,14,-1
 394 500 l 1,15,-1
 350 382 l 1,16,-1
 315 293 l 1,17,-1
 263 171 l 2,18,19
 246 128 246 128 221.5 84 c 128,-1,20
 197 40 197 40 166 -5 c 0,21,22
 121 -70 121 -70 117 -71 c 1,23,24
 105 -62 105 -62 105 58 c 2,25,-1
 103 115 l 1,26,-1
 195 232 l 1,27,-1
 196 233 l 1,28,29
 223 281 223 281 252 343 c 128,-1,30
 281 405 281 405 313 486 c 2,31,-1
 386 703 l 2,32,33
 439 867 439 867 452 867 c 0,34,35
 469 867 469 867 495 780 c 0,36,37
 514 697 514 697 536 634 c 128,-1,38
 558 571 558 571 590 509 c 0,39,40
 625 431 625 431 655.5 372.5 c 128,-1,41
 686 314 686 314 712 276 c 2,42,-1
 806 152 l 1,43,-1
 793 104 l 2,0,1
EndSplineSet
EndChar

StartChar: arabicindicdigitnine
Encoding: 1641 1641 58
Width: 757
Flags: W
LayerCount: 2
Fore
SplineSet
420 579 m 1,0,1
 412 641 412 641 400 663 c 1,2,3
 374 739 374 739 321 752 c 1,4,-1
 317 752 l 2,5,6
 294 752 294 752 257 709 c 2,7,-1
 256 708 l 1,8,9
 225 665 225 665 225 642 c 1,10,11
 231 628 231 628 251.5 616.5 c 128,-1,12
 272 605 272 605 309 586 c 1,13,-1
 311 586 l 1,14,15
 380 562 380 562 398 562 c 2,16,-1
 400 562 l 1,17,-1
 410 564 l 1,18,-1
 420 579 l 1,0,1
660 111 m 2,19,20
 660 82 660 82 636 -5 c 0,21,22
 610 -95 610 -95 608 -97 c 1,23,24
 584 -92 584 -92 522 52 c 2,25,-1
 499 115 l 1,26,-1
 477 185 l 2,27,28
 469 217 469 217 461 258 c 128,-1,29
 453 299 453 299 445 350 c 1,30,-1
 434 360 l 1,31,-1
 419 363 l 1,32,-1
 370 369 l 2,33,34
 315 369 315 369 258 378 c 0,35,36
 201 388 201 388 154 434 c 1,37,-1
 153 434 l 1,38,39
 107 478 107 478 103 539 c 0,40,41
 103 593 103 593 126.5 657 c 128,-1,42
 150 721 150 721 198 794 c 0,43,44
 294 939 294 939 360 939 c 0,45,46
 427 939 427 939 476 842 c 0,47,48
 529 738 529 738 529 544 c 0,49,50
 529 450 529 450 544.5 368.5 c 128,-1,51
 560 287 560 287 595 217 c 0,52,53
 603 200 603 200 615 180.5 c 128,-1,54
 627 161 627 161 642 138 c 1,55,-1
 643 137 l 1,56,-1
 659 119 l 1,57,-1
 660 111 l 2,19,20
EndSplineSet
EndChar

StartChar: arabicpercentsign
Encoding: 1642 1642 59
Width: 567
Flags: W
LayerCount: 2
Fore
SplineSet
197 869 m 1,0,-1
 31 869 l 1,1,-1
 31 1049 l 1,2,-1
 197 1049 l 1,3,-1
 197 869 l 1,0,-1
520 1049 m 1,4,-1
 109 8 l 1,5,-1
 16 8 l 1,6,-1
 427 1049 l 1,7,-1
 520 1049 l 1,4,-1
508 -7 m 1,8,-1
 341 -7 l 1,9,-1
 341 172 l 1,10,-1
 508 172 l 1,11,-1
 508 -7 l 1,8,-1
EndSplineSet
EndChar

StartChar: arabicfivepointedstar
Encoding: 1645 1645 60
Width: 815
Flags: W
LayerCount: 2
Fore
SplineSet
765 1190 m 1,0,-1
 547 1029 l 1,1,-1
 629 770 l 1,2,-1
 408 928 l 1,3,-1
 187 770 l 1,4,-1
 269 1029 l 1,5,-1
 51 1190 l 1,6,-1
 322 1190 l 1,7,-1
 408 1450 l 1,8,-1
 494 1190 l 1,9,-1
 765 1190 l 1,0,-1
EndSplineSet
EndChar

StartChar: shaddawithdammatanisolated
Encoding: 64606 64606 62
Width: 482
Flags: W
LayerCount: 2
Fore
SplineSet
482 1788 m 0,0,1
 482 1779 482 1779 475 1769 c 1,2,3
 451 1775 451 1775 381 1800 c 1,4,5
 248 1730 248 1730 174 1730 c 0,6,7
 132 1730 132 1730 92 1743 c 1,8,9
 156 1777 156 1777 156 1818 c 0,10,11
 156 1872 156 1872 106 1872 c 1,12,13
 113 1872 113 1872 104 1870.5 c 128,-1,14
 95 1869 95 1869 70 1865 c 1,15,16
 94 1941 94 1941 141 1941 c 0,17,18
 166 1941 166 1941 184.5 1919 c 128,-1,19
 203 1897 203 1897 203 1865 c 0,20,21
 203 1841 203 1841 186 1792 c 1,22,23
 258 1800 258 1800 319 1837 c 1,24,25
 266 1873 266 1873 266 1915 c 0,26,27
 266 1951 266 1951 309 1988 c 0,28,29
 352 2027 352 2027 393 2027 c 0,30,31
 415 2027 415 2027 438 2003 c 0,32,33
 461 1977 461 1977 461 1953 c 0,34,35
 461 1925 461 1925 436 1874 c 1,36,37
 482 1846 482 1846 482 1788 c 0,0,1
455 1677 m 0,38,39
 455 1640 455 1640 447 1609 c 128,-1,40
 439 1578 439 1578 425 1556 c 128,-1,41
 411 1534 411 1534 391.5 1521.5 c 128,-1,42
 372 1509 372 1509 350 1509 c 0,43,44
 330 1509 330 1509 282 1532 c 2,45,-1
 278 1534 l 1,46,47
 233 1450 233 1450 174 1450 c 0,48,49
 94 1450 94 1450 94 1554 c 0,50,51
 94 1583 94 1583 117 1650 c 1,52,-1
 137 1652 l 1,53,54
 141 1552 141 1552 186 1552 c 0,55,56
 233 1552 233 1552 272 1687 c 1,57,-1
 291 1689 l 1,58,59
 307 1616 307 1616 356 1616 c 0,60,61
 407 1616 407 1616 430 1726 c 1,62,-1
 450 1726 l 1,63,64
 452 1715 452 1715 453.5 1703 c 128,-1,65
 455 1691 455 1691 455 1677 c 0,38,39
395 1941 m 0,66,67
 395 1982 395 1982 364 1982 c 0,68,69
 334 1982 334 1982 334 1958 c 256,70,71
 334 1934 334 1934 381 1902 c 1,72,73
 395 1928 395 1928 395 1941 c 0,66,67
EndSplineSet
Ligature2: "'liga' Standard Ligatures in Arabic lookup 7 subtable" shadda dammatan
AlternateSubs2: "'aalt' Access All Alternates in Latin lookup 1 subtable" shaddawithdammatanisolated shaddawithdammatanisolatedlow
EndChar

StartChar: shaddawithkasratanisolated
Encoding: 64607 64607 63
Width: 420
Flags: W
LayerCount: 2
Fore
SplineSet
420 1940 m 0,0,1
 420 1772 420 1772 316 1772 c 0,2,3
 280 1772 280 1772 252 1793 c 1,4,5
 244 1758 244 1758 213 1733 c 0,6,7
 181 1707 181 1707 148 1707 c 0,8,9
 66 1707 66 1707 66 1815 c 0,10,11
 66 1840 66 1840 88 1916 c 1,12,-1
 111 1920 l 1,13,14
 111 1809 111 1809 150 1809 c 0,15,16
 214 1809 214 1809 240 1971 c 1,17,-1
 258 1977 l 1,18,19
 281 1879 281 1879 316 1879 c 0,20,21
 374 1879 374 1879 383 2026 c 1,22,-1
 406 2036 l 1,23,24
 420 1975 420 1975 420 1940 c 0,0,1
412 1773 m 1,25,26
 397 1707 397 1707 353 1687 c 2,27,-1
 70 1560 l 1,28,29
 98 1633 98 1633 156 1659 c 2,30,-1
 412 1773 l 1,25,26
412 1656 m 1,31,32
 397 1594 397 1594 346 1572 c 2,33,-1
 70 1450 l 1,34,35
 90 1520 90 1520 142 1542 c 2,36,-1
 412 1656 l 1,31,32
EndSplineSet
Ligature2: "'liga' Standard Ligatures in Arabic lookup 7 subtable" shadda kasratan
AlternateSubs2: "'aalt' Access All Alternates in Latin lookup 1 subtable" shaddawithkasratanisolated shaddawithkasratanisolatedlow
EndChar

StartChar: shaddawithfathaisolated
Encoding: 64608 64608 64
Width: 414
Flags: W
LayerCount: 2
Fore
SplineSet
408 1845 m 1,0,1
 398 1784 398 1784 359 1769 c 2,2,-1
 64 1653 l 1,3,4
 91 1722 91 1722 150 1745 c 2,5,-1
 408 1845 l 1,0,1
414 1673 m 0,6,7
 414 1638 414 1638 406 1608.5 c 128,-1,8
 398 1579 398 1579 384 1557 c 128,-1,9
 370 1535 370 1535 350.5 1523 c 128,-1,10
 331 1511 331 1511 308 1511 c 0,11,12
 290 1511 290 1511 246 1534 c 2,13,-1
 242 1536 l 1,14,15
 204 1450 204 1450 138 1450 c 0,16,17
 60 1450 60 1450 60 1548 c 1,18,19
 60 1543 60 1543 66 1609 c 1,20,-1
 95 1628 l 1,21,22
 105 1550 105 1550 148 1550 c 0,23,24
 203 1550 203 1550 236 1683 c 1,25,-1
 258 1689 l 1,26,27
 283 1616 283 1616 316 1616 c 0,28,29
 373 1616 373 1616 381 1738 c 1,30,-1
 408 1747 l 1,31,32
 414 1714 414 1714 414 1673 c 0,6,7
EndSplineSet
Ligature2: "'liga' Standard Ligatures in Arabic lookup 7 subtable" shadda fatha
AlternateSubs2: "'aalt' Access All Alternates in Latin lookup 1 subtable" shaddawithfathaisolated shaddawithfathaisolatedlow
EndChar

StartChar: shaddawithdammaisolated
Encoding: 64609 64609 65
Width: 424
Flags: W
LayerCount: 2
Fore
SplineSet
424 1763 m 1,0,1
 381 1769 381 1769 314 1792 c 1,2,3
 192 1694 192 1694 129 1694 c 0,4,5
 107 1694 107 1694 64 1714 c 1,6,7
 130 1736 130 1736 182.5 1760 c 128,-1,8
 235 1784 235 1784 273 1812 c 1,9,10
 224 1849 224 1849 224 1896 c 0,11,12
 224 1938 224 1938 262 1979 c 0,13,14
 301 2019 301 2019 344 2019 c 0,15,16
 366 2019 366 2019 392 1995 c 0,17,18
 418 1972 418 1972 418 1952 c 0,19,20
 418 1907 418 1907 382 1864 c 1,21,22
 390 1860 390 1860 399 1854.5 c 128,-1,23
 408 1849 408 1849 417 1842 c 0,24,25
 424 1835 424 1835 424 1800 c 2,26,-1
 424 1763 l 1,0,1
418 1720 m 1,27,28
 418 1505 418 1505 310 1505 c 0,29,30
 268 1505 268 1505 240 1530 c 1,31,32
 208 1450 208 1450 136 1450 c 0,33,34
 58 1450 58 1450 58 1548 c 0,35,36
 58 1592 58 1592 80 1632 c 1,37,-1
 101 1634 l 1,38,39
 107 1552 107 1552 148 1552 c 0,40,41
 194 1552 194 1552 236 1671 c 1,42,-1
 260 1677 l 1,43,44
 272 1610 272 1610 314 1610 c 0,45,46
 370 1610 370 1610 394 1714 c 1,47,-1
 418 1720 l 1,27,28
353 1927 m 0,48,49
 353 1976 353 1976 310 1976 c 0,50,51
 285 1976 285 1976 285 1946 c 0,52,53
 285 1922 285 1922 344 1884 c 1,54,55
 353 1908 353 1908 353 1927 c 0,48,49
EndSplineSet
Ligature2: "'liga' Standard Ligatures in Arabic lookup 7 subtable" shadda damma
AlternateSubs2: "'aalt' Access All Alternates in Latin lookup 1 subtable" shaddawithdammaisolated shaddawithdammaisolatedlow
EndChar

StartChar: shaddawithkasraisolated
Encoding: 64610 64610 66
Width: 420
Flags: W
LayerCount: 2
Fore
SplineSet
420 1830 m 0,0,1
 420 1662 420 1662 316 1662 c 0,2,3
 280 1662 280 1662 252 1683 c 1,4,5
 244 1648 244 1648 213 1623 c 0,6,7
 181 1597 181 1597 148 1597 c 0,8,9
 66 1597 66 1597 66 1705 c 0,10,11
 66 1730 66 1730 88 1806 c 1,12,-1
 111 1810 l 1,13,14
 111 1699 111 1699 150 1699 c 0,15,16
 214 1699 214 1699 240 1861 c 1,17,-1
 258 1867 l 1,18,19
 281 1769 281 1769 316 1769 c 0,20,21
 374 1769 374 1769 383 1916 c 1,22,-1
 406 1926 l 1,23,24
 420 1865 420 1865 420 1830 c 0,0,1
412 1663 m 1,25,26
 397 1597 397 1597 353 1577 c 2,27,-1
 70 1450 l 1,28,29
 98 1523 98 1523 156 1549 c 2,30,-1
 412 1663 l 1,25,26
EndSplineSet
Ligature2: "'liga' Standard Ligatures in Arabic lookup 7 subtable" shadda kasra
AlternateSubs2: "'aalt' Access All Alternates in Latin lookup 1 subtable" shaddawithkasraisolated shaddawithkasraisolatedlow
EndChar

StartChar: shaddawithfathamedial
Encoding: 64754 64754 67
Width: 1284
Flags: W
LayerCount: 2
Fore
SplineSet
807 1552 m 1,0,1
 807 1486 807 1486 772 1466 c 2,2,-1
 469 1294 l 1,3,4
 472 1332 472 1332 483 1353 c 0,5,6
 495 1373 495 1373 535 1395 c 2,7,-1
 807 1552 l 1,0,1
819 1263 m 0,8,9
 819 1095 819 1095 715 1095 c 0,10,11
 679 1095 679 1095 651 1116 c 1,12,13
 643 1081 643 1081 612 1056 c 0,14,15
 580 1030 580 1030 547 1030 c 0,16,17
 465 1030 465 1030 465 1138 c 0,18,19
 465 1163 465 1163 487 1239 c 1,20,-1
 510 1243 l 1,21,22
 510 1132 510 1132 549 1132 c 0,23,24
 613 1132 613 1132 639 1294 c 1,25,-1
 657 1300 l 1,26,27
 680 1202 680 1202 715 1202 c 0,28,29
 773 1202 773 1202 782 1349 c 1,30,-1
 805 1359 l 1,31,32
 819 1298 819 1298 819 1263 c 0,8,9
1354 129 m 1,33,-1
 0 129 l 1,34,-1
 0 250 l 1,35,-1
 1354 250 l 1,36,-1
 1354 129 l 1,33,-1
EndSplineSet
Ligature2: "'liga' Standard Ligatures in Arabic lookup 6 subtable" tatweel shadda fatha
EndChar

StartChar: shaddawithdammamedial
Encoding: 64755 64755 68
Width: 1284
Flags: W
LayerCount: 2
Fore
SplineSet
813 1503 m 1,0,-1
 805 1404 l 1,1,-1
 725 1456 l 1,2,3
 605 1312 605 1312 528 1312 c 0,4,5
 509 1312 509 1312 469 1324 c 1,6,7
 571 1381 571 1381 682 1480 c 1,8,9
 621 1525 621 1525 621 1570 c 0,10,11
 621 1630 621 1630 666 1695 c 0,12,13
 696 1738 696 1738 737 1738 c 0,14,15
 805 1738 805 1738 805 1650 c 0,16,17
 805 1599 805 1599 774 1533 c 1,18,19
 787 1522 787 1522 813 1503 c 1,0,-1
819 1263 m 0,20,21
 819 1095 819 1095 715 1095 c 0,22,23
 679 1095 679 1095 651 1116 c 1,24,25
 643 1081 643 1081 612 1056 c 0,26,27
 580 1030 580 1030 547 1030 c 0,28,29
 465 1030 465 1030 465 1138 c 0,30,31
 465 1163 465 1163 487 1239 c 1,32,-1
 510 1243 l 1,33,34
 510 1132 510 1132 549 1132 c 0,35,36
 613 1132 613 1132 639 1294 c 1,37,-1
 657 1300 l 1,38,39
 680 1202 680 1202 715 1202 c 0,40,41
 773 1202 773 1202 782 1349 c 1,42,-1
 805 1359 l 1,43,44
 819 1298 819 1298 819 1263 c 0,20,21
743 1591 m 0,45,46
 743 1614 743 1614 727 1633 c 128,-1,47
 711 1652 711 1652 690 1652 c 0,48,49
 672 1652 672 1652 672 1632 c 0,50,51
 672 1601 672 1601 737 1557 c 1,52,53
 743 1576 743 1576 743 1591 c 0,45,46
1354 129 m 1,54,-1
 0 129 l 1,55,-1
 0 250 l 1,56,-1
 1354 250 l 1,57,-1
 1354 129 l 1,54,-1
EndSplineSet
Ligature2: "'liga' Standard Ligatures in Arabic lookup 6 subtable" tatweel shadda damma
EndChar

StartChar: shaddawithkasramedial
Encoding: 64756 64756 69
Width: 1284
Flags: W
LayerCount: 2
Fore
SplineSet
819 1491 m 0,0,1
 819 1323 819 1323 715 1323 c 0,2,3
 679 1323 679 1323 651 1344 c 1,4,5
 643 1309 643 1309 612 1284 c 0,6,7
 580 1258 580 1258 547 1258 c 0,8,9
 465 1258 465 1258 465 1366 c 0,10,11
 465 1391 465 1391 487 1467 c 1,12,-1
 510 1471 l 1,13,14
 510 1360 510 1360 549 1360 c 0,15,16
 613 1360 613 1360 639 1522 c 1,17,-1
 657 1528 l 1,18,19
 680 1430 680 1430 715 1430 c 0,20,21
 773 1430 773 1430 782 1577 c 1,22,-1
 805 1587 l 1,23,24
 819 1526 819 1526 819 1491 c 0,0,1
807 1288 m 1,25,26
 807 1222 807 1222 772 1202 c 2,27,-1
 469 1030 l 1,28,29
 472 1068 472 1068 483 1089 c 0,30,31
 495 1109 495 1109 535 1131 c 2,32,-1
 807 1288 l 1,25,26
1354 129 m 1,33,-1
 0 129 l 1,34,-1
 0 250 l 1,35,-1
 1354 250 l 1,36,-1
 1354 129 l 1,33,-1
EndSplineSet
Ligature2: "'liga' Standard Ligatures in Arabic lookup 6 subtable" tatweel shadda kasra
EndChar

StartChar: ornateleftparenthesis
Encoding: 64830 64830 70
Width: 1135
Flags: W
LayerCount: 2
Fore
SplineSet
1075 -612 m 0,0,1
 1075 -627 1075 -627 1051 -627 c 0,2,3
 975 -627 975 -627 822 -476 c 0,4,5
 621 -280 621 -280 508 23 c 1,6,7
 299 26 299 26 299 78 c 1,8,9
 436 222 436 222 436 301 c 1,10,11
 374 301 374 301 302.5 227.5 c 128,-1,12
 231 154 231 154 221 154 c 0,13,14
 183 154 183 154 166 317 c 1,15,16
 55 371 55 371 55 412 c 0,17,18
 55 458 55 458 160 520 c 1,19,20
 171 676 171 676 209 676 c 1,21,22
 362 532 362 532 436 532 c 1,23,24
 429 609 429 609 358 678 c 128,-1,25
 287 747 287 747 287 756 c 0,26,27
 287 772 287 772 348 791 c 0,28,29
 417 812 417 812 502 815 c 1,30,31
 574 1032 574 1032 697 1203 c 0,32,33
 792 1336 792 1336 901 1422 c 0,34,35
 988 1491 988 1491 1024 1491 c 0,36,37
 1044 1491 1044 1491 1044 1468 c 0,38,39
 1044 1458 1044 1458 971 1377 c 0,40,41
 881 1276 881 1276 824 1169 c 0,42,43
 735 1005 735 1005 705 805 c 1,44,45
 805 789 805 789 805 760 c 1,46,47
 664 618 664 618 664 539 c 1,48,49
 736 539 736 539 879 686 c 1,50,51
 897 686 897 686 916 633 c 128,-1,52
 935 580 935 580 938 522 c 1,53,54
 1044 467 1044 467 1044 422 c 0,55,56
 1044 385 1044 385 944 326 c 1,57,58
 936 166 936 166 889 166 c 1,59,-1
 821 231 l 2,60,61
 752 299 752 299 668 307 c 1,62,63
 668 236 668 236 741.5 164 c 128,-1,64
 815 92 815 92 815 80 c 0,65,66
 815 57 815 57 707 35 c 1,67,68
 739 -128 739 -128 837.5 -301.5 c 128,-1,69
 936 -475 936 -475 1055 -578 c 0,70,71
 1075 -595 1075 -595 1075 -612 c 0,0,1
956 1417 m 1,72,73
 678 1229 678 1229 528 768 c 1,74,75
 407 762 407 762 387 759 c 0,76,77
 362 755 362 755 362 743 c 1,78,-1
 401 705 l 2,79,80
 449 660 449 660 479 600 c 1,81,82
 524 682 524 682 553 682 c 0,83,84
 572 682 572 682 618 600 c 1,85,86
 628 624 628 624 683 673 c 0,87,88
 731 716 731 716 731 750 c 0,89,90
 731 760 731 760 701 766 c 2,91,-1
 655 774 l 1,92,93
 714 1018 714 1018 753 1109 c 0,94,95
 812 1247 812 1247 956 1417 c 1,72,73
989 428 m 0,96,97
 989 454 989 454 897 485 c 1,98,99
 886 612 886 612 872 612 c 0,100,101
 864 612 864 612 818 565 c 0,102,103
 766 512 766 512 713 492 c 1,104,105
 809 450 809 450 809 418 c 0,106,107
 809 385 809 385 717 350 c 1,108,109
 783 328 783 328 834 280 c 2,110,-1
 879 238 l 1,111,112
 897 238 897 238 897 354 c 1,113,114
 989 406 989 406 989 428 c 0,96,97
680 418 m 0,115,116
 680 471 680 471 642 509 c 128,-1,117
 604 547 604 547 551 547 c 0,118,119
 497 547 497 547 459.5 509 c 128,-1,120
 422 471 422 471 422 418 c 0,121,122
 422 366 422 366 459.5 329.5 c 128,-1,123
 497 293 497 293 551 293 c 0,124,125
 604 293 604 293 642 329.5 c 128,-1,126
 680 366 680 366 680 418 c 0,115,116
387 348 m 1,127,128
 293 390 293 390 293 422 c 0,129,130
 293 456 293 456 385 489 c 1,131,132
 358 498 358 498 304 553 c 0,133,134
 257 602 257 602 221 602 c 0,135,136
 203 602 203 602 203 485 c 1,137,138
 111 433 111 433 111 412 c 0,139,140
 111 387 111 387 203 354 c 1,141,142
 214 227 214 227 227 227 c 0,143,144
 235 227 235 227 282 274 c 0,145,146
 334 328 334 328 387 348 c 1,127,128
1001 -571 m 1,147,148
 888 -469 888 -469 800 -315 c 0,149,150
 694 -130 694 -130 664 68 c 1,151,152
 743 75 743 75 743 90 c 1,153,-1
 700 131 l 2,154,155
 649 178 649 178 618 240 c 1,156,157
 581 158 581 158 551 158 c 0,158,159
 511 158 511 158 483 240 c 1,160,161
 455 173 455 173 410 127 c 2,162,-1
 373 86 l 1,163,164
 373 78 373 78 465 68 c 0,165,166
 490 68 490 68 535 72 c 1,167,168
 672 -359 672 -359 1001 -571 c 1,147,148
EndSplineSet
EndChar

StartChar: ornaterightparenthesis
Encoding: 64831 64831 71
Width: 1135
Flags: W
LayerCount: 2
Fore
SplineSet
1079 453 m 0,0,1
 1079 405 1079 405 975 344 c 1,2,3
 964 188 964 188 926 188 c 1,4,5
 773 332 773 332 698 332 c 1,6,7
 706 255 706 255 777 186.5 c 128,-1,8
 848 118 848 118 848 109 c 0,9,10
 848 93 848 93 787 73 c 0,11,12
 718 52 718 52 633 49 c 1,13,14
 561 -168 561 -168 438 -339 c 0,15,16
 343 -472 343 -472 234 -558 c 0,17,18
 147 -627 147 -627 111 -627 c 0,19,20
 90 -627 90 -627 90 -606 c 0,21,22
 90 -596 90 -596 163 -514 c 0,23,24
 253 -412 253 -412 311 -306 c 0,25,26
 399 -142 399 -142 430 59 c 1,27,28
 330 76 330 76 330 104 c 1,29,30
 471 247 471 247 471 326 c 1,31,32
 398 326 398 326 256 178 c 1,33,34
 237 178 237 178 218.5 230.5 c 128,-1,35
 200 283 200 283 197 342 c 1,36,37
 90 398 90 398 90 442 c 0,38,39
 90 480 90 480 190 539 c 1,40,41
 200 698 200 698 246 698 c 1,42,-1
 314 633 l 2,43,44
 383 565 383 565 467 557 c 1,45,46
 467 629 467 629 393 701 c 128,-1,47
 319 773 319 773 319 784 c 0,48,49
 319 807 319 807 428 829 c 1,50,51
 396 993 396 993 297.5 1166 c 128,-1,52
 199 1339 199 1339 80 1442 c 0,53,54
 59 1460 59 1460 59 1475 c 0,55,56
 59 1491 59 1491 84 1491 c 0,57,58
 160 1491 160 1491 313 1341 c 0,59,60
 514 1144 514 1144 627 842 c 1,61,62
 836 839 836 839 836 786 c 1,63,64
 698 642 698 642 698 563 c 1,65,66
 760 563 760 563 832 637 c 128,-1,67
 904 711 904 711 913 711 c 0,68,69
 951 711 951 711 969 547 c 1,70,71
 1079 493 1079 493 1079 453 c 0,0,1
762 778 m 1,72,73
 762 787 762 787 670 797 c 0,74,75
 645 797 645 797 600 793 c 1,76,77
 460 1223 460 1223 133 1436 c 1,78,79
 247 1331 247 1331 335 1178 c 0,80,81
 441 993 441 993 471 797 c 1,82,83
 391 790 391 790 391 774 c 1,84,-1
 434 733 l 2,85,86
 486 687 486 687 516 625 c 1,87,88
 555 707 555 707 584 707 c 0,89,90
 624 707 624 707 651 625 c 1,91,92
 679 691 679 691 724 737 c 2,93,-1
 762 778 l 1,72,73
1024 453 m 0,94,95
 1024 476 1024 476 932 510 c 1,96,97
 921 637 921 637 907 637 c 0,98,99
 899 637 899 637 853 590 c 0,100,101
 801 536 801 536 748 516 c 1,102,103
 842 474 842 474 842 442 c 0,104,105
 842 408 842 408 750 375 c 1,106,107
 777 366 777 366 830 311 c 0,108,109
 877 262 877 262 913 262 c 0,110,111
 932 262 932 262 932 379 c 1,112,113
 1024 433 1024 433 1024 453 c 0,94,95
713 446 m 0,114,115
 713 498 713 498 675 534.5 c 128,-1,116
 637 571 637 571 584 571 c 256,117,118
 531 571 531 571 493 534.5 c 128,-1,119
 455 498 455 498 455 446 c 0,120,121
 455 393 455 393 493 355 c 128,-1,122
 531 317 531 317 584 317 c 256,123,124
 637 317 637 317 675 355 c 128,-1,125
 713 393 713 393 713 446 c 0,114,115
422 373 m 1,126,127
 326 413 326 413 326 446 c 0,128,129
 326 481 326 481 418 514 c 1,130,131
 351 536 351 536 300 584 c 2,132,-1
 256 627 l 1,133,134
 238 627 238 627 238 510 c 1,135,136
 145 458 145 458 145 436 c 0,137,138
 145 410 145 410 238 379 c 1,139,140
 249 252 249 252 262 252 c 0,141,142
 270 252 270 252 317 299 c 0,143,144
 369 353 369 353 422 373 c 1,126,127
772 121 m 1,145,-1
 733 160 l 2,146,147
 686 204 686 204 655 264 c 1,148,149
 612 182 612 182 582 182 c 0,150,151
 562 182 562 182 516 264 c 1,152,153
 494 209 494 209 446 160 c 2,154,-1
 403 115 l 1,155,156
 403 105 403 105 434 98 c 0,157,158
 456 94 456 94 479 90 c 1,159,160
 422 -153 422 -153 382 -246 c 0,161,162
 323 -382 323 -382 178 -553 c 1,163,164
 458 -364 458 -364 606 96 c 1,165,166
 727 102 727 102 749.5 105.5 c 128,-1,167
 772 109 772 109 772 121 c 1,145,-1
EndSplineSet
EndChar

StartChar: allahisolated
Encoding: 65010 65010 72
Width: 2452
Flags: W
LayerCount: 2
Fore
SplineSet
2437 206 m 1,0,-1
 2437 118 l 1,1,-1
 2320 1 l 1,2,-1
 2232 1 l 1,3,-1
 1863 1 l 1,4,-1
 1706 1 l 1,5,-1
 1618 1 l 1,6,-1
 1005 1 l 1,7,-1
 914 1 l 1,8,-1
 799 112 l 1,9,-1
 799 202 l 1,10,-1
 799 1273 l 1,11,-1
 594 1273 l 1,12,-1
 594 397 l 1,13,-1
 717 397 l 1,14,-1
 717 111 l 1,15,-1
 389 111 l 1,16,-1
 299 111 l 1,17,-1
 184 226 l 1,18,-1
 184 315 l 1,19,-1
 184 1358 l 1,20,-1
 184 1448 l 1,21,-1
 299 1559 l 1,22,-1
 390 1559 l 1,23,-1
 1004 1559 l 1,24,-1
 1096 1559 l 1,25,-1
 1208 1444 l 1,26,-1
 1208 1351 l 1,27,-1
 1208 287 l 1,28,-1
 1413 287 l 1,29,-1
 1413 1559 l 1,30,-1
 1823 1559 l 1,31,-1
 1823 287 l 1,32,-1
 2028 287 l 1,33,-1
 2028 1559 l 1,34,-1
 2437 1559 l 1,35,-1
 2437 206 l 1,0,-1
EndSplineSet
Ligature2: "'liga' Standard Ligatures in Arabic lookup 6 subtable" laminitial lammedial hehfinal
EndChar

StartChar: fathatanisolated
Encoding: 65136 65136 73
Width: 408
Flags: W
LayerCount: 2
Fore
SplineSet
408 2054 m 1,0,1
 408 1988 408 1988 373 1968 c 2,2,-1
 70 1796 l 1,3,4
 73 1834 73 1834 84 1855 c 0,5,6
 96 1875 96 1875 136 1897 c 2,7,-1
 408 2054 l 1,0,1
408 1908 m 1,8,9
 408 1842 408 1842 373 1822 c 2,10,-1
 70 1650 l 1,11,12
 73 1688 73 1688 84 1709 c 0,13,14
 96 1729 96 1729 136 1751 c 2,15,-1
 408 1908 l 1,8,9
EndSplineSet
EndChar

StartChar: tatweelwithfathatanabove
Encoding: 65137 65137 74
Width: 1284
Flags: W
LayerCount: 2
Fore
SplineSet
811 1434 m 1,0,1
 811 1368 811 1368 776 1348 c 2,2,-1
 473 1176 l 1,3,4
 476 1214 476 1214 487 1235 c 0,5,6
 499 1255 499 1255 539 1277 c 2,7,-1
 811 1434 l 1,0,1
811 1288 m 1,8,9
 811 1222 811 1222 776 1202 c 2,10,-1
 473 1030 l 1,11,12
 476 1068 476 1068 487 1089 c 0,13,14
 499 1109 499 1109 539 1131 c 2,15,-1
 811 1288 l 1,8,9
1354 129 m 1,16,-1
 0 129 l 1,17,-1
 0 250 l 1,18,-1
 1354 250 l 1,19,-1
 1354 129 l 1,16,-1
EndSplineSet
Ligature2: "'liga' Standard Ligatures in Arabic lookup 6 subtable" tatweel fathatan
EndChar

StartChar: dammatanisolated
Encoding: 65138 65138 75
Width: 463
Flags: W
LayerCount: 2
Fore
SplineSet
463 1582 m 0,0,1
 463 1565 463 1565 462.5 1550 c 128,-1,2
 462 1535 462 1535 461 1523 c 1,3,4
 441 1534 441 1534 418 1548.5 c 128,-1,5
 395 1563 395 1563 369 1582 c 1,6,7
 243 1453 243 1453 129 1437 c 1,8,9
 172 1526 172 1526 172 1566 c 0,10,11
 172 1621 172 1621 123 1621 c 0,12,13
 81 1621 81 1621 74 1545 c 1,14,15
 64 1574 64 1574 64 1597 c 256,16,17
 64 1620 64 1620 70.5 1640 c 128,-1,18
 77 1660 77 1660 88.5 1675 c 128,-1,19
 100 1690 100 1690 115 1698.5 c 128,-1,20
 130 1707 130 1707 148 1707 c 0,21,22
 215 1707 215 1707 215 1607 c 2,23,-1
 209 1515 l 1,24,25
 274 1540 274 1540 333 1605 c 1,26,27
 267 1648 267 1648 267 1699 c 0,28,29
 267 1752 267 1752 307 1798 c 0,30,31
 347 1846 347 1846 389 1846 c 0,32,33
 411 1846 411 1846 434 1819 c 0,34,35
 457 1793 457 1793 457 1766 c 0,36,37
 457 1736 457 1736 446 1708 c 128,-1,38
 424 1652 l 1,39,40
 463 1622 463 1622 463 1582 c 0,0,1
387 1726 m 0,41,42
 387 1779 387 1779 346 1779 c 0,43,44
 320 1779 320 1779 320 1756 c 0,45,46
 320 1730 320 1730 383 1687 c 1,47,48
 387 1696 387 1696 387 1726 c 0,41,42
EndSplineSet
EndChar

StartChar: kasratanisolated
Encoding: 65140 65140 76
Width: 408
Flags: W
LayerCount: 2
Fore
SplineSet
408 -620 m 1,0,1
 408 -686 408 -686 373 -706 c 2,2,-1
 70 -878 l 1,3,4
 73 -840 73 -840 84 -818 c 1,5,6
 97 -800 97 -800 136 -777 c 2,7,-1
 408 -620 l 1,0,1
408 -767 m 1,8,9
 408 -833 408 -833 373 -853 c 2,10,-1
 70 -1025 l 1,11,12
 73 -987 73 -987 84 -965 c 1,13,14
 97 -947 97 -947 136 -924 c 2,15,-1
 408 -767 l 1,8,9
EndSplineSet
EndChar

StartChar: fathaisolated
Encoding: 65142 65142 77
Width: 408
Flags: W
LayerCount: 2
Fore
SplineSet
408 1708 m 1,0,1
 408 1642 408 1642 373 1622 c 2,2,-1
 70 1450 l 1,3,4
 73 1488 73 1488 84 1509 c 0,5,6
 96 1529 96 1529 136 1551 c 2,7,-1
 408 1708 l 1,0,1
EndSplineSet
EndChar

StartChar: fathamedial
Encoding: 65143 65143 78
Width: 1284
Flags: W
LayerCount: 2
Fore
SplineSet
811 1288 m 1,0,1
 811 1222 811 1222 776 1202 c 2,2,-1
 473 1030 l 1,3,4
 476 1068 476 1068 487 1089 c 0,5,6
 499 1109 499 1109 539 1131 c 2,7,-1
 811 1288 l 1,0,1
1354 129 m 1,8,-1
 0 129 l 1,9,-1
 0 250 l 1,10,-1
 1354 250 l 1,11,-1
 1354 129 l 1,8,-1
EndSplineSet
Ligature2: "'liga' Standard Ligatures in Arabic lookup 6 subtable" tatweel fatha
EndChar

StartChar: dammaisolated
Encoding: 65144 65144 79
Width: 414
Flags: W
LayerCount: 2
Fore
SplineSet
414 1641 m 1,0,-1
 406 1542 l 1,1,-1
 326 1594 l 1,2,3
 206 1450 206 1450 129 1450 c 0,4,5
 110 1450 110 1450 70 1462 c 1,6,7
 172 1519 172 1519 283 1618 c 1,8,9
 222 1663 222 1663 222 1708 c 0,10,11
 222 1768 222 1768 267 1833 c 0,12,13
 297 1876 297 1876 338 1876 c 0,14,15
 406 1876 406 1876 406 1788 c 0,16,17
 406 1737 406 1737 375 1671 c 1,18,19
 388 1660 388 1660 414 1641 c 1,0,-1
344 1729 m 0,20,21
 344 1752 344 1752 328 1771 c 128,-1,22
 312 1790 312 1790 291 1790 c 0,23,24
 273 1790 273 1790 273 1770 c 0,25,26
 273 1739 273 1739 338 1695 c 1,27,28
 344 1714 344 1714 344 1729 c 0,20,21
EndSplineSet
EndChar

StartChar: dammamedial
Encoding: 65145 65145 80
Width: 1284
Flags: W
LayerCount: 2
Fore
SplineSet
814 1221 m 1,0,-1
 806 1122 l 1,1,-1
 726 1174 l 1,2,3
 606 1030 606 1030 529 1030 c 0,4,5
 510 1030 510 1030 470 1042 c 1,6,7
 572 1099 572 1099 683 1198 c 1,8,9
 622 1243 622 1243 622 1288 c 0,10,11
 622 1348 622 1348 667 1413 c 0,12,13
 697 1456 697 1456 738 1456 c 0,14,15
 806 1456 806 1456 806 1368 c 0,16,17
 806 1317 806 1317 775 1251 c 1,18,19
 788 1240 788 1240 814 1221 c 1,0,-1
744 1309 m 0,20,21
 744 1332 744 1332 728 1351 c 128,-1,22
 712 1370 712 1370 691 1370 c 0,23,24
 673 1370 673 1370 673 1350 c 0,25,26
 673 1319 673 1319 738 1275 c 1,27,28
 744 1294 744 1294 744 1309 c 0,20,21
1354 129 m 1,29,-1
 0 129 l 1,30,-1
 0 250 l 1,31,-1
 1354 250 l 1,32,-1
 1354 129 l 1,29,-1
EndSplineSet
Ligature2: "'liga' Standard Ligatures in Arabic lookup 6 subtable" tatweel damma
EndChar

StartChar: kasraisolated
Encoding: 65146 65146 81
Width: 408
Flags: W
LayerCount: 2
Fore
SplineSet
408 -620 m 1,0,1
 408 -686 408 -686 373 -706 c 2,2,-1
 70 -878 l 1,3,4
 73 -840 73 -840 84 -818 c 1,5,6
 97 -800 97 -800 136 -777 c 2,7,-1
 408 -620 l 1,0,1
EndSplineSet
EndChar

StartChar: kasramedial
Encoding: 65147 65147 82
Width: 1284
Flags: W
LayerCount: 2
Fore
SplineSet
811 -71 m 1,0,1
 811 -137 811 -137 776 -157 c 2,2,-1
 473 -329 l 1,3,4
 476 -291 476 -291 487 -269 c 1,5,6
 500 -251 500 -251 539 -228 c 2,7,-1
 811 -71 l 1,0,1
1354 129 m 1,8,-1
 0 129 l 1,9,-1
 0 250 l 1,10,-1
 1354 250 l 1,11,-1
 1354 129 l 1,8,-1
EndSplineSet
Ligature2: "'liga' Standard Ligatures in Arabic lookup 6 subtable" tatweel kasra
EndChar

StartChar: shaddaisolated
Encoding: 65148 65148 83
Width: 420
Flags: W
LayerCount: 2
Fore
SplineSet
420 1683 m 0,0,1
 420 1515 420 1515 316 1515 c 0,2,3
 280 1515 280 1515 252 1536 c 1,4,5
 244 1501 244 1501 213 1476 c 0,6,7
 181 1450 181 1450 148 1450 c 0,8,9
 66 1450 66 1450 66 1558 c 0,10,11
 66 1583 66 1583 88 1659 c 1,12,-1
 111 1663 l 1,13,14
 111 1552 111 1552 150 1552 c 0,15,16
 214 1552 214 1552 240 1714 c 1,17,-1
 258 1720 l 1,18,19
 281 1622 281 1622 316 1622 c 0,20,21
 374 1622 374 1622 383 1769 c 1,22,-1
 406 1779 l 1,23,24
 420 1718 420 1718 420 1683 c 0,0,1
EndSplineSet
EndChar

StartChar: shaddamedial
Encoding: 65149 65149 84
Width: 1284
Flags: W
LayerCount: 2
Fore
SplineSet
819 1263 m 0,0,1
 819 1095 819 1095 715 1095 c 0,2,3
 679 1095 679 1095 651 1116 c 1,4,5
 643 1081 643 1081 612 1056 c 0,6,7
 580 1030 580 1030 547 1030 c 0,8,9
 465 1030 465 1030 465 1138 c 0,10,11
 465 1163 465 1163 487 1239 c 1,12,-1
 510 1243 l 1,13,14
 510 1132 510 1132 549 1132 c 0,15,16
 613 1132 613 1132 639 1294 c 1,17,-1
 657 1300 l 1,18,19
 680 1202 680 1202 715 1202 c 0,20,21
 773 1202 773 1202 782 1349 c 1,22,-1
 805 1359 l 1,23,24
 819 1298 819 1298 819 1263 c 0,0,1
1354 129 m 1,25,-1
 0 129 l 1,26,-1
 0 250 l 1,27,-1
 1354 250 l 1,28,-1
 1354 129 l 1,25,-1
EndSplineSet
Ligature2: "'liga' Standard Ligatures in Arabic lookup 6 subtable" tatweel shadda
EndChar

StartChar: sukunisolated
Encoding: 65150 65150 85
Width: 332
Flags: W
LayerCount: 2
Fore
SplineSet
332 1614 m 0,0,1
 332 1549 332 1549 286 1500 c 0,2,3
 239 1450 239 1450 181 1450 c 0,4,5
 74 1450 74 1450 74 1571 c 0,6,7
 74 1655 74 1655 112 1708 c 0,8,9
 149 1762 149 1762 211 1762 c 0,10,11
 258 1762 258 1762 295 1716 c 0,12,13
 332 1673 332 1673 332 1614 c 0,0,1
277 1590 m 0,14,15
 277 1616 277 1616 234 1647 c 0,16,17
 193 1676 193 1676 166 1676 c 0,18,19
 107 1676 107 1676 107 1608 c 0,20,21
 107 1549 107 1549 199 1549 c 0,22,23
 277 1549 277 1549 277 1590 c 0,14,15
EndSplineSet
EndChar

StartChar: sukunmedial
Encoding: 65151 65151 86
Width: 1284
Flags: W
LayerCount: 2
Fore
SplineSet
771 1194 m 0,0,1
 771 1129 771 1129 725 1080 c 0,2,3
 678 1030 678 1030 620 1030 c 0,4,5
 513 1030 513 1030 513 1151 c 0,6,7
 513 1235 513 1235 551 1288 c 0,8,9
 588 1342 588 1342 650 1342 c 0,10,11
 697 1342 697 1342 734 1296 c 0,12,13
 771 1253 771 1253 771 1194 c 0,0,1
716 1170 m 0,14,15
 716 1196 716 1196 673 1227 c 0,16,17
 632 1256 632 1256 605 1256 c 0,18,19
 546 1256 546 1256 546 1188 c 0,20,21
 546 1129 546 1129 638 1129 c 0,22,23
 716 1129 716 1129 716 1170 c 0,14,15
1354 129 m 1,24,-1
 0 129 l 1,25,-1
 0 250 l 1,26,-1
 1354 250 l 1,27,-1
 1354 129 l 1,24,-1
EndSplineSet
Ligature2: "'liga' Standard Ligatures in Arabic lookup 6 subtable" tatweel sukun
EndChar

StartChar: hamzaisolated
Encoding: 65152 65152 87
Width: 612
Flags: W
AnchorPoint: "ArabicBelow" 306 -251 basechar 0
AnchorPoint: "ArabicAbove" 306 697 basechar 0
LayerCount: 2
Fore
SplineSet
594 -1 m 1,0,-1
 -1 -1 l 1,1,-1
 -1 165 l 1,2,-1
 93 165 l 1,3,-1
 93 328 l 1,4,-1
 211 447 l 1,5,-1
 523 447 l 1,6,-1
 523 282 l 1,7,-1
 330 282 l 1,8,-1
 330 165 l 1,9,-1
 594 165 l 1,10,-1
 594 -1 l 1,0,-1
EndSplineSet
EndChar

StartChar: alefwithmaddaaboveisolated
Encoding: 65153 65153 88
Width: 613
Flags: W
AnchorPoint: "ArabicBelow" 306 -249 basechar 0
AnchorPoint: "ArabicAbove" 306 2051 basechar 0
LayerCount: 2
Fore
SplineSet
594 1 m 1,0,-1
 389 1 l 1,1,-1
 184 205 l 1,2,-1
 184 1555 l 1,3,-1
 594 1555 l 1,4,-1
 594 1 l 1,0,-1
770 1629 m 1,5,-1
 448 1629 l 1,6,-1
 448 1694 l 1,7,-1
 341 1694 l 1,8,-1
 341 1629 l 1,9,-1
 126 1629 l 1,10,-1
 126 1694 l 1,11,-1
 126 1738 l 1,12,-1
 189 1801 l 1,13,-1
 234 1801 l 1,14,-1
 555 1801 l 1,15,-1
 555 1736 l 1,16,-1
 662 1736 l 1,17,-1
 662 1801 l 1,18,-1
 770 1801 l 1,19,-1
 770 1629 l 1,5,-1
EndSplineSet
EndChar

StartChar: alefwithmaddaabovefinal
Encoding: 65154 65154 89
Width: 607
Flags: W
AnchorPoint: "ArabicBelow" 303 -249 basechar 0
AnchorPoint: "ArabicAbove" 303 2051 basechar 0
LayerCount: 2
Fore
SplineSet
594 1 m 1,0,-1
 389 1 l 1,1,-1
 184 205 l 1,2,-1
 184 1555 l 1,3,-1
 594 1555 l 1,4,-1
 594 1 l 1,0,-1
626 1 m 1,5,-1
 594 1 l 1,6,-1
 594 287 l 1,7,-1
 626 287 l 1,8,-1
 626 1 l 1,5,-1
770 1629 m 1,9,-1
 448 1629 l 1,10,-1
 448 1694 l 1,11,-1
 341 1694 l 1,12,-1
 341 1629 l 1,13,-1
 126 1629 l 1,14,-1
 126 1694 l 1,15,-1
 126 1738 l 1,16,-1
 189 1801 l 1,17,-1
 234 1801 l 1,18,-1
 555 1801 l 1,19,-1
 555 1736 l 1,20,-1
 662 1736 l 1,21,-1
 662 1801 l 1,22,-1
 770 1801 l 1,23,-1
 770 1629 l 1,9,-1
EndSplineSet
EndChar

StartChar: alefwithhamzaaboveisolated
Encoding: 65155 65155 90
Width: 633
Flags: W
AnchorPoint: "ArabicBelow" 316 -249 basechar 0
AnchorPoint: "ArabicAbove" 316 1944 basechar 0
LayerCount: 2
Fore
SplineSet
594 1 m 1,0,-1
 389 1 l 1,1,-1
 184 205 l 1,2,-1
 184 1335 l 1,3,-1
 594 1335 l 1,4,-1
 594 1 l 1,0,-1
596 1384 m 1,5,-1
 184 1384 l 1,6,-1
 184 1499 l 1,7,-1
 249 1499 l 1,8,-1
 249 1612 l 1,9,-1
 331 1694 l 1,10,-1
 547 1694 l 1,11,-1
 547 1580 l 1,12,-1
 413 1580 l 1,13,-1
 413 1499 l 1,14,-1
 596 1499 l 1,15,-1
 596 1384 l 1,5,-1
EndSplineSet
EndChar

StartChar: alefwithhamzaabovefinal
Encoding: 65156 65156 91
Width: 608
Flags: W
AnchorPoint: "ArabicBelow" 304 -249 basechar 0
AnchorPoint: "ArabicAbove" 304 1944 basechar 0
LayerCount: 2
Fore
SplineSet
594 1 m 1,0,-1
 389 1 l 1,1,-1
 184 205 l 1,2,-1
 184 1335 l 1,3,-1
 594 1335 l 1,4,-1
 594 1 l 1,0,-1
626 1 m 1,5,-1
 594 1 l 1,6,-1
 594 287 l 1,7,-1
 626 287 l 1,8,-1
 626 1 l 1,5,-1
596 1384 m 1,9,-1
 184 1384 l 1,10,-1
 184 1499 l 1,11,-1
 249 1499 l 1,12,-1
 249 1612 l 1,13,-1
 331 1694 l 1,14,-1
 547 1694 l 1,15,-1
 547 1580 l 1,16,-1
 413 1580 l 1,17,-1
 413 1499 l 1,18,-1
 596 1499 l 1,19,-1
 596 1384 l 1,9,-1
EndSplineSet
EndChar

StartChar: wawwithhamzaaboveisolated
Encoding: 65157 65157 92
Width: 1240
Flags: W
AnchorPoint: "ArabicBelow" 620 -742 basechar 0
AnchorPoint: "ArabicAbove" 620 1602 basechar 0
LayerCount: 2
Fore
SplineSet
1207 -492 m 1,0,-1
 184 -492 l 1,1,-1
 184 -205 l 1,2,-1
 799 -205 l 1,3,-1
 799 1 l 1,4,-1
 184 1 l 1,5,-1
 184 574 l 1,6,-1
 389 778 l 1,7,-1
 1004 778 l 1,8,-1
 1208 574 l 1,9,-1
 1207 -492 l 1,0,-1
799 287 m 1,10,-1
 799 492 l 1,11,-1
 594 492 l 1,12,-1
 594 287 l 1,13,-1
 799 287 l 1,10,-1
944 992 m 1,14,-1
 466 992 l 1,15,-1
 466 1126 l 1,16,-1
 541 1126 l 1,17,-1
 541 1257 l 1,18,-1
 637 1352 l 1,19,-1
 887 1352 l 1,20,-1
 887 1220 l 1,21,-1
 732 1220 l 1,22,-1
 732 1126 l 1,23,-1
 944 1126 l 1,24,-1
 944 992 l 1,14,-1
EndSplineSet
EndChar

StartChar: wawwithhamzaabovefinal
Encoding: 65158 65158 93
Width: 1222
Flags: W
AnchorPoint: "ArabicBelow" 611 -742 basechar 0
AnchorPoint: "ArabicAbove" 611 1602 basechar 0
LayerCount: 2
Fore
SplineSet
1240 1 m 1,0,-1
 1208 1 l 1,1,-1
 1208 287 l 1,2,-1
 1240 287 l 1,3,-1
 1240 1 l 1,0,-1
1207 -492 m 1,4,-1
 184 -492 l 1,5,-1
 184 -205 l 1,6,-1
 799 -205 l 1,7,-1
 799 1 l 1,8,-1
 184 1 l 1,9,-1
 184 574 l 1,10,-1
 389 778 l 1,11,-1
 1004 778 l 1,12,-1
 1208 574 l 1,13,-1
 1207 -492 l 1,4,-1
799 287 m 1,14,-1
 799 492 l 1,15,-1
 594 492 l 1,16,-1
 594 287 l 1,17,-1
 799 287 l 1,14,-1
944 992 m 1,18,-1
 466 992 l 1,19,-1
 466 1126 l 1,20,-1
 541 1126 l 1,21,-1
 541 1257 l 1,22,-1
 637 1352 l 1,23,-1
 887 1352 l 1,24,-1
 887 1220 l 1,25,-1
 732 1220 l 1,26,-1
 732 1126 l 1,27,-1
 944 1126 l 1,28,-1
 944 992 l 1,18,-1
EndSplineSet
EndChar

StartChar: alefwithhamzabelowisolated
Encoding: 65159 65159 94
Width: 635
Flags: W
AnchorPoint: "ArabicBelow" 317 -641 basechar 0
AnchorPoint: "ArabicAbove" 317 1815 basechar 0
LayerCount: 2
Fore
SplineSet
594 1 m 1,0,-1
 389 1 l 1,1,-1
 184 205 l 1,2,-1
 184 1565 l 1,3,-1
 594 1565 l 1,4,-1
 594 1 l 1,0,-1
593 -391 m 1,5,-1
 181 -391 l 1,6,-1
 181 -276 l 1,7,-1
 246 -276 l 1,8,-1
 246 -163 l 1,9,-1
 328 -81 l 1,10,-1
 544 -81 l 1,11,-1
 544 -195 l 1,12,-1
 410 -195 l 1,13,-1
 410 -276 l 1,14,-1
 593 -276 l 1,15,-1
 593 -391 l 1,5,-1
EndSplineSet
EndChar

StartChar: alefwithhamzabelowfinal
Encoding: 65160 65160 95
Width: 607
Flags: W
AnchorPoint: "ArabicBelow" 303 -641 basechar 0
AnchorPoint: "ArabicAbove" 303 1805 basechar 0
LayerCount: 2
Fore
SplineSet
594 1 m 1,0,-1
 389 1 l 1,1,-1
 184 205 l 1,2,-1
 184 1555 l 1,3,-1
 594 1555 l 1,4,-1
 594 1 l 1,0,-1
626 1 m 1,5,-1
 594 1 l 1,6,-1
 594 287 l 1,7,-1
 626 287 l 1,8,-1
 626 1 l 1,5,-1
593 -391 m 1,9,-1
 181 -391 l 1,10,-1
 181 -276 l 1,11,-1
 246 -276 l 1,12,-1
 246 -163 l 1,13,-1
 328 -81 l 1,14,-1
 544 -81 l 1,15,-1
 544 -195 l 1,16,-1
 410 -195 l 1,17,-1
 410 -276 l 1,18,-1
 593 -276 l 1,19,-1
 593 -391 l 1,9,-1
EndSplineSet
EndChar

StartChar: yehwithhamzaaboveisolated
Encoding: 65161 65161 96
Width: 1653
Flags: W
AnchorPoint: "ArabicBelow" 826 -742 basechar 0
AnchorPoint: "ArabicAbove" 826 1239 basechar 0
LayerCount: 2
Fore
SplineSet
1618 -287 m 1,0,-1
 1413 -492 l 1,1,-1
 389 -492 l 1,2,-1
 184 -287 l 1,3,-1
 184 492 l 1,4,-1
 594 492 l 1,5,-1
 594 -205 l 1,6,-1
 1208 -205 l 1,7,-1
 1208 1 l 1,8,-1
 799 1 l 1,9,-1
 799 573 l 1,10,-1
 1004 778 l 1,11,-1
 1618 778 l 1,12,-1
 1618 492 l 1,13,-1
 1208 492 l 1,14,-1
 1208 287 l 1,15,-1
 1618 287 l 1,16,-1
 1618 -287 l 1,0,-1
593 679 m 1,17,-1
 181 679 l 1,18,-1
 181 794 l 1,19,-1
 246 794 l 1,20,-1
 246 907 l 1,21,-1
 328 989 l 1,22,-1
 544 989 l 1,23,-1
 544 875 l 1,24,-1
 410 875 l 1,25,-1
 410 794 l 1,26,-1
 593 794 l 1,27,-1
 593 679 l 1,17,-1
EndSplineSet
EndChar

StartChar: yehwithhamzaabovefinal
Encoding: 65162 65162 97
Width: 1632
Flags: W
AnchorPoint: "ArabicBelow" 816 -742 basechar 0
AnchorPoint: "ArabicAbove" 816 1239 basechar 0
LayerCount: 2
Fore
SplineSet
1650 1 m 1,0,-1
 1618 1 l 1,1,-1
 1618 287 l 1,2,-1
 1650 287 l 1,3,-1
 1650 1 l 1,0,-1
1618 -287 m 1,4,-1
 1413 -492 l 1,5,-1
 389 -492 l 1,6,-1
 184 -287 l 1,7,-1
 184 492 l 1,8,-1
 594 492 l 1,9,-1
 594 -205 l 1,10,-1
 1208 -205 l 1,11,-1
 1208 1 l 1,12,-1
 799 1 l 1,13,-1
 799 287 l 1,14,-1
 1618 287 l 1,15,-1
 1618 -287 l 1,4,-1
593 679 m 1,16,-1
 181 679 l 1,17,-1
 181 794 l 1,18,-1
 246 794 l 1,19,-1
 246 907 l 1,20,-1
 328 989 l 1,21,-1
 544 989 l 1,22,-1
 544 875 l 1,23,-1
 410 875 l 1,24,-1
 410 794 l 1,25,-1
 593 794 l 1,26,-1
 593 679 l 1,16,-1
EndSplineSet
EndChar

StartChar: yehwithhamzaaboveinitial
Encoding: 65163 65163 98
Width: 632
Flags: W
AnchorPoint: "ArabicBelow" 316 -249 basechar 0
AnchorPoint: "ArabicAbove" 316 1469 basechar 0
LayerCount: 2
Fore
SplineSet
615 205 m 1,0,-1
 411 1 l 1,1,-1
 -32 1 l 1,2,-1
 -32 287 l 1,3,-1
 206 287 l 1,4,-1
 206 778 l 1,5,-1
 615 778 l 1,6,-1
 615 205 l 1,0,-1
613 909 m 1,7,-1
 201 909 l 1,8,-1
 201 1024 l 1,9,-1
 266 1024 l 1,10,-1
 266 1137 l 1,11,-1
 348 1219 l 1,12,-1
 564 1219 l 1,13,-1
 564 1105 l 1,14,-1
 430 1105 l 1,15,-1
 430 1024 l 1,16,-1
 613 1024 l 1,17,-1
 613 909 l 1,7,-1
EndSplineSet
EndChar

StartChar: yehwithhamzaabovemedial
Encoding: 65164 65164 99
Width: 634
Flags: W
AnchorPoint: "ArabicBelow" 317 -249 basechar 0
AnchorPoint: "ArabicAbove" 317 1469 basechar 0
LayerCount: 2
Fore
SplineSet
647 1 m 1,0,-1
 615 1 l 1,1,-1
 615 287 l 1,2,-1
 647 287 l 1,3,-1
 647 1 l 1,0,-1
615 205 m 1,4,-1
 411 1 l 1,5,-1
 -32 1 l 1,6,-1
 -32 287 l 1,7,-1
 206 287 l 1,8,-1
 206 778 l 1,9,-1
 615 778 l 1,10,-1
 615 205 l 1,4,-1
613 909 m 1,11,-1
 201 909 l 1,12,-1
 201 1024 l 1,13,-1
 266 1024 l 1,14,-1
 266 1137 l 1,15,-1
 348 1219 l 1,16,-1
 564 1219 l 1,17,-1
 564 1105 l 1,18,-1
 430 1105 l 1,19,-1
 430 1024 l 1,20,-1
 613 1024 l 1,21,-1
 613 909 l 1,11,-1
EndSplineSet
EndChar

StartChar: alefisolated
Encoding: 65165 65165 100
Width: 638
Flags: W
AnchorPoint: "ArabicBelow" 319 -249 basechar 0
AnchorPoint: "ArabicAbove" 319 1805 basechar 0
LayerCount: 2
Fore
SplineSet
594 1 m 1,0,-1
 389 1 l 1,1,-1
 184 205 l 1,2,-1
 184 1555 l 1,3,-1
 594 1555 l 1,4,-1
 594 1 l 1,0,-1
EndSplineSet
EndChar

StartChar: aleffinal
Encoding: 65166 65166 101
Width: 607
Flags: W
AnchorPoint: "ArabicBelow" 303 -249 basechar 0
AnchorPoint: "ArabicAbove" 303 1805 basechar 0
LayerCount: 2
Fore
SplineSet
594 1 m 1,0,-1
 389 1 l 1,1,-1
 184 205 l 1,2,-1
 184 1555 l 1,3,-1
 594 1555 l 1,4,-1
 594 1 l 1,0,-1
626 1 m 1,5,-1
 594 1 l 1,6,-1
 594 287 l 1,7,-1
 626 287 l 1,8,-1
 626 1 l 1,5,-1
EndSplineSet
EndChar

StartChar: behisolated
Encoding: 65167 65167 102
Width: 1795
Flags: W
AnchorPoint: "ArabicBelow" 897 -695 basechar 0
AnchorPoint: "ArabicAbove" 897 1028 basechar 0
LayerCount: 2
Fore
SplineSet
1740 205 m 1,0,-1
 1535 1 l 1,1,-1
 389 1 l 1,2,-1
 184 205 l 1,3,-1
 184 778 l 1,4,-1
 594 778 l 1,5,-1
 594 287 l 1,6,-1
 1330 287 l 1,7,-1
 1330 778 l 1,8,-1
 1740 778 l 1,9,-1
 1740 205 l 1,0,-1
791 -280 m 1,10,-1
 791 -214 l 1,11,-1
 888 -115 l 1,12,-1
 953 -115 l 1,13,-1
 1016 -115 l 1,14,-1
 1103 -208 l 1,15,-1
 1103 -279 l 1,16,-1
 1103 -349 l 1,17,-1
 1011 -445 l 1,18,-1
 947 -445 l 1,19,-1
 884 -445 l 1,20,-1
 791 -347 l 1,21,-1
 791 -280 l 1,10,-1
EndSplineSet
EndChar

StartChar: behfinal
Encoding: 65168 65168 103
Width: 1759
Flags: W
AnchorPoint: "ArabicBelow" 879 -695 basechar 0
AnchorPoint: "ArabicAbove" 879 1028 basechar 0
LayerCount: 2
Fore
SplineSet
1772 1 m 1,0,-1
 1740 1 l 1,1,-1
 1740 287 l 1,2,-1
 1772 287 l 1,3,-1
 1772 1 l 1,0,-1
1740 1 m 1,4,-1
 389 1 l 1,5,-1
 184 205 l 1,6,-1
 184 778 l 1,7,-1
 594 778 l 1,8,-1
 594 287 l 1,9,-1
 1330 287 l 1,10,-1
 1330 778 l 1,11,-1
 1740 778 l 1,12,-1
 1740 1 l 1,4,-1
791 -280 m 1,13,-1
 791 -214 l 1,14,-1
 888 -115 l 1,15,-1
 953 -115 l 1,16,-1
 1016 -115 l 1,17,-1
 1103 -208 l 1,18,-1
 1103 -279 l 1,19,-1
 1103 -349 l 1,20,-1
 1011 -445 l 1,21,-1
 947 -445 l 1,22,-1
 884 -445 l 1,23,-1
 791 -347 l 1,24,-1
 791 -280 l 1,13,-1
EndSplineSet
EndChar

StartChar: behinitial
Encoding: 65169 65169 104
Width: 619
Flags: W
AnchorPoint: "ArabicBelow" 309 -690 basechar 0
AnchorPoint: "ArabicAbove" 309 1028 basechar 0
LayerCount: 2
Fore
SplineSet
608 205 m 1,0,-1
 403 1 l 1,1,-1
 -54 1 l 1,2,-1
 -54 287 l 1,3,-1
 199 287 l 1,4,-1
 199 778 l 1,5,-1
 608 778 l 1,6,-1
 608 205 l 1,0,-1
201 -275 m 1,7,-1
 201 -209 l 1,8,-1
 298 -110 l 1,9,-1
 363 -110 l 1,10,-1
 426 -110 l 1,11,-1
 513 -203 l 1,12,-1
 513 -274 l 1,13,-1
 513 -344 l 1,14,-1
 421 -440 l 1,15,-1
 357 -440 l 1,16,-1
 294 -440 l 1,17,-1
 201 -342 l 1,18,-1
 201 -275 l 1,7,-1
EndSplineSet
EndChar

StartChar: behmedial
Encoding: 65170 65170 105
Width: 634
Flags: W
AnchorPoint: "ArabicBelow" 317 -695 basechar 0
AnchorPoint: "ArabicAbove" 317 1028 basechar 0
LayerCount: 2
Fore
SplineSet
644 1 m 1,0,-1
 612 1 l 1,1,-1
 612 287 l 1,2,-1
 644 287 l 1,3,-1
 644 1 l 1,0,-1
613 1 m 1,4,-1
 -69 1 l 1,5,-1
 -69 287 l 1,6,-1
 204 287 l 1,7,-1
 204 778 l 1,8,-1
 613 778 l 1,9,-1
 613 1 l 1,4,-1
201 -280 m 1,10,-1
 201 -214 l 1,11,-1
 298 -115 l 1,12,-1
 363 -115 l 1,13,-1
 426 -115 l 1,14,-1
 513 -208 l 1,15,-1
 513 -279 l 1,16,-1
 513 -349 l 1,17,-1
 421 -445 l 1,18,-1
 357 -445 l 1,19,-1
 294 -445 l 1,20,-1
 201 -347 l 1,21,-1
 201 -280 l 1,10,-1
EndSplineSet
EndChar

StartChar: tehmarbutaisolated
Encoding: 65171 65171 106
Width: 1256
Flags: W
AnchorPoint: "ArabicBelow" 628 -249 basechar 0
AnchorPoint: "ArabicAbove" 628 1619 basechar 0
LayerCount: 2
Fore
SplineSet
1208 207 m 1,0,-1
 1208 1 l 1,1,-1
 1004 1 l 1,2,-1
 390 1 l 1,3,-1
 184 1 l 1,4,-1
 184 202 l 1,5,-1
 184 574 l 1,6,-1
 389 778 l 1,7,-1
 1004 778 l 1,8,-1
 1208 574 l 1,9,-1
 1208 207 l 1,0,-1
799 287 m 1,10,-1
 799 492 l 1,11,-1
 594 492 l 1,12,-1
 594 287 l 1,13,-1
 799 287 l 1,10,-1
368 1202 m 1,14,-1
 368 1268 l 1,15,-1
 465 1367 l 1,16,-1
 530 1367 l 1,17,-1
 593 1367 l 1,18,-1
 680 1274 l 1,19,-1
 680 1203 l 1,20,-1
 680 1133 l 1,21,-1
 588 1037 l 1,22,-1
 524 1037 l 1,23,-1
 461 1037 l 1,24,-1
 368 1135 l 1,25,-1
 368 1202 l 1,14,-1
695 1204 m 1,26,-1
 695 1270 l 1,27,-1
 792 1369 l 1,28,-1
 857 1369 l 1,29,-1
 920 1369 l 1,30,-1
 1007 1276 l 1,31,-1
 1007 1205 l 1,32,-1
 1007 1135 l 1,33,-1
 915 1039 l 1,34,-1
 851 1039 l 1,35,-1
 788 1039 l 1,36,-1
 695 1137 l 1,37,-1
 695 1204 l 1,26,-1
EndSplineSet
EndChar

StartChar: tehmarbutafinal
Encoding: 65172 65172 107
Width: 1223
Flags: W
AnchorPoint: "ArabicBelow" 611 -249 basechar 0
AnchorPoint: "ArabicAbove" 611 1619 basechar 0
LayerCount: 2
Fore
SplineSet
1239 1 m 1,0,-1
 1207 1 l 1,1,-1
 1207 287 l 1,2,-1
 1239 287 l 1,3,-1
 1239 1 l 1,0,-1
1208 207 m 1,4,-1
 1208 1 l 1,5,-1
 1004 1 l 1,6,-1
 390 1 l 1,7,-1
 184 1 l 1,8,-1
 184 202 l 1,9,-1
 184 574 l 1,10,-1
 389 778 l 1,11,-1
 1004 778 l 1,12,-1
 1208 574 l 1,13,-1
 1208 207 l 1,4,-1
799 287 m 1,14,-1
 799 492 l 1,15,-1
 594 492 l 1,16,-1
 594 287 l 1,17,-1
 799 287 l 1,14,-1
368 1202 m 1,18,-1
 368 1268 l 1,19,-1
 465 1367 l 1,20,-1
 530 1367 l 1,21,-1
 593 1367 l 1,22,-1
 680 1274 l 1,23,-1
 680 1203 l 1,24,-1
 680 1133 l 1,25,-1
 588 1037 l 1,26,-1
 524 1037 l 1,27,-1
 461 1037 l 1,28,-1
 368 1135 l 1,29,-1
 368 1202 l 1,18,-1
695 1204 m 1,30,-1
 695 1270 l 1,31,-1
 792 1369 l 1,32,-1
 857 1369 l 1,33,-1
 920 1369 l 1,34,-1
 1007 1276 l 1,35,-1
 1007 1205 l 1,36,-1
 1007 1135 l 1,37,-1
 915 1039 l 1,38,-1
 851 1039 l 1,39,-1
 788 1039 l 1,40,-1
 695 1137 l 1,41,-1
 695 1204 l 1,30,-1
EndSplineSet
EndChar

StartChar: tehisolated
Encoding: 65173 65173 108
Width: 1787
Flags: W
AnchorPoint: "ArabicBelow" 893 -249 basechar 0
AnchorPoint: "ArabicAbove" 893 1477 basechar 0
LayerCount: 2
Fore
SplineSet
1740 205 m 1,0,-1
 1535 1 l 1,1,-1
 389 1 l 1,2,-1
 184 205 l 1,3,-1
 184 778 l 1,4,-1
 594 778 l 1,5,-1
 594 287 l 1,6,-1
 1330 287 l 1,7,-1
 1330 778 l 1,8,-1
 1740 778 l 1,9,-1
 1740 205 l 1,0,-1
632 1060 m 1,10,-1
 632 1126 l 1,11,-1
 729 1225 l 1,12,-1
 794 1225 l 1,13,-1
 857 1225 l 1,14,-1
 944 1132 l 1,15,-1
 944 1061 l 1,16,-1
 944 991 l 1,17,-1
 852 895 l 1,18,-1
 788 895 l 1,19,-1
 725 895 l 1,20,-1
 632 993 l 1,21,-1
 632 1060 l 1,10,-1
959 1062 m 1,22,-1
 959 1128 l 1,23,-1
 1056 1227 l 1,24,-1
 1121 1227 l 1,25,-1
 1184 1227 l 1,26,-1
 1271 1134 l 1,27,-1
 1271 1063 l 1,28,-1
 1271 993 l 1,29,-1
 1179 897 l 1,30,-1
 1115 897 l 1,31,-1
 1052 897 l 1,32,-1
 959 995 l 1,33,-1
 959 1062 l 1,22,-1
EndSplineSet
EndChar

StartChar: tehfinal
Encoding: 65174 65174 109
Width: 1754
Flags: W
AnchorPoint: "ArabicBelow" 877 -249 basechar 0
AnchorPoint: "ArabicAbove" 877 1477 basechar 0
LayerCount: 2
Fore
SplineSet
1771 1 m 1,0,-1
 1739 1 l 1,1,-1
 1739 287 l 1,2,-1
 1771 287 l 1,3,-1
 1771 1 l 1,0,-1
1740 1 m 1,4,-1
 389 1 l 1,5,-1
 184 205 l 1,6,-1
 184 778 l 1,7,-1
 594 778 l 1,8,-1
 594 287 l 1,9,-1
 1330 287 l 1,10,-1
 1330 778 l 1,11,-1
 1740 778 l 1,12,-1
 1740 1 l 1,4,-1
632 1060 m 1,13,-1
 632 1126 l 1,14,-1
 729 1225 l 1,15,-1
 794 1225 l 1,16,-1
 857 1225 l 1,17,-1
 944 1132 l 1,18,-1
 944 1061 l 1,19,-1
 944 991 l 1,20,-1
 852 895 l 1,21,-1
 788 895 l 1,22,-1
 725 895 l 1,23,-1
 632 993 l 1,24,-1
 632 1060 l 1,13,-1
959 1062 m 1,25,-1
 959 1128 l 1,26,-1
 1056 1227 l 1,27,-1
 1121 1227 l 1,28,-1
 1184 1227 l 1,29,-1
 1271 1134 l 1,30,-1
 1271 1063 l 1,31,-1
 1271 993 l 1,32,-1
 1179 897 l 1,33,-1
 1115 897 l 1,34,-1
 1052 897 l 1,35,-1
 959 995 l 1,36,-1
 959 1062 l 1,25,-1
EndSplineSet
EndChar

StartChar: tehinitial
Encoding: 65175 65175 110
Width: 958
Flags: W
AnchorPoint: "ArabicBelow" 479 -249 basechar 0
AnchorPoint: "ArabicAbove" 479 1477 basechar 0
LayerCount: 2
Fore
SplineSet
820 205 m 1,0,-1
 615 1 l 1,1,-1
 -32 1 l 1,2,-1
 -32 287 l 1,3,-1
 411 287 l 1,4,-1
 411 778 l 1,5,-1
 820 778 l 1,6,-1
 820 205 l 1,0,-1
302 1060 m 1,7,-1
 302 1126 l 1,8,-1
 399 1225 l 1,9,-1
 464 1225 l 1,10,-1
 527 1225 l 1,11,-1
 614 1132 l 1,12,-1
 614 1061 l 1,13,-1
 614 991 l 1,14,-1
 522 895 l 1,15,-1
 458 895 l 1,16,-1
 395 895 l 1,17,-1
 302 993 l 1,18,-1
 302 1060 l 1,7,-1
629 1062 m 1,19,-1
 629 1128 l 1,20,-1
 726 1227 l 1,21,-1
 791 1227 l 1,22,-1
 854 1227 l 1,23,-1
 941 1134 l 1,24,-1
 941 1063 l 1,25,-1
 941 993 l 1,26,-1
 849 897 l 1,27,-1
 785 897 l 1,28,-1
 722 897 l 1,29,-1
 629 995 l 1,30,-1
 629 1062 l 1,19,-1
EndSplineSet
EndChar

StartChar: tehmedial
Encoding: 65176 65176 111
Width: 839
Flags: W
AnchorPoint: "ArabicBelow" 419 -249 basechar 0
AnchorPoint: "ArabicAbove" 419 1477 basechar 0
LayerCount: 2
Fore
SplineSet
852 1 m 1,0,-1
 820 1 l 1,1,-1
 820 287 l 1,2,-1
 852 287 l 1,3,-1
 852 1 l 1,0,-1
820 1 m 1,4,-1
 -32 1 l 1,5,-1
 -32 287 l 1,6,-1
 411 287 l 1,7,-1
 411 778 l 1,8,-1
 820 778 l 1,9,-1
 820 1 l 1,4,-1
302 1060 m 1,10,-1
 302 1126 l 1,11,-1
 399 1225 l 1,12,-1
 464 1225 l 1,13,-1
 527 1225 l 1,14,-1
 614 1132 l 1,15,-1
 614 1061 l 1,16,-1
 614 991 l 1,17,-1
 522 895 l 1,18,-1
 458 895 l 1,19,-1
 395 895 l 1,20,-1
 302 993 l 1,21,-1
 302 1060 l 1,10,-1
629 1062 m 1,22,-1
 629 1128 l 1,23,-1
 726 1227 l 1,24,-1
 791 1227 l 1,25,-1
 854 1227 l 1,26,-1
 941 1134 l 1,27,-1
 941 1063 l 1,28,-1
 941 993 l 1,29,-1
 849 897 l 1,30,-1
 785 897 l 1,31,-1
 722 897 l 1,32,-1
 629 995 l 1,33,-1
 629 1062 l 1,22,-1
EndSplineSet
EndChar

StartChar: thehisolated
Encoding: 65177 65177 112
Width: 1780
Flags: W
AnchorPoint: "ArabicBelow" 890 -249 basechar 0
AnchorPoint: "ArabicAbove" 890 1801 basechar 0
LayerCount: 2
Fore
SplineSet
1740 205 m 1,0,-1
 1535 1 l 1,1,-1
 389 1 l 1,2,-1
 184 205 l 1,3,-1
 184 778 l 1,4,-1
 594 778 l 1,5,-1
 594 287 l 1,6,-1
 1330 287 l 1,7,-1
 1330 778 l 1,8,-1
 1740 778 l 1,9,-1
 1740 205 l 1,0,-1
798 1386 m 1,10,-1
 798 1452 l 1,11,-1
 895 1551 l 1,12,-1
 960 1551 l 1,13,-1
 1023 1551 l 1,14,-1
 1110 1458 l 1,15,-1
 1110 1387 l 1,16,-1
 1110 1317 l 1,17,-1
 1018 1221 l 1,18,-1
 954 1221 l 1,19,-1
 891 1221 l 1,20,-1
 798 1319 l 1,21,-1
 798 1386 l 1,10,-1
632 1060 m 1,22,-1
 632 1126 l 1,23,-1
 729 1225 l 1,24,-1
 794 1225 l 1,25,-1
 857 1225 l 1,26,-1
 944 1132 l 1,27,-1
 944 1061 l 1,28,-1
 944 991 l 1,29,-1
 852 895 l 1,30,-1
 788 895 l 1,31,-1
 725 895 l 1,32,-1
 632 993 l 1,33,-1
 632 1060 l 1,22,-1
959 1062 m 1,34,-1
 959 1128 l 1,35,-1
 1056 1227 l 1,36,-1
 1121 1227 l 1,37,-1
 1184 1227 l 1,38,-1
 1271 1134 l 1,39,-1
 1271 1063 l 1,40,-1
 1271 993 l 1,41,-1
 1179 897 l 1,42,-1
 1115 897 l 1,43,-1
 1052 897 l 1,44,-1
 959 995 l 1,45,-1
 959 1062 l 1,34,-1
EndSplineSet
EndChar

StartChar: thehfinal
Encoding: 65178 65178 113
Width: 1758
Flags: W
AnchorPoint: "ArabicBelow" 879 -249 basechar 0
AnchorPoint: "ArabicAbove" 879 1801 basechar 0
LayerCount: 2
Fore
SplineSet
1772 1 m 1,0,-1
 1740 1 l 1,1,-1
 1740 287 l 1,2,-1
 1772 287 l 1,3,-1
 1772 1 l 1,0,-1
1740 1 m 1,4,-1
 389 1 l 1,5,-1
 184 205 l 1,6,-1
 184 778 l 1,7,-1
 594 778 l 1,8,-1
 594 287 l 1,9,-1
 1330 287 l 1,10,-1
 1330 778 l 1,11,-1
 1740 778 l 1,12,-1
 1740 1 l 1,4,-1
798 1386 m 1,13,-1
 798 1452 l 1,14,-1
 895 1551 l 1,15,-1
 960 1551 l 1,16,-1
 1023 1551 l 1,17,-1
 1110 1458 l 1,18,-1
 1110 1387 l 1,19,-1
 1110 1317 l 1,20,-1
 1018 1221 l 1,21,-1
 954 1221 l 1,22,-1
 891 1221 l 1,23,-1
 798 1319 l 1,24,-1
 798 1386 l 1,13,-1
632 1060 m 1,25,-1
 632 1126 l 1,26,-1
 729 1225 l 1,27,-1
 794 1225 l 1,28,-1
 857 1225 l 1,29,-1
 944 1132 l 1,30,-1
 944 1061 l 1,31,-1
 944 991 l 1,32,-1
 852 895 l 1,33,-1
 788 895 l 1,34,-1
 725 895 l 1,35,-1
 632 993 l 1,36,-1
 632 1060 l 1,25,-1
959 1062 m 1,37,-1
 959 1128 l 1,38,-1
 1056 1227 l 1,39,-1
 1121 1227 l 1,40,-1
 1184 1227 l 1,41,-1
 1271 1134 l 1,42,-1
 1271 1063 l 1,43,-1
 1271 993 l 1,44,-1
 1179 897 l 1,45,-1
 1115 897 l 1,46,-1
 1052 897 l 1,47,-1
 959 995 l 1,48,-1
 959 1062 l 1,37,-1
EndSplineSet
EndChar

StartChar: thehinitial
Encoding: 65179 65179 114
Width: 951
Flags: W
AnchorPoint: "ArabicBelow" 475 -249 basechar 0
AnchorPoint: "ArabicAbove" 475 1801 basechar 0
LayerCount: 2
Fore
SplineSet
820 205 m 1,0,-1
 615 1 l 1,1,-1
 -32 1 l 1,2,-1
 -32 287 l 1,3,-1
 411 287 l 1,4,-1
 411 778 l 1,5,-1
 820 778 l 1,6,-1
 820 205 l 1,0,-1
468 1386 m 1,7,-1
 468 1452 l 1,8,-1
 565 1551 l 1,9,-1
 630 1551 l 1,10,-1
 693 1551 l 1,11,-1
 780 1458 l 1,12,-1
 780 1387 l 1,13,-1
 780 1317 l 1,14,-1
 688 1221 l 1,15,-1
 624 1221 l 1,16,-1
 561 1221 l 1,17,-1
 468 1319 l 1,18,-1
 468 1386 l 1,7,-1
302 1060 m 1,19,-1
 302 1126 l 1,20,-1
 399 1225 l 1,21,-1
 464 1225 l 1,22,-1
 527 1225 l 1,23,-1
 614 1132 l 1,24,-1
 614 1061 l 1,25,-1
 614 991 l 1,26,-1
 522 895 l 1,27,-1
 458 895 l 1,28,-1
 395 895 l 1,29,-1
 302 993 l 1,30,-1
 302 1060 l 1,19,-1
629 1062 m 1,31,-1
 629 1128 l 1,32,-1
 726 1227 l 1,33,-1
 791 1227 l 1,34,-1
 854 1227 l 1,35,-1
 941 1134 l 1,36,-1
 941 1063 l 1,37,-1
 941 993 l 1,38,-1
 849 897 l 1,39,-1
 785 897 l 1,40,-1
 722 897 l 1,41,-1
 629 995 l 1,42,-1
 629 1062 l 1,31,-1
EndSplineSet
EndChar

StartChar: thehmedial
Encoding: 65180 65180 115
Width: 837
Flags: W
AnchorPoint: "ArabicBelow" 418 -249 basechar 0
AnchorPoint: "ArabicAbove" 418 1801 basechar 0
LayerCount: 2
Fore
SplineSet
852 1 m 1,0,-1
 820 1 l 1,1,-1
 820 287 l 1,2,-1
 852 287 l 1,3,-1
 852 1 l 1,0,-1
820 1 m 1,4,-1
 -32 1 l 1,5,-1
 -32 287 l 1,6,-1
 411 287 l 1,7,-1
 411 778 l 1,8,-1
 820 778 l 1,9,-1
 820 1 l 1,4,-1
468 1386 m 1,10,-1
 468 1452 l 1,11,-1
 565 1551 l 1,12,-1
 630 1551 l 1,13,-1
 693 1551 l 1,14,-1
 780 1458 l 1,15,-1
 780 1387 l 1,16,-1
 780 1317 l 1,17,-1
 688 1221 l 1,18,-1
 624 1221 l 1,19,-1
 561 1221 l 1,20,-1
 468 1319 l 1,21,-1
 468 1386 l 1,10,-1
302 1060 m 1,22,-1
 302 1126 l 1,23,-1
 399 1225 l 1,24,-1
 464 1225 l 1,25,-1
 527 1225 l 1,26,-1
 614 1132 l 1,27,-1
 614 1061 l 1,28,-1
 614 991 l 1,29,-1
 522 895 l 1,30,-1
 458 895 l 1,31,-1
 395 895 l 1,32,-1
 302 993 l 1,33,-1
 302 1060 l 1,22,-1
629 1062 m 1,34,-1
 629 1128 l 1,35,-1
 726 1227 l 1,36,-1
 791 1227 l 1,37,-1
 854 1227 l 1,38,-1
 941 1134 l 1,39,-1
 941 1063 l 1,40,-1
 941 993 l 1,41,-1
 849 897 l 1,42,-1
 785 897 l 1,43,-1
 722 897 l 1,44,-1
 629 995 l 1,45,-1
 629 1062 l 1,34,-1
EndSplineSet
EndChar

StartChar: jeemisolated
Encoding: 65181 65181 116
Width: 1431
Flags: W
AnchorPoint: "ArabicBelow" 715 -822 basechar 0
AnchorPoint: "ArabicAbove" 715 1028 basechar 0
LayerCount: 2
Fore
SplineSet
1413 1 m 1,0,-1
 584 1 l 1,1,-1
 584 -326 l 1,2,-1
 869 -326 l 1,3,-1
 869 -572 l 1,4,-1
 389 -572 l 1,5,-1
 184 -367 l 1,6,-1
 184 82 l 1,7,-1
 389 287 l 1,8,-1
 1004 287 l 1,9,-1
 1004 492 l 1,10,-1
 512 492 l 1,11,-1
 512 778 l 1,12,-1
 1208 778 l 1,13,-1
 1413 574 l 1,14,-1
 1413 287 l 1,15,-1
 1413 1 l 1,0,-1
1056 -315 m 1,16,-1
 1056 -249 l 1,17,-1
 1153 -150 l 1,18,-1
 1218 -150 l 1,19,-1
 1281 -150 l 1,20,-1
 1368 -243 l 1,21,-1
 1368 -314 l 1,22,-1
 1368 -384 l 1,23,-1
 1276 -480 l 1,24,-1
 1212 -480 l 1,25,-1
 1149 -480 l 1,26,-1
 1056 -382 l 1,27,-1
 1056 -315 l 1,16,-1
EndSplineSet
EndChar

StartChar: jeemfinal
Encoding: 65182 65182 117
Width: 1538
Flags: W
AnchorPoint: "ArabicBelow" 769 -822 basechar 0
AnchorPoint: "ArabicAbove" 769 1028 basechar 0
LayerCount: 2
Fore
SplineSet
1567 1 m 1,0,-1
 584 1 l 1,1,-1
 584 -326 l 1,2,-1
 869 -326 l 1,3,-1
 869 -572 l 1,4,-1
 389 -572 l 1,5,-1
 184 -367 l 1,6,-1
 184 82 l 1,7,-1
 389 287 l 1,8,-1
 1004 287 l 1,9,-1
 1004 492 l 1,10,-1
 512 492 l 1,11,-1
 512 778 l 1,12,-1
 1208 778 l 1,13,-1
 1413 574 l 1,14,-1
 1413 287 l 1,15,-1
 1567 287 l 1,16,-1
 1567 1 l 1,0,-1
1056 -315 m 1,17,-1
 1056 -249 l 1,18,-1
 1153 -150 l 1,19,-1
 1218 -150 l 1,20,-1
 1281 -150 l 1,21,-1
 1368 -243 l 1,22,-1
 1368 -314 l 1,23,-1
 1368 -384 l 1,24,-1
 1276 -480 l 1,25,-1
 1212 -480 l 1,26,-1
 1149 -480 l 1,27,-1
 1056 -382 l 1,28,-1
 1056 -315 l 1,17,-1
EndSplineSet
EndChar

StartChar: jeeminitial
Encoding: 65183 65183 118
Width: 1195
Flags: W
AnchorPoint: "ArabicBelow" 597 -730 basechar 0
AnchorPoint: "ArabicAbove" 597 1028 basechar 0
LayerCount: 2
Fore
SplineSet
1106 1 m 1,0,-1
 -31 1 l 1,1,-1
 -31 287 l 1,2,-1
 696 287 l 1,3,-1
 696 492 l 1,4,-1
 205 492 l 1,5,-1
 205 778 l 1,6,-1
 901 778 l 1,7,-1
 1106 574 l 1,8,-1
 1106 287 l 1,9,-1
 1106 1 l 1,0,-1
526 -315 m 1,10,-1
 526 -249 l 1,11,-1
 623 -150 l 1,12,-1
 688 -150 l 1,13,-1
 751 -150 l 1,14,-1
 838 -243 l 1,15,-1
 838 -314 l 1,16,-1
 838 -384 l 1,17,-1
 746 -480 l 1,18,-1
 682 -480 l 1,19,-1
 619 -480 l 1,20,-1
 526 -382 l 1,21,-1
 526 -315 l 1,10,-1
EndSplineSet
EndChar

StartChar: jeemmedial
Encoding: 65184 65184 119
Width: 1230
Flags: W
AnchorPoint: "ArabicBelow" 615 -730 basechar 0
AnchorPoint: "ArabicAbove" 615 1028 basechar 0
LayerCount: 2
Fore
SplineSet
1260 1 m 1,0,-1
 -31 1 l 1,1,-1
 -31 287 l 1,2,-1
 696 287 l 1,3,-1
 696 492 l 1,4,-1
 205 492 l 1,5,-1
 205 778 l 1,6,-1
 901 778 l 1,7,-1
 1106 574 l 1,8,-1
 1106 287 l 1,9,-1
 1260 287 l 1,10,-1
 1260 1 l 1,0,-1
526 -315 m 1,11,-1
 526 -249 l 1,12,-1
 623 -150 l 1,13,-1
 688 -150 l 1,14,-1
 751 -150 l 1,15,-1
 838 -243 l 1,16,-1
 838 -314 l 1,17,-1
 838 -384 l 1,18,-1
 746 -480 l 1,19,-1
 682 -480 l 1,20,-1
 619 -480 l 1,21,-1
 526 -382 l 1,22,-1
 526 -315 l 1,11,-1
EndSplineSet
EndChar

StartChar: hahisolated
Encoding: 65185 65185 120
Width: 1454
Flags: W
AnchorPoint: "ArabicBelow" 727 -822 basechar 0
AnchorPoint: "ArabicAbove" 727 1028 basechar 0
LayerCount: 2
Fore
SplineSet
1413 1 m 1,0,-1
 584 1 l 1,1,-1
 584 -326 l 1,2,-1
 869 -326 l 1,3,-1
 869 -572 l 1,4,-1
 389 -572 l 1,5,-1
 184 -367 l 1,6,-1
 184 82 l 1,7,-1
 389 287 l 1,8,-1
 1004 287 l 1,9,-1
 1004 492 l 1,10,-1
 512 492 l 1,11,-1
 512 778 l 1,12,-1
 1208 778 l 1,13,-1
 1413 574 l 1,14,-1
 1413 287 l 1,15,-1
 1413 1 l 1,0,-1
EndSplineSet
EndChar

StartChar: hahfinal
Encoding: 65186 65186 121
Width: 1544
Flags: W
AnchorPoint: "ArabicBelow" 772 -822 basechar 0
AnchorPoint: "ArabicAbove" 772 1028 basechar 0
LayerCount: 2
Fore
SplineSet
1567 1 m 1,0,-1
 584 1 l 1,1,-1
 584 -326 l 1,2,-1
 869 -326 l 1,3,-1
 869 -572 l 1,4,-1
 389 -572 l 1,5,-1
 184 -367 l 1,6,-1
 184 82 l 1,7,-1
 389 287 l 1,8,-1
 1004 287 l 1,9,-1
 1004 492 l 1,10,-1
 512 492 l 1,11,-1
 512 778 l 1,12,-1
 1208 778 l 1,13,-1
 1413 574 l 1,14,-1
 1413 287 l 1,15,-1
 1567 287 l 1,16,-1
 1567 1 l 1,0,-1
EndSplineSet
EndChar

StartChar: hahinitial
Encoding: 65187 65187 122
Width: 1174
Flags: W
AnchorPoint: "ArabicBelow" 587 -249 basechar 0
AnchorPoint: "ArabicAbove" 587 1028 basechar 0
LayerCount: 2
Fore
SplineSet
1106 1 m 1,0,-1
 -31 1 l 1,1,-1
 -31 287 l 1,2,-1
 696 287 l 1,3,-1
 696 492 l 1,4,-1
 205 492 l 1,5,-1
 205 778 l 1,6,-1
 901 778 l 1,7,-1
 1106 574 l 1,8,-1
 1106 287 l 1,9,-1
 1106 1 l 1,0,-1
EndSplineSet
EndChar

StartChar: hahmedial
Encoding: 65188 65188 123
Width: 1240
Flags: W
AnchorPoint: "ArabicBelow" 620 -249 basechar 0
AnchorPoint: "ArabicAbove" 620 1028 basechar 0
LayerCount: 2
Fore
SplineSet
1260 1 m 1,0,-1
 -31 1 l 1,1,-1
 -31 287 l 1,2,-1
 696 287 l 1,3,-1
 696 492 l 1,4,-1
 205 492 l 1,5,-1
 205 778 l 1,6,-1
 901 778 l 1,7,-1
 1106 574 l 1,8,-1
 1106 287 l 1,9,-1
 1260 287 l 1,10,-1
 1260 1 l 1,0,-1
EndSplineSet
EndChar

StartChar: khahisolated
Encoding: 65189 65189 124
Width: 1443
Flags: W
AnchorPoint: "ArabicBelow" 721 -822 basechar 0
AnchorPoint: "ArabicAbove" 721 1635 basechar 0
LayerCount: 2
Fore
SplineSet
1413 1 m 1,0,-1
 584 1 l 1,1,-1
 584 -326 l 1,2,-1
 869 -326 l 1,3,-1
 869 -572 l 1,4,-1
 389 -572 l 1,5,-1
 184 -367 l 1,6,-1
 184 82 l 1,7,-1
 389 287 l 1,8,-1
 1004 287 l 1,9,-1
 1004 492 l 1,10,-1
 512 492 l 1,11,-1
 512 778 l 1,12,-1
 1208 778 l 1,13,-1
 1413 574 l 1,14,-1
 1413 287 l 1,15,-1
 1413 1 l 1,0,-1
822 1220 m 1,16,-1
 822 1286 l 1,17,-1
 919 1385 l 1,18,-1
 984 1385 l 1,19,-1
 1047 1385 l 1,20,-1
 1134 1292 l 1,21,-1
 1134 1221 l 1,22,-1
 1134 1151 l 1,23,-1
 1042 1055 l 1,24,-1
 978 1055 l 1,25,-1
 915 1055 l 1,26,-1
 822 1153 l 1,27,-1
 822 1220 l 1,16,-1
EndSplineSet
EndChar

StartChar: khahfinal
Encoding: 65190 65190 125
Width: 1499
Flags: W
AnchorPoint: "ArabicBelow" 749 -822 basechar 0
AnchorPoint: "ArabicAbove" 749 1635 basechar 0
LayerCount: 2
Fore
SplineSet
1567 1 m 1,0,-1
 584 1 l 1,1,-1
 584 -326 l 1,2,-1
 869 -326 l 1,3,-1
 869 -572 l 1,4,-1
 389 -572 l 1,5,-1
 184 -367 l 1,6,-1
 184 82 l 1,7,-1
 389 287 l 1,8,-1
 1004 287 l 1,9,-1
 1004 492 l 1,10,-1
 512 492 l 1,11,-1
 512 778 l 1,12,-1
 1208 778 l 1,13,-1
 1413 574 l 1,14,-1
 1413 287 l 1,15,-1
 1567 287 l 1,16,-1
 1567 1 l 1,0,-1
822 1220 m 1,17,-1
 822 1286 l 1,18,-1
 919 1385 l 1,19,-1
 984 1385 l 1,20,-1
 1047 1385 l 1,21,-1
 1134 1292 l 1,22,-1
 1134 1221 l 1,23,-1
 1134 1151 l 1,24,-1
 1042 1055 l 1,25,-1
 978 1055 l 1,26,-1
 915 1055 l 1,27,-1
 822 1153 l 1,28,-1
 822 1220 l 1,17,-1
EndSplineSet
EndChar

StartChar: khahinitial
Encoding: 65191 65191 126
Width: 1180
Flags: W
AnchorPoint: "ArabicBelow" 590 -249 basechar 0
AnchorPoint: "ArabicAbove" 590 1635 basechar 0
LayerCount: 2
Fore
SplineSet
1106 1 m 1,0,-1
 -31 1 l 1,1,-1
 -31 287 l 1,2,-1
 696 287 l 1,3,-1
 696 492 l 1,4,-1
 205 492 l 1,5,-1
 205 778 l 1,6,-1
 901 778 l 1,7,-1
 1106 574 l 1,8,-1
 1106 287 l 1,9,-1
 1106 1 l 1,0,-1
532 1220 m 1,10,-1
 532 1286 l 1,11,-1
 629 1385 l 1,12,-1
 694 1385 l 1,13,-1
 757 1385 l 1,14,-1
 844 1292 l 1,15,-1
 844 1221 l 1,16,-1
 844 1151 l 1,17,-1
 752 1055 l 1,18,-1
 688 1055 l 1,19,-1
 625 1055 l 1,20,-1
 532 1153 l 1,21,-1
 532 1220 l 1,10,-1
EndSplineSet
EndChar

StartChar: khahmedial
Encoding: 65192 65192 127
Width: 1230
Flags: W
AnchorPoint: "ArabicBelow" 615 -249 basechar 0
AnchorPoint: "ArabicAbove" 615 1635 basechar 0
LayerCount: 2
Fore
SplineSet
1260 1 m 1,0,-1
 -31 1 l 1,1,-1
 -31 287 l 1,2,-1
 696 287 l 1,3,-1
 696 492 l 1,4,-1
 205 492 l 1,5,-1
 205 778 l 1,6,-1
 901 778 l 1,7,-1
 1106 574 l 1,8,-1
 1106 287 l 1,9,-1
 1260 287 l 1,10,-1
 1260 1 l 1,0,-1
532 1220 m 1,11,-1
 532 1286 l 1,12,-1
 629 1385 l 1,13,-1
 694 1385 l 1,14,-1
 757 1385 l 1,15,-1
 844 1292 l 1,16,-1
 844 1221 l 1,17,-1
 844 1151 l 1,18,-1
 752 1055 l 1,19,-1
 688 1055 l 1,20,-1
 625 1055 l 1,21,-1
 532 1153 l 1,22,-1
 532 1220 l 1,11,-1
EndSplineSet
EndChar

StartChar: dalisolated
Encoding: 65193 65193 128
Width: 1144
Flags: W
AnchorPoint: "ArabicBelow" 572 -249 basechar 0
AnchorPoint: "ArabicAbove" 572 1028 basechar 0
LayerCount: 2
Fore
SplineSet
1134 206 m 1,0,-1
 1134 1 l 1,1,-1
 929 1 l 1,2,-1
 184 1 l 1,3,-1
 184 287 l 1,4,-1
 724 287 l 1,5,-1
 724 492 l 1,6,-1
 307 492 l 1,7,-1
 307 778 l 1,8,-1
 929 778 l 1,9,-1
 1134 574 l 1,10,-1
 1134 206 l 1,0,-1
EndSplineSet
EndChar

StartChar: dalfinal
Encoding: 65194 65194 129
Width: 1151
Flags: W
AnchorPoint: "ArabicBelow" 575 -249 basechar 0
AnchorPoint: "ArabicAbove" 575 1028 basechar 0
LayerCount: 2
Fore
SplineSet
1165 1 m 1,0,-1
 1134 1 l 1,1,-1
 1134 287 l 1,2,-1
 1165 287 l 1,3,-1
 1165 1 l 1,0,-1
1134 206 m 1,4,-1
 1134 1 l 1,5,-1
 929 1 l 1,6,-1
 184 1 l 1,7,-1
 184 287 l 1,8,-1
 724 287 l 1,9,-1
 724 492 l 1,10,-1
 307 492 l 1,11,-1
 307 778 l 1,12,-1
 929 778 l 1,13,-1
 1134 574 l 1,14,-1
 1134 206 l 1,4,-1
EndSplineSet
EndChar

StartChar: thalisolated
Encoding: 65195 65195 130
Width: 1143
Flags: W
AnchorPoint: "ArabicBelow" 571 -249 basechar 0
AnchorPoint: "ArabicAbove" 571 1635 basechar 0
LayerCount: 2
Fore
SplineSet
1134 206 m 1,0,-1
 1134 1 l 1,1,-1
 929 1 l 1,2,-1
 184 1 l 1,3,-1
 184 287 l 1,4,-1
 724 287 l 1,5,-1
 724 492 l 1,6,-1
 307 492 l 1,7,-1
 307 778 l 1,8,-1
 929 778 l 1,9,-1
 1134 574 l 1,10,-1
 1134 206 l 1,0,-1
492 1220 m 1,11,-1
 492 1286 l 1,12,-1
 589 1385 l 1,13,-1
 654 1385 l 1,14,-1
 717 1385 l 1,15,-1
 804 1292 l 1,16,-1
 804 1221 l 1,17,-1
 804 1151 l 1,18,-1
 712 1055 l 1,19,-1
 648 1055 l 1,20,-1
 585 1055 l 1,21,-1
 492 1153 l 1,22,-1
 492 1220 l 1,11,-1
EndSplineSet
EndChar

StartChar: thalfinal
Encoding: 65196 65196 131
Width: 1145
Flags: W
AnchorPoint: "ArabicBelow" 572 -249 basechar 0
AnchorPoint: "ArabicAbove" 572 1635 basechar 0
LayerCount: 2
Fore
SplineSet
1165 1 m 1,0,-1
 1134 1 l 1,1,-1
 1134 287 l 1,2,-1
 1165 287 l 1,3,-1
 1165 1 l 1,0,-1
1134 206 m 1,4,-1
 1134 1 l 1,5,-1
 929 1 l 1,6,-1
 184 1 l 1,7,-1
 184 287 l 1,8,-1
 724 287 l 1,9,-1
 724 492 l 1,10,-1
 307 492 l 1,11,-1
 307 778 l 1,12,-1
 929 778 l 1,13,-1
 1134 574 l 1,14,-1
 1134 206 l 1,4,-1
492 1220 m 1,15,-1
 492 1286 l 1,16,-1
 589 1385 l 1,17,-1
 654 1385 l 1,18,-1
 717 1385 l 1,19,-1
 804 1292 l 1,20,-1
 804 1221 l 1,21,-1
 804 1151 l 1,22,-1
 712 1055 l 1,23,-1
 648 1055 l 1,24,-1
 585 1055 l 1,25,-1
 492 1153 l 1,26,-1
 492 1220 l 1,15,-1
EndSplineSet
EndChar

StartChar: rehisolated
Encoding: 65197 65197 132
Width: 823
Flags: W
AnchorPoint: "ArabicBelow" 411 -742 basechar 0
AnchorPoint: "ArabicAbove" 411 1028 basechar 0
LayerCount: 2
Fore
SplineSet
799 -287 m 1,0,-1
 594 -492 l 1,1,-1
 124 -492 l 1,2,-1
 124 -205 l 1,3,-1
 389 -205 l 1,4,-1
 389 778 l 1,5,-1
 799 778 l 1,6,-1
 799 -287 l 1,0,-1
EndSplineSet
EndChar

StartChar: rehfinal
Encoding: 65198 65198 133
Width: 828
Flags: W
AnchorPoint: "ArabicBelow" 414 -742 basechar 0
AnchorPoint: "ArabicAbove" 414 1028 basechar 0
LayerCount: 2
Fore
SplineSet
830 1 m 1,0,-1
 799 1 l 1,1,-1
 799 287 l 1,2,-1
 830 287 l 1,3,-1
 830 1 l 1,0,-1
799 -287 m 1,4,-1
 594 -492 l 1,5,-1
 124 -492 l 1,6,-1
 124 -205 l 1,7,-1
 389 -205 l 1,8,-1
 389 778 l 1,9,-1
 799 778 l 1,10,-1
 799 -287 l 1,4,-1
EndSplineSet
EndChar

StartChar: zainisolated
Encoding: 65199 65199 134
Width: 841
Flags: W
AnchorPoint: "ArabicBelow" 420 -742 basechar 0
AnchorPoint: "ArabicAbove" 420 1635 basechar 0
LayerCount: 2
Fore
SplineSet
799 -287 m 1,0,-1
 594 -492 l 1,1,-1
 124 -492 l 1,2,-1
 124 -205 l 1,3,-1
 389 -205 l 1,4,-1
 389 778 l 1,5,-1
 799 778 l 1,6,-1
 799 -287 l 1,0,-1
442 1220 m 1,7,-1
 442 1286 l 1,8,-1
 539 1385 l 1,9,-1
 604 1385 l 1,10,-1
 667 1385 l 1,11,-1
 754 1292 l 1,12,-1
 754 1221 l 1,13,-1
 754 1151 l 1,14,-1
 662 1055 l 1,15,-1
 598 1055 l 1,16,-1
 535 1055 l 1,17,-1
 442 1153 l 1,18,-1
 442 1220 l 1,7,-1
EndSplineSet
EndChar

StartChar: zainfinal
Encoding: 65200 65200 135
Width: 816
Flags: W
AnchorPoint: "ArabicBelow" 408 -742 basechar 0
AnchorPoint: "ArabicAbove" 408 1635 basechar 0
LayerCount: 2
Fore
SplineSet
830 1 m 1,0,-1
 799 1 l 1,1,-1
 799 287 l 1,2,-1
 830 287 l 1,3,-1
 830 1 l 1,0,-1
799 -287 m 1,4,-1
 594 -492 l 1,5,-1
 124 -492 l 1,6,-1
 124 -205 l 1,7,-1
 389 -205 l 1,8,-1
 389 778 l 1,9,-1
 799 778 l 1,10,-1
 799 -287 l 1,4,-1
442 1220 m 1,11,-1
 442 1286 l 1,12,-1
 539 1385 l 1,13,-1
 604 1385 l 1,14,-1
 667 1385 l 1,15,-1
 754 1292 l 1,16,-1
 754 1221 l 1,17,-1
 754 1151 l 1,18,-1
 662 1055 l 1,19,-1
 598 1055 l 1,20,-1
 535 1055 l 1,21,-1
 442 1153 l 1,22,-1
 442 1220 l 1,11,-1
EndSplineSet
EndChar

StartChar: seenisolated
Encoding: 65201 65201 136
Width: 2748
Flags: W
AnchorPoint: "ArabicBelow" 1374 -742 basechar 0
AnchorPoint: "ArabicAbove" 1374 1028 basechar 0
LayerCount: 2
Fore
SplineSet
2724 206 m 1,0,-1
 2519 1 l 1,1,-1
 1495 1 l 1,2,-1
 1495 -287 l 1,3,-1
 1290 -492 l 1,4,-1
 389 -492 l 1,5,-1
 184 -287 l 1,6,-1
 184 614 l 1,7,-1
 594 614 l 1,8,-1
 594 -205 l 1,9,-1
 1085 -205 l 1,10,-1
 1085 778 l 1,11,-1
 1495 778 l 1,12,-1
 1495 287 l 1,13,-1
 1700 287 l 1,14,-1
 1700 778 l 1,15,-1
 2109 778 l 1,16,-1
 2109 287 l 1,17,-1
 2314 287 l 1,18,-1
 2314 778 l 1,19,-1
 2724 778 l 1,20,-1
 2724 206 l 1,0,-1
EndSplineSet
EndChar

StartChar: seenfinal
Encoding: 65202 65202 137
Width: 2737
Flags: W
AnchorPoint: "ArabicBelow" 1368 -742 basechar 0
AnchorPoint: "ArabicAbove" 1368 1028 basechar 0
LayerCount: 2
Fore
SplineSet
2756 1 m 1,0,-1
 2724 1 l 1,1,-1
 2724 287 l 1,2,-1
 2756 287 l 1,3,-1
 2756 1 l 1,0,-1
2724 206 m 1,4,-1
 2724 1 l 1,5,-1
 2519 1 l 1,6,-1
 1495 1 l 1,7,-1
 1495 -287 l 1,8,-1
 1290 -492 l 1,9,-1
 389 -492 l 1,10,-1
 184 -287 l 1,11,-1
 184 614 l 1,12,-1
 594 614 l 1,13,-1
 594 -205 l 1,14,-1
 1085 -205 l 1,15,-1
 1085 778 l 1,16,-1
 1495 778 l 1,17,-1
 1495 287 l 1,18,-1
 1700 287 l 1,19,-1
 1700 778 l 1,20,-1
 2109 778 l 1,21,-1
 2109 287 l 1,22,-1
 2314 287 l 1,23,-1
 2314 778 l 1,24,-1
 2724 778 l 1,25,-1
 2724 206 l 1,4,-1
EndSplineSet
EndChar

StartChar: seeninitial
Encoding: 65203 65203 138
Width: 1864
Flags: W
AnchorPoint: "ArabicBelow" 932 -249 basechar 0
AnchorPoint: "ArabicAbove" 932 1028 basechar 0
LayerCount: 2
Fore
SplineSet
1843 206 m 1,0,-1
 1638 1 l 1,1,-1
 -31 1 l 1,2,-1
 -31 287 l 1,3,-1
 205 287 l 1,4,-1
 205 778 l 1,5,-1
 614 778 l 1,6,-1
 614 287 l 1,7,-1
 819 287 l 1,8,-1
 819 778 l 1,9,-1
 1229 778 l 1,10,-1
 1229 287 l 1,11,-1
 1434 287 l 1,12,-1
 1434 778 l 1,13,-1
 1843 778 l 1,14,-1
 1843 206 l 1,0,-1
EndSplineSet
EndChar

StartChar: seenmedial
Encoding: 65204 65204 139
Width: 1861
Flags: W
AnchorPoint: "ArabicBelow" 930 -249 basechar 0
AnchorPoint: "ArabicAbove" 930 1028 basechar 0
LayerCount: 2
Fore
SplineSet
1875 1 m 1,0,-1
 1843 1 l 1,1,-1
 1843 287 l 1,2,-1
 1875 287 l 1,3,-1
 1875 1 l 1,0,-1
1843 206 m 2,4,5
 1843 133 1843 133 1843 1 c 1,6,-1
 1638 1 l 1,7,-1
 -31 1 l 1,8,-1
 -31 287 l 1,9,-1
 205 287 l 1,10,-1
 205 778 l 1,11,-1
 614 778 l 1,12,-1
 614 287 l 1,13,-1
 819 287 l 1,14,-1
 819 778 l 1,15,-1
 1229 778 l 1,16,-1
 1229 287 l 1,17,-1
 1434 287 l 1,18,-1
 1434 778 l 1,19,-1
 1843 778 l 1,20,-1
 1843 206 l 2,4,5
EndSplineSet
EndChar

StartChar: sheenisolated
Encoding: 65205 65205 140
Width: 2770
Flags: W
AnchorPoint: "ArabicBelow" 1385 -742 basechar 0
AnchorPoint: "ArabicAbove" 1385 1961 basechar 0
LayerCount: 2
Fore
SplineSet
2724 206 m 1,0,-1
 2519 1 l 1,1,-1
 1495 1 l 1,2,-1
 1495 -287 l 1,3,-1
 1290 -492 l 1,4,-1
 389 -492 l 1,5,-1
 184 -287 l 1,6,-1
 184 614 l 1,7,-1
 594 614 l 1,8,-1
 594 -205 l 1,9,-1
 1085 -205 l 1,10,-1
 1085 778 l 1,11,-1
 1495 778 l 1,12,-1
 1495 287 l 1,13,-1
 1700 287 l 1,14,-1
 1700 778 l 1,15,-1
 2109 778 l 1,16,-1
 2109 287 l 1,17,-1
 2314 287 l 1,18,-1
 2314 778 l 1,19,-1
 2724 778 l 1,20,-1
 2724 206 l 1,0,-1
1748 1546 m 1,21,-1
 1748 1612 l 1,22,-1
 1845 1711 l 1,23,-1
 1910 1711 l 1,24,-1
 1973 1711 l 1,25,-1
 2060 1618 l 1,26,-1
 2060 1547 l 1,27,-1
 2060 1477 l 1,28,-1
 1968 1381 l 1,29,-1
 1904 1381 l 1,30,-1
 1841 1381 l 1,31,-1
 1748 1479 l 1,32,-1
 1748 1546 l 1,21,-1
1582 1220 m 1,33,-1
 1582 1286 l 1,34,-1
 1679 1385 l 1,35,-1
 1744 1385 l 1,36,-1
 1807 1385 l 1,37,-1
 1894 1292 l 1,38,-1
 1894 1221 l 1,39,-1
 1894 1151 l 1,40,-1
 1802 1055 l 1,41,-1
 1738 1055 l 1,42,-1
 1675 1055 l 1,43,-1
 1582 1153 l 1,44,-1
 1582 1220 l 1,33,-1
1909 1222 m 1,45,-1
 1909 1288 l 1,46,-1
 2006 1387 l 1,47,-1
 2071 1387 l 1,48,-1
 2134 1387 l 1,49,-1
 2221 1294 l 1,50,-1
 2221 1223 l 1,51,-1
 2221 1153 l 1,52,-1
 2129 1057 l 1,53,-1
 2065 1057 l 1,54,-1
 2002 1057 l 1,55,-1
 1909 1155 l 1,56,-1
 1909 1222 l 1,45,-1
EndSplineSet
EndChar

StartChar: sheenfinal
Encoding: 65206 65206 141
Width: 2749
Flags: W
AnchorPoint: "ArabicBelow" 1374 -742 basechar 0
AnchorPoint: "ArabicAbove" 1374 1961 basechar 0
LayerCount: 2
Fore
SplineSet
2756 1 m 1,0,-1
 2724 1 l 1,1,-1
 2724 287 l 1,2,-1
 2756 287 l 1,3,-1
 2756 1 l 1,0,-1
2724 206 m 1,4,-1
 2724 1 l 1,5,-1
 2519 1 l 1,6,-1
 1495 1 l 1,7,-1
 1495 -287 l 1,8,-1
 1290 -492 l 1,9,-1
 389 -492 l 1,10,-1
 184 -287 l 1,11,-1
 184 614 l 1,12,-1
 594 614 l 1,13,-1
 594 -205 l 1,14,-1
 1085 -205 l 1,15,-1
 1085 778 l 1,16,-1
 1495 778 l 1,17,-1
 1495 287 l 1,18,-1
 1700 287 l 1,19,-1
 1700 778 l 1,20,-1
 2109 778 l 1,21,-1
 2109 287 l 1,22,-1
 2314 287 l 1,23,-1
 2314 778 l 1,24,-1
 2724 778 l 1,25,-1
 2724 206 l 1,4,-1
1748 1546 m 1,26,-1
 1748 1612 l 1,27,-1
 1845 1711 l 1,28,-1
 1910 1711 l 1,29,-1
 1973 1711 l 1,30,-1
 2060 1618 l 1,31,-1
 2060 1547 l 1,32,-1
 2060 1477 l 1,33,-1
 1968 1381 l 1,34,-1
 1904 1381 l 1,35,-1
 1841 1381 l 1,36,-1
 1748 1479 l 1,37,-1
 1748 1546 l 1,26,-1
1582 1220 m 1,38,-1
 1582 1286 l 1,39,-1
 1679 1385 l 1,40,-1
 1744 1385 l 1,41,-1
 1807 1385 l 1,42,-1
 1894 1292 l 1,43,-1
 1894 1221 l 1,44,-1
 1894 1151 l 1,45,-1
 1802 1055 l 1,46,-1
 1738 1055 l 1,47,-1
 1675 1055 l 1,48,-1
 1582 1153 l 1,49,-1
 1582 1220 l 1,38,-1
1909 1222 m 1,50,-1
 1909 1288 l 1,51,-1
 2006 1387 l 1,52,-1
 2071 1387 l 1,53,-1
 2134 1387 l 1,54,-1
 2221 1294 l 1,55,-1
 2221 1223 l 1,56,-1
 2221 1153 l 1,57,-1
 2129 1057 l 1,58,-1
 2065 1057 l 1,59,-1
 2002 1057 l 1,60,-1
 1909 1155 l 1,61,-1
 1909 1222 l 1,50,-1
EndSplineSet
EndChar

StartChar: sheeninitial
Encoding: 65207 65207 142
Width: 1876
Flags: W
AnchorPoint: "ArabicBelow" 938 -249 basechar 0
AnchorPoint: "ArabicAbove" 938 1961 basechar 0
LayerCount: 2
Fore
SplineSet
1843 206 m 1,0,-1
 1638 1 l 1,1,-1
 -31 1 l 1,2,-1
 -31 287 l 1,3,-1
 205 287 l 1,4,-1
 205 778 l 1,5,-1
 614 778 l 1,6,-1
 614 287 l 1,7,-1
 819 287 l 1,8,-1
 819 778 l 1,9,-1
 1229 778 l 1,10,-1
 1229 287 l 1,11,-1
 1434 287 l 1,12,-1
 1434 778 l 1,13,-1
 1843 778 l 1,14,-1
 1843 206 l 1,0,-1
868 1546 m 1,15,-1
 868 1612 l 1,16,-1
 965 1711 l 1,17,-1
 1030 1711 l 1,18,-1
 1093 1711 l 1,19,-1
 1180 1618 l 1,20,-1
 1180 1547 l 1,21,-1
 1180 1477 l 1,22,-1
 1088 1381 l 1,23,-1
 1024 1381 l 1,24,-1
 961 1381 l 1,25,-1
 868 1479 l 1,26,-1
 868 1546 l 1,15,-1
702 1220 m 1,27,-1
 702 1286 l 1,28,-1
 799 1385 l 1,29,-1
 864 1385 l 1,30,-1
 927 1385 l 1,31,-1
 1014 1292 l 1,32,-1
 1014 1221 l 1,33,-1
 1014 1151 l 1,34,-1
 922 1055 l 1,35,-1
 858 1055 l 1,36,-1
 795 1055 l 1,37,-1
 702 1153 l 1,38,-1
 702 1220 l 1,27,-1
1029 1222 m 1,39,-1
 1029 1288 l 1,40,-1
 1126 1387 l 1,41,-1
 1191 1387 l 1,42,-1
 1254 1387 l 1,43,-1
 1341 1294 l 1,44,-1
 1341 1223 l 1,45,-1
 1341 1153 l 1,46,-1
 1249 1057 l 1,47,-1
 1185 1057 l 1,48,-1
 1122 1057 l 1,49,-1
 1029 1155 l 1,50,-1
 1029 1222 l 1,39,-1
EndSplineSet
EndChar

StartChar: sheenmedial
Encoding: 65208 65208 143
Width: 1861
Flags: W
AnchorPoint: "ArabicBelow" 930 -249 basechar 0
AnchorPoint: "ArabicAbove" 930 1961 basechar 0
LayerCount: 2
Fore
SplineSet
1875 1 m 1,0,-1
 1843 1 l 1,1,-1
 1843 287 l 1,2,-1
 1875 287 l 1,3,-1
 1875 1 l 1,0,-1
1843 206 m 2,4,5
 1843 133 1843 133 1843 1 c 1,6,-1
 1638 1 l 1,7,-1
 -31 1 l 1,8,-1
 -31 287 l 1,9,-1
 205 287 l 1,10,-1
 205 778 l 1,11,-1
 614 778 l 1,12,-1
 614 287 l 1,13,-1
 819 287 l 1,14,-1
 819 778 l 1,15,-1
 1229 778 l 1,16,-1
 1229 287 l 1,17,-1
 1434 287 l 1,18,-1
 1434 778 l 1,19,-1
 1843 778 l 1,20,-1
 1843 206 l 2,4,5
868 1546 m 1,21,-1
 868 1612 l 1,22,-1
 965 1711 l 1,23,-1
 1030 1711 l 1,24,-1
 1093 1711 l 1,25,-1
 1180 1618 l 1,26,-1
 1180 1547 l 1,27,-1
 1180 1477 l 1,28,-1
 1088 1381 l 1,29,-1
 1024 1381 l 1,30,-1
 961 1381 l 1,31,-1
 868 1479 l 1,32,-1
 868 1546 l 1,21,-1
702 1220 m 1,33,-1
 702 1286 l 1,34,-1
 799 1385 l 1,35,-1
 864 1385 l 1,36,-1
 927 1385 l 1,37,-1
 1014 1292 l 1,38,-1
 1014 1221 l 1,39,-1
 1014 1151 l 1,40,-1
 922 1055 l 1,41,-1
 858 1055 l 1,42,-1
 795 1055 l 1,43,-1
 702 1153 l 1,44,-1
 702 1220 l 1,33,-1
1029 1222 m 1,45,-1
 1029 1288 l 1,46,-1
 1126 1387 l 1,47,-1
 1191 1387 l 1,48,-1
 1254 1387 l 1,49,-1
 1341 1294 l 1,50,-1
 1341 1223 l 1,51,-1
 1341 1153 l 1,52,-1
 1249 1057 l 1,53,-1
 1185 1057 l 1,54,-1
 1122 1057 l 1,55,-1
 1029 1155 l 1,56,-1
 1029 1222 l 1,45,-1
EndSplineSet
EndChar

StartChar: sadisolated
Encoding: 65209 65209 144
Width: 2867
Flags: W
AnchorPoint: "ArabicBelow" 1433 -742 basechar 0
AnchorPoint: "ArabicAbove" 1433 1028 basechar 0
LayerCount: 2
Fore
SplineSet
2847 206 m 1,0,-1
 2848 1 l 1,1,-1
 2642 1 l 1,2,-1
 1495 1 l 1,3,-1
 1495 -287 l 1,4,-1
 1290 -492 l 1,5,-1
 389 -492 l 1,6,-1
 184 -287 l 1,7,-1
 184 614 l 1,8,-1
 594 614 l 1,9,-1
 594 -205 l 1,10,-1
 1085 -205 l 1,11,-1
 1085 778 l 1,12,-1
 1495 778 l 1,13,-1
 1495 287 l 1,14,-1
 1777 639 l 2,15,16
 1888 778 1888 778 2056 778 c 2,17,-1
 2642 778 l 1,18,-1
 2847 574 l 1,19,-1
 2847 206 l 1,0,-1
2437 287 m 1,20,-1
 2437 492 l 1,21,-1
 2109 492 l 1,22,-1
 1946 287 l 1,23,-1
 2437 287 l 1,20,-1
EndSplineSet
EndChar

StartChar: sadfinal
Encoding: 65210 65210 145
Width: 2855
Flags: W
AnchorPoint: "ArabicBelow" 1427 -742 basechar 0
AnchorPoint: "ArabicAbove" 1427 1028 basechar 0
LayerCount: 2
Fore
SplineSet
2878 1 m 1,0,-1
 2847 1 l 1,1,-1
 2847 287 l 1,2,-1
 2878 287 l 1,3,-1
 2878 1 l 1,0,-1
2847 206 m 1,4,-1
 2848 1 l 1,5,-1
 2642 1 l 1,6,-1
 1495 1 l 1,7,-1
 1495 -287 l 1,8,-1
 1290 -492 l 1,9,-1
 389 -492 l 1,10,-1
 184 -287 l 1,11,-1
 184 614 l 1,12,-1
 594 614 l 1,13,-1
 594 -205 l 1,14,-1
 1085 -205 l 1,15,-1
 1085 778 l 1,16,-1
 1495 778 l 1,17,-1
 1495 287 l 1,18,-1
 1777 639 l 2,19,20
 1888 778 1888 778 2056 778 c 2,21,-1
 2642 778 l 1,22,-1
 2847 574 l 1,23,-1
 2847 206 l 1,4,-1
2437 287 m 1,24,-1
 2437 492 l 1,25,-1
 2109 492 l 1,26,-1
 1946 287 l 1,27,-1
 2437 287 l 1,24,-1
EndSplineSet
EndChar

StartChar: sadinitial
Encoding: 65211 65211 146
Width: 1983
Flags: W
AnchorPoint: "ArabicBelow" 991 -249 basechar 0
AnchorPoint: "ArabicAbove" 991 1028 basechar 0
LayerCount: 2
Fore
SplineSet
1966 206 m 1,0,-1
 1966 1 l 1,1,-1
 1761 1 l 1,2,-1
 -31 1 l 1,3,-1
 -31 287 l 1,4,-1
 205 287 l 1,5,-1
 205 778 l 1,6,-1
 614 778 l 1,7,-1
 614 287 l 1,8,-1
 896 639 l 2,9,10
 1007 778 1007 778 1176 778 c 2,11,-1
 1761 778 l 1,12,-1
 1966 574 l 1,13,-1
 1966 206 l 1,0,-1
1556 287 m 1,14,-1
 1556 492 l 1,15,-1
 1229 492 l 1,16,-1
 1065 287 l 1,17,-1
 1556 287 l 1,14,-1
EndSplineSet
EndChar

StartChar: sadmedial
Encoding: 65212 65212 147
Width: 1972
Flags: W
AnchorPoint: "ArabicBelow" 986 -249 basechar 0
AnchorPoint: "ArabicAbove" 986 1028 basechar 0
LayerCount: 2
Fore
SplineSet
1998 1 m 1,0,-1
 1966 1 l 1,1,-1
 1966 287 l 1,2,-1
 1998 287 l 1,3,-1
 1998 1 l 1,0,-1
1966 206 m 1,4,-1
 1966 1 l 1,5,-1
 1761 1 l 1,6,-1
 -31 1 l 1,7,-1
 -31 287 l 1,8,-1
 205 287 l 1,9,-1
 205 778 l 1,10,-1
 614 778 l 1,11,-1
 614 287 l 1,12,-1
 896 639 l 2,13,14
 1007 778 1007 778 1176 778 c 2,15,-1
 1761 778 l 1,16,-1
 1966 574 l 1,17,-1
 1966 206 l 1,4,-1
1556 287 m 1,18,-1
 1556 492 l 1,19,-1
 1229 492 l 1,20,-1
 1065 287 l 1,21,-1
 1556 287 l 1,18,-1
EndSplineSet
EndChar

StartChar: dadisolated
Encoding: 65213 65213 148
Width: 2867
Flags: W
AnchorPoint: "ArabicBelow" 1433 -742 basechar 0
AnchorPoint: "ArabicAbove" 1433 1558 basechar 0
LayerCount: 2
Fore
SplineSet
2847 206 m 1,0,-1
 2848 1 l 1,1,-1
 2642 1 l 1,2,-1
 1495 1 l 1,3,-1
 1495 -287 l 1,4,-1
 1290 -492 l 1,5,-1
 389 -492 l 1,6,-1
 184 -287 l 1,7,-1
 184 614 l 1,8,-1
 594 614 l 1,9,-1
 594 -205 l 1,10,-1
 1085 -205 l 1,11,-1
 1085 778 l 1,12,-1
 1495 778 l 1,13,-1
 1495 287 l 1,14,-1
 1777 639 l 2,15,16
 1888 778 1888 778 2056 778 c 2,17,-1
 2642 778 l 1,18,-1
 2847 574 l 1,19,-1
 2847 206 l 1,0,-1
2437 287 m 1,20,-1
 2437 492 l 1,21,-1
 2109 492 l 1,22,-1
 1946 287 l 1,23,-1
 2437 287 l 1,20,-1
2103 1143 m 1,24,-1
 2103 1209 l 1,25,-1
 2200 1308 l 1,26,-1
 2265 1308 l 1,27,-1
 2328 1308 l 1,28,-1
 2415 1215 l 1,29,-1
 2415 1144 l 1,30,-1
 2415 1074 l 1,31,-1
 2323 978 l 1,32,-1
 2259 978 l 1,33,-1
 2196 978 l 1,34,-1
 2103 1076 l 1,35,-1
 2103 1143 l 1,24,-1
EndSplineSet
EndChar

StartChar: dadfinal
Encoding: 65214 65214 149
Width: 2863
Flags: W
AnchorPoint: "ArabicBelow" 1431 -742 basechar 0
AnchorPoint: "ArabicAbove" 1431 1558 basechar 0
LayerCount: 2
Fore
SplineSet
2878 1 m 1,0,-1
 2847 1 l 1,1,-1
 2847 287 l 1,2,-1
 2878 287 l 1,3,-1
 2878 1 l 1,0,-1
2847 206 m 1,4,-1
 2848 1 l 1,5,-1
 2642 1 l 1,6,-1
 1495 1 l 1,7,-1
 1495 -287 l 1,8,-1
 1290 -492 l 1,9,-1
 389 -492 l 1,10,-1
 184 -287 l 1,11,-1
 184 614 l 1,12,-1
 594 614 l 1,13,-1
 594 -205 l 1,14,-1
 1085 -205 l 1,15,-1
 1085 778 l 1,16,-1
 1495 778 l 1,17,-1
 1495 287 l 1,18,-1
 1777 639 l 2,19,20
 1888 778 1888 778 2056 778 c 2,21,-1
 2642 778 l 1,22,-1
 2847 574 l 1,23,-1
 2847 206 l 1,4,-1
2437 287 m 1,24,-1
 2437 492 l 1,25,-1
 2109 492 l 1,26,-1
 1946 287 l 1,27,-1
 2437 287 l 1,24,-1
2103 1143 m 1,28,-1
 2103 1209 l 1,29,-1
 2200 1308 l 1,30,-1
 2265 1308 l 1,31,-1
 2328 1308 l 1,32,-1
 2415 1215 l 1,33,-1
 2415 1144 l 1,34,-1
 2415 1074 l 1,35,-1
 2323 978 l 1,36,-1
 2259 978 l 1,37,-1
 2196 978 l 1,38,-1
 2103 1076 l 1,39,-1
 2103 1143 l 1,28,-1
EndSplineSet
EndChar

StartChar: dadinitial
Encoding: 65215 65215 150
Width: 1983
Flags: W
AnchorPoint: "ArabicBelow" 991 -249 basechar 0
AnchorPoint: "ArabicAbove" 991 1558 basechar 0
LayerCount: 2
Fore
SplineSet
1966 206 m 1,0,-1
 1966 1 l 1,1,-1
 1761 1 l 1,2,-1
 -31 1 l 1,3,-1
 -31 287 l 1,4,-1
 205 287 l 1,5,-1
 205 778 l 1,6,-1
 614 778 l 1,7,-1
 614 287 l 1,8,-1
 896 639 l 2,9,10
 1007 778 1007 778 1176 778 c 2,11,-1
 1761 778 l 1,12,-1
 1966 574 l 1,13,-1
 1966 206 l 1,0,-1
1556 287 m 1,14,-1
 1556 492 l 1,15,-1
 1229 492 l 1,16,-1
 1065 287 l 1,17,-1
 1556 287 l 1,14,-1
1233 1143 m 1,18,-1
 1233 1209 l 1,19,-1
 1330 1308 l 1,20,-1
 1395 1308 l 1,21,-1
 1458 1308 l 1,22,-1
 1545 1215 l 1,23,-1
 1545 1144 l 1,24,-1
 1545 1074 l 1,25,-1
 1453 978 l 1,26,-1
 1389 978 l 1,27,-1
 1326 978 l 1,28,-1
 1233 1076 l 1,29,-1
 1233 1143 l 1,18,-1
EndSplineSet
EndChar

StartChar: dadmedial
Encoding: 65216 65216 151
Width: 1990
Flags: W
AnchorPoint: "ArabicBelow" 995 -249 basechar 0
AnchorPoint: "ArabicAbove" 995 1558 basechar 0
LayerCount: 2
Fore
SplineSet
1998 1 m 1,0,-1
 1966 1 l 1,1,-1
 1966 287 l 1,2,-1
 1998 287 l 1,3,-1
 1998 1 l 1,0,-1
1966 206 m 1,4,-1
 1966 1 l 1,5,-1
 1761 1 l 1,6,-1
 -31 1 l 1,7,-1
 -31 287 l 1,8,-1
 205 287 l 1,9,-1
 205 778 l 1,10,-1
 614 778 l 1,11,-1
 614 287 l 1,12,-1
 896 639 l 2,13,14
 1007 778 1007 778 1176 778 c 2,15,-1
 1761 778 l 1,16,-1
 1966 574 l 1,17,-1
 1966 206 l 1,4,-1
1556 287 m 1,18,-1
 1556 492 l 1,19,-1
 1229 492 l 1,20,-1
 1065 287 l 1,21,-1
 1556 287 l 1,18,-1
1233 1143 m 1,22,-1
 1233 1209 l 1,23,-1
 1330 1308 l 1,24,-1
 1395 1308 l 1,25,-1
 1458 1308 l 1,26,-1
 1545 1215 l 1,27,-1
 1545 1144 l 1,28,-1
 1545 1074 l 1,29,-1
 1453 978 l 1,30,-1
 1389 978 l 1,31,-1
 1326 978 l 1,32,-1
 1233 1076 l 1,33,-1
 1233 1143 l 1,22,-1
EndSplineSet
EndChar

StartChar: tahisolated
Encoding: 65217 65217 152
Width: 1743
Flags: W
AnchorPoint: "ArabicBelow" 871 -249 basechar 0
AnchorPoint: "ArabicAbove" 871 1806 basechar 0
LayerCount: 2
Fore
SplineSet
1712 206 m 1,0,-1
 1712 1 l 1,1,-1
 1508 1 l 1,2,-1
 93 1 l 1,3,-1
 93 144 l 1,4,-1
 196 287 l 1,5,-1
 359 287 l 1,6,-1
 640 639 l 1,7,-1
 751 778 l 1,8,-1
 843 778 l 1,9,-1
 843 1556 l 1,10,-1
 1253 1556 l 1,11,-1
 1253 982 l 1,12,-1
 1253 778 l 1,13,-1
 1508 778 l 1,14,-1
 1712 574 l 1,15,-1
 1712 206 l 1,0,-1
1303 287 m 1,16,-1
 1303 502 l 1,17,-1
 963 502 l 1,18,-1
 809 287 l 1,19,-1
 1303 287 l 1,16,-1
EndSplineSet
EndChar

StartChar: tahfinal
Encoding: 65218 65218 153
Width: 1721
Flags: W
AnchorPoint: "ArabicBelow" 860 -249 basechar 0
AnchorPoint: "ArabicAbove" 860 1806 basechar 0
LayerCount: 2
Fore
SplineSet
1734 1 m 1,0,-1
 1702 1 l 1,1,-1
 1702 287 l 1,2,-1
 1734 287 l 1,3,-1
 1734 1 l 1,0,-1
1702 206 m 1,4,-1
 1702 1 l 1,5,-1
 1498 1 l 1,6,-1
 83 1 l 1,7,-1
 83 144 l 1,8,-1
 186 287 l 1,9,-1
 349 287 l 1,10,-1
 630 639 l 1,11,-1
 741 778 l 1,12,-1
 833 778 l 1,13,-1
 833 1556 l 1,14,-1
 1243 1556 l 1,15,-1
 1243 982 l 1,16,-1
 1243 778 l 1,17,-1
 1498 778 l 1,18,-1
 1702 574 l 1,19,-1
 1702 206 l 1,4,-1
1293 287 m 1,20,-1
 1293 502 l 1,21,-1
 953 502 l 1,22,-1
 799 287 l 1,23,-1
 1293 287 l 1,20,-1
EndSplineSet
EndChar

StartChar: tahinitial
Encoding: 65219 65219 154
Width: 1687
Flags: W
AnchorPoint: "ArabicBelow" 843 -249 basechar 0
AnchorPoint: "ArabicAbove" 843 1806 basechar 0
LayerCount: 2
Fore
SplineSet
1562 206 m 1,0,-1
 1562 1 l 1,1,-1
 1358 1 l 1,2,-1
 -57 1 l 1,3,-1
 -57 287 l 1,4,-1
 209 287 l 1,5,-1
 490 639 l 1,6,-1
 601 778 l 1,7,-1
 693 778 l 1,8,-1
 693 1556 l 1,9,-1
 1103 1556 l 1,10,-1
 1103 982 l 1,11,-1
 1103 778 l 1,12,-1
 1358 778 l 1,13,-1
 1562 574 l 1,14,-1
 1562 206 l 1,0,-1
1153 287 m 1,15,-1
 1153 502 l 1,16,-1
 813 502 l 1,17,-1
 659 287 l 1,18,-1
 1153 287 l 1,15,-1
EndSplineSet
EndChar

StartChar: tahmedial
Encoding: 65220 65220 155
Width: 1609
Flags: W
AnchorPoint: "ArabicBelow" 804 -249 basechar 0
AnchorPoint: "ArabicAbove" 804 1806 basechar 0
LayerCount: 2
Fore
SplineSet
1624 1 m 1,0,-1
 1592 1 l 1,1,-1
 1592 287 l 1,2,-1
 1624 287 l 1,3,-1
 1624 1 l 1,0,-1
1592 206 m 1,4,-1
 1592 1 l 1,5,-1
 1388 1 l 1,6,-1
 -27 1 l 1,7,-1
 -27 287 l 1,8,-1
 239 287 l 1,9,-1
 520 639 l 1,10,-1
 631 778 l 1,11,-1
 723 778 l 1,12,-1
 723 1556 l 1,13,-1
 1133 1556 l 1,14,-1
 1133 982 l 1,15,-1
 1133 778 l 1,16,-1
 1388 778 l 1,17,-1
 1592 574 l 1,18,-1
 1592 206 l 1,4,-1
1183 287 m 1,19,-1
 1183 502 l 1,20,-1
 843 502 l 1,21,-1
 689 287 l 1,22,-1
 1183 287 l 1,19,-1
EndSplineSet
EndChar

StartChar: zahisolated
Encoding: 65221 65221 156
Width: 1740
Flags: W
AnchorPoint: "ArabicBelow" 870 -249 basechar 0
AnchorPoint: "ArabicAbove" 870 1806 basechar 0
LayerCount: 2
Fore
SplineSet
1712 206 m 1,0,-1
 1712 1 l 1,1,-1
 1508 1 l 1,2,-1
 93 1 l 1,3,-1
 93 144 l 1,4,-1
 196 287 l 1,5,-1
 359 287 l 1,6,-1
 640 639 l 1,7,-1
 751 778 l 1,8,-1
 843 778 l 1,9,-1
 843 1556 l 1,10,-1
 1253 1556 l 1,11,-1
 1253 982 l 1,12,-1
 1253 778 l 1,13,-1
 1508 778 l 1,14,-1
 1712 574 l 1,15,-1
 1712 206 l 1,0,-1
1303 287 m 1,16,-1
 1303 502 l 1,17,-1
 963 502 l 1,18,-1
 809 287 l 1,19,-1
 1303 287 l 1,16,-1
1363 1143 m 1,20,-1
 1363 1209 l 1,21,-1
 1460 1308 l 1,22,-1
 1525 1308 l 1,23,-1
 1588 1308 l 1,24,-1
 1675 1215 l 1,25,-1
 1675 1144 l 1,26,-1
 1675 1074 l 1,27,-1
 1583 978 l 1,28,-1
 1519 978 l 1,29,-1
 1456 978 l 1,30,-1
 1363 1076 l 1,31,-1
 1363 1143 l 1,20,-1
EndSplineSet
EndChar

StartChar: zahfinal
Encoding: 65222 65222 157
Width: 1823
Flags: W
AnchorPoint: "ArabicBelow" 911 -249 basechar 0
AnchorPoint: "ArabicAbove" 911 1806 basechar 0
LayerCount: 2
Fore
SplineSet
1834 1 m 1,0,-1
 1802 1 l 1,1,-1
 1802 287 l 1,2,-1
 1834 287 l 1,3,-1
 1834 1 l 1,0,-1
1802 206 m 1,4,-1
 1802 1 l 1,5,-1
 1598 1 l 1,6,-1
 183 1 l 1,7,-1
 183 144 l 1,8,-1
 286 287 l 1,9,-1
 449 287 l 1,10,-1
 730 639 l 1,11,-1
 841 778 l 1,12,-1
 933 778 l 1,13,-1
 933 1556 l 1,14,-1
 1343 1556 l 1,15,-1
 1343 982 l 1,16,-1
 1343 778 l 1,17,-1
 1598 778 l 1,18,-1
 1802 574 l 1,19,-1
 1802 206 l 1,4,-1
1393 287 m 1,20,-1
 1393 502 l 1,21,-1
 1053 502 l 1,22,-1
 899 287 l 1,23,-1
 1393 287 l 1,20,-1
1453 1143 m 1,24,-1
 1453 1209 l 1,25,-1
 1550 1308 l 1,26,-1
 1615 1308 l 1,27,-1
 1678 1308 l 1,28,-1
 1765 1215 l 1,29,-1
 1765 1144 l 1,30,-1
 1765 1074 l 1,31,-1
 1673 978 l 1,32,-1
 1609 978 l 1,33,-1
 1546 978 l 1,34,-1
 1453 1076 l 1,35,-1
 1453 1143 l 1,24,-1
EndSplineSet
EndChar

StartChar: zahinitial
Encoding: 65223 65223 158
Width: 1624
Flags: W
AnchorPoint: "ArabicBelow" 812 -249 basechar 0
AnchorPoint: "ArabicAbove" 812 1806 basechar 0
LayerCount: 2
Fore
SplineSet
1562 206 m 1,0,-1
 1562 1 l 1,1,-1
 1358 1 l 1,2,-1
 -57 1 l 1,3,-1
 -57 287 l 1,4,-1
 209 287 l 1,5,-1
 490 639 l 1,6,-1
 601 778 l 1,7,-1
 693 778 l 1,8,-1
 693 1556 l 1,9,-1
 1103 1556 l 1,10,-1
 1103 982 l 1,11,-1
 1103 778 l 1,12,-1
 1358 778 l 1,13,-1
 1562 574 l 1,14,-1
 1562 206 l 1,0,-1
1153 287 m 1,15,-1
 1153 502 l 1,16,-1
 813 502 l 1,17,-1
 659 287 l 1,18,-1
 1153 287 l 1,15,-1
1203 1143 m 1,19,-1
 1203 1209 l 1,20,-1
 1300 1308 l 1,21,-1
 1365 1308 l 1,22,-1
 1428 1308 l 1,23,-1
 1515 1215 l 1,24,-1
 1515 1144 l 1,25,-1
 1515 1074 l 1,26,-1
 1423 978 l 1,27,-1
 1359 978 l 1,28,-1
 1296 978 l 1,29,-1
 1203 1076 l 1,30,-1
 1203 1143 l 1,19,-1
EndSplineSet
EndChar

StartChar: zahmedial
Encoding: 65224 65224 159
Width: 1609
Flags: W
AnchorPoint: "ArabicBelow" 804 -249 basechar 0
AnchorPoint: "ArabicAbove" 804 1806 basechar 0
LayerCount: 2
Fore
SplineSet
1624 1 m 1,0,-1
 1592 1 l 1,1,-1
 1592 287 l 1,2,-1
 1624 287 l 1,3,-1
 1624 1 l 1,0,-1
1592 206 m 1,4,-1
 1592 1 l 1,5,-1
 1388 1 l 1,6,-1
 -27 1 l 1,7,-1
 -27 287 l 1,8,-1
 239 287 l 1,9,-1
 520 639 l 1,10,-1
 631 778 l 1,11,-1
 723 778 l 1,12,-1
 723 1556 l 1,13,-1
 1133 1556 l 1,14,-1
 1133 982 l 1,15,-1
 1133 778 l 1,16,-1
 1388 778 l 1,17,-1
 1592 574 l 1,18,-1
 1592 206 l 1,4,-1
1183 287 m 1,19,-1
 1183 502 l 1,20,-1
 843 502 l 1,21,-1
 689 287 l 1,22,-1
 1183 287 l 1,19,-1
1243 1143 m 1,23,-1
 1243 1209 l 1,24,-1
 1340 1308 l 1,25,-1
 1405 1308 l 1,26,-1
 1468 1308 l 1,27,-1
 1555 1215 l 1,28,-1
 1555 1144 l 1,29,-1
 1555 1074 l 1,30,-1
 1463 978 l 1,31,-1
 1399 978 l 1,32,-1
 1336 978 l 1,33,-1
 1243 1076 l 1,34,-1
 1243 1143 l 1,23,-1
EndSplineSet
EndChar

StartChar: ainisolated
Encoding: 65225 65225 160
Width: 1558
Flags: W
AnchorPoint: "ArabicBelow" 779 -742 basechar 0
AnchorPoint: "ArabicAbove" 779 1028 basechar 0
LayerCount: 2
Fore
SplineSet
1416 1 m 1,0,-1
 594 1 l 1,1,-1
 594 -246 l 1,2,-1
 721 -373 l 1,3,-1
 1238 -373 l 1,4,-1
 1238 -492 l 1,5,-1
 389 -492 l 1,6,-1
 184 -287 l 1,7,-1
 184 82 l 1,8,-1
 389 287 l 1,9,-1
 594 287 l 1,10,-1
 594 574 l 1,11,-1
 799 778 l 1,12,-1
 1413 778 l 1,13,-1
 1413 492 l 1,14,-1
 1004 492 l 1,15,-1
 1004 287 l 1,16,-1
 1416 287 l 1,17,-1
 1416 1 l 1,0,-1
EndSplineSet
EndChar

StartChar: ainfinal
Encoding: 65226 65226 161
Width: 1544
Flags: W
AnchorPoint: "ArabicBelow" 772 -742 basechar 0
AnchorPoint: "ArabicAbove" 772 1028 basechar 0
LayerCount: 2
Fore
SplineSet
1566 1 m 1,0,-1
 594 1 l 1,1,-1
 594 -236 l 1,2,-1
 733 -371 l 1,3,-1
 1229 -371 l 1,4,-1
 1229 -492 l 1,5,-1
 389 -492 l 1,6,-1
 184 -287 l 1,7,-1
 184 82 l 1,8,-1
 389 287 l 1,9,-1
 594 287 l 1,10,-1
 594 574 l 1,11,-1
 799 778 l 1,12,-1
 1536 778 l 1,13,-1
 1536 492 l 1,14,-1
 1331 287 l 1,15,-1
 1566 287 l 1,16,-1
 1566 1 l 1,0,-1
1208 492 m 1,17,-1
 1004 492 l 1,18,-1
 1004 287 l 1,19,-1
 1208 492 l 1,17,-1
EndSplineSet
EndChar

StartChar: aininitial
Encoding: 65227 65227 162
Width: 1165
Flags: W
AnchorPoint: "ArabicBelow" 582 -249 basechar 0
AnchorPoint: "ArabicAbove" 582 1028 basechar 0
LayerCount: 2
Fore
SplineSet
1147 1 m 1,0,-1
 -31 1 l 1,1,-1
 -31 287 l 1,2,-1
 205 287 l 1,3,-1
 205 574 l 1,4,-1
 410 778 l 1,5,-1
 1024 778 l 1,6,-1
 1024 492 l 1,7,-1
 614 492 l 1,8,-1
 614 287 l 1,9,-1
 1147 287 l 1,10,-1
 1147 1 l 1,0,-1
EndSplineSet
EndChar

StartChar: ainmedial
Encoding: 65228 65228 163
Width: 1159
Flags: W
AnchorPoint: "ArabicBelow" 579 -249 basechar 0
AnchorPoint: "ArabicAbove" 579 1028 basechar 0
LayerCount: 2
Fore
SplineSet
1177 1 m 1,0,-1
 -31 1 l 1,1,-1
 -31 287 l 1,2,-1
 205 287 l 1,3,-1
 205 574 l 1,4,-1
 410 778 l 1,5,-1
 1147 778 l 1,6,-1
 1147 492 l 1,7,-1
 942 287 l 1,8,-1
 1177 287 l 1,9,-1
 1177 1 l 1,0,-1
819 492 m 1,10,-1
 614 492 l 1,11,-1
 614 287 l 1,12,-1
 819 492 l 1,10,-1
EndSplineSet
EndChar

StartChar: ghainisolated
Encoding: 65229 65229 164
Width: 1518
Flags: W
AnchorPoint: "ArabicBelow" 759 -742 basechar 0
AnchorPoint: "ArabicAbove" 759 1558 basechar 0
LayerCount: 2
Fore
SplineSet
923 1143 m 1,0,-1
 923 1209 l 1,1,-1
 1020 1308 l 1,2,-1
 1085 1308 l 1,3,-1
 1148 1308 l 1,4,-1
 1235 1215 l 1,5,-1
 1235 1144 l 1,6,-1
 1235 1074 l 1,7,-1
 1143 978 l 1,8,-1
 1079 978 l 1,9,-1
 1016 978 l 1,10,-1
 923 1076 l 1,11,-1
 923 1143 l 1,0,-1
1416 1 m 1,12,-1
 594 1 l 1,13,-1
 594 -246 l 1,14,-1
 594 -326 l 1,15,-1
 747 -373 l 1,16,-1
 1238 -373 l 1,17,-1
 1238 -492 l 1,18,-1
 389 -492 l 1,19,-1
 184 -287 l 1,20,-1
 184 82 l 1,21,-1
 389 287 l 1,22,-1
 594 287 l 1,23,-1
 594 574 l 1,24,-1
 799 778 l 1,25,-1
 1413 778 l 1,26,-1
 1413 492 l 1,27,-1
 1004 492 l 1,28,-1
 1004 287 l 1,29,-1
 1416 287 l 1,30,-1
 1416 1 l 1,12,-1
923 1143 m 1,31,-1
 923 1209 l 1,32,-1
 1020 1308 l 1,33,-1
 1085 1308 l 1,34,-1
 1148 1308 l 1,35,-1
 1235 1215 l 1,36,-1
 1235 1144 l 1,37,-1
 1235 1074 l 1,38,-1
 1143 978 l 1,39,-1
 1079 978 l 1,40,-1
 1016 978 l 1,41,-1
 923 1076 l 1,42,-1
 923 1143 l 1,31,-1
EndSplineSet
EndChar

StartChar: ghainfinal
Encoding: 65230 65230 165
Width: 1543
Flags: W
AnchorPoint: "ArabicBelow" 771 -742 basechar 0
AnchorPoint: "ArabicAbove" 771 1558 basechar 0
LayerCount: 2
Fore
SplineSet
1566 1 m 1,0,-1
 594 1 l 1,1,-1
 594 -246 l 1,2,-1
 594 -326 l 1,3,-1
 719 -381 l 1,4,-1
 1229 -381 l 1,5,-1
 1229 -492 l 1,6,-1
 389 -492 l 1,7,-1
 184 -287 l 1,8,-1
 184 82 l 1,9,-1
 389 287 l 1,10,-1
 594 287 l 1,11,-1
 594 574 l 1,12,-1
 799 778 l 1,13,-1
 1536 778 l 1,14,-1
 1536 492 l 1,15,-1
 1331 287 l 1,16,-1
 1566 287 l 1,17,-1
 1566 1 l 1,0,-1
1208 492 m 1,18,-1
 1004 492 l 1,19,-1
 1004 287 l 1,20,-1
 1208 492 l 1,18,-1
923 1143 m 1,21,-1
 923 1209 l 1,22,-1
 1020 1308 l 1,23,-1
 1085 1308 l 1,24,-1
 1148 1308 l 1,25,-1
 1235 1215 l 1,26,-1
 1235 1144 l 1,27,-1
 1235 1074 l 1,28,-1
 1143 978 l 1,29,-1
 1079 978 l 1,30,-1
 1016 978 l 1,31,-1
 923 1076 l 1,32,-1
 923 1143 l 1,21,-1
EndSplineSet
EndChar

StartChar: ghaininitial
Encoding: 65231 65231 166
Width: 1173
Flags: W
AnchorPoint: "ArabicBelow" 586 -249 basechar 0
AnchorPoint: "ArabicAbove" 586 1558 basechar 0
LayerCount: 2
Fore
SplineSet
1147 1 m 1,0,-1
 -31 1 l 1,1,-1
 -31 287 l 1,2,-1
 205 287 l 1,3,-1
 205 574 l 1,4,-1
 410 778 l 1,5,-1
 1024 778 l 1,6,-1
 1024 492 l 1,7,-1
 614 492 l 1,8,-1
 614 287 l 1,9,-1
 1147 287 l 1,10,-1
 1147 1 l 1,0,-1
542 1143 m 1,11,-1
 542 1209 l 1,12,-1
 639 1308 l 1,13,-1
 704 1308 l 1,14,-1
 767 1308 l 1,15,-1
 854 1215 l 1,16,-1
 854 1144 l 1,17,-1
 854 1074 l 1,18,-1
 762 978 l 1,19,-1
 698 978 l 1,20,-1
 635 978 l 1,21,-1
 542 1076 l 1,22,-1
 542 1143 l 1,11,-1
EndSplineSet
EndChar

StartChar: ghainmedial
Encoding: 65232 65232 167
Width: 1165
Flags: W
AnchorPoint: "ArabicBelow" 582 -249 basechar 0
AnchorPoint: "ArabicAbove" 582 1558 basechar 0
LayerCount: 2
Fore
SplineSet
1177 1 m 1,0,-1
 -31 1 l 1,1,-1
 -31 287 l 1,2,-1
 205 287 l 1,3,-1
 205 574 l 1,4,-1
 410 778 l 1,5,-1
 1147 778 l 1,6,-1
 1147 492 l 1,7,-1
 942 287 l 1,8,-1
 1177 287 l 1,9,-1
 1177 1 l 1,0,-1
819 492 m 1,10,-1
 614 492 l 1,11,-1
 614 287 l 1,12,-1
 819 492 l 1,10,-1
542 1143 m 1,13,-1
 542 1209 l 1,14,-1
 639 1308 l 1,15,-1
 704 1308 l 1,16,-1
 767 1308 l 1,17,-1
 854 1215 l 1,18,-1
 854 1144 l 1,19,-1
 854 1074 l 1,20,-1
 762 978 l 1,21,-1
 698 978 l 1,22,-1
 635 978 l 1,23,-1
 542 1076 l 1,24,-1
 542 1143 l 1,13,-1
EndSplineSet
EndChar

StartChar: fehisolated
Encoding: 65233 65233 168
Width: 1909
Flags: W
AnchorPoint: "ArabicBelow" 954 -742 basechar 0
AnchorPoint: "ArabicAbove" 954 1687 basechar 0
LayerCount: 2
Fore
SplineSet
1906 -287 m 1,0,-1
 1701 -492 l 1,1,-1
 389 -492 l 1,2,-1
 184 -288 l 1,3,-1
 184 613 l 1,4,-1
 594 613 l 1,5,-1
 594 -205 l 1,6,-1
 1496 -205 l 1,7,-1
 1496 0 l 1,8,-1
 1084 0 l 1,9,-1
 880 0 l 1,10,-1
 880 205 l 1,11,-1
 880 694 l 1,12,-1
 1084 898 l 1,13,-1
 1701 898 l 1,14,-1
 1906 694 l 1,15,-1
 1906 -287 l 1,0,-1
1547 305 m 1,16,-1
 1547 597 l 1,17,-1
 1255 597 l 1,18,-1
 1255 305 l 1,19,20
 1547 305 l 1,16,-1
1289 1272 m 1,21,-1
 1289 1338 l 1,22,-1
 1386 1437 l 1,23,-1
 1451 1437 l 1,24,-1
 1514 1437 l 1,25,-1
 1601 1344 l 1,26,-1
 1601 1273 l 1,27,-1
 1601 1203 l 1,28,-1
 1509 1107 l 1,29,-1
 1445 1107 l 1,30,-1
 1382 1107 l 1,31,-1
 1289 1205 l 1,32,-1
 1289 1272 l 1,21,-1
EndSplineSet
EndChar

StartChar: fehfinal
Encoding: 65234 65234 169
Width: 2036
Flags: W
AnchorPoint: "ArabicBelow" 1018 -249 basechar 0
AnchorPoint: "ArabicAbove" 1018 1837 basechar 0
LayerCount: 2
Fore
SplineSet
2053 1 m 1,0,-1
 2021 1 l 1,1,-1
 2021 287 l 1,2,-1
 2053 287 l 1,3,-1
 2053 1 l 1,0,-1
2025 1 m 1,4,-1
 269 1 l 1,5,-1
 64 205 l 1,6,-1
 64 766 l 1,7,-1
 474 766 l 1,8,-1
 474 288 l 1,9,-1
 1616 288 l 1,10,-1
 1616 383 l 1,11,-1
 1010 383 l 1,12,-1
 1010 917 l 1,13,-1
 1214 1121 l 1,14,-1
 2025 1121 l 1,15,-1
 2025 1 l 1,4,-1
1687 628 m 1,16,-1
 1687 820 l 1,17,-1
 1355 820 l 1,18,-1
 1355 628 l 1,19,-1
 1687 628 l 1,16,-1
1397 1488 m 1,20,-1
 1494 1587 l 1,21,-1
 1622 1587 l 1,22,-1
 1709 1494 l 1,23,-1
 1709 1353 l 1,24,-1
 1617 1257 l 1,25,-1
 1490 1257 l 1,26,-1
 1397 1355 l 1,27,-1
 1397 1488 l 1,20,-1
EndSplineSet
EndChar

StartChar: fehinitial
Encoding: 65235 65235 170
Width: 1241
Flags: W
AnchorPoint: "ArabicBelow" 620 -250 basechar 0
AnchorPoint: "ArabicAbove" 620 1617 basechar 0
LayerCount: 2
Fore
SplineSet
1230 205 m 1,0,-1
 1025 0 l 1,1,-1
 -31 0 l 1,2,-1
 -31 287 l 1,3,-1
 323 287 l 1,4,-1
 204 406 l 1,5,-1
 204 492 l 1,6,-1
 204 697 l 1,7,-1
 409 901 l 1,8,-1
 1025 901 l 1,9,-1
 1230 697 l 1,10,-1
 1230 205 l 1,0,-1
819 287 m 1,11,-1
 819 614 l 1,12,-1
 613 614 l 1,13,-1
 613 492 l 1,14,-1
 613 406 l 1,15,-1
 733 287 l 1,16,-1
 819 287 l 1,11,-1
568 1202 m 1,17,-1
 568 1268 l 1,18,-1
 665 1367 l 1,19,-1
 730 1367 l 1,20,-1
 793 1367 l 1,21,-1
 880 1274 l 1,22,-1
 880 1203 l 1,23,-1
 880 1133 l 1,24,-1
 788 1037 l 1,25,-1
 724 1037 l 1,26,-1
 661 1037 l 1,27,-1
 568 1135 l 1,28,-1
 568 1202 l 1,17,-1
EndSplineSet
EndChar

StartChar: fehmedial
Encoding: 65236 65236 171
Width: 1250
Flags: W
AnchorPoint: "ArabicBelow" 625 -250 basechar 0
AnchorPoint: "ArabicAbove" 625 1617 basechar 0
LayerCount: 2
Fore
SplineSet
1260 1 m 1,0,-1
 1228 1 l 1,1,-1
 1228 287 l 1,2,-1
 1260 287 l 1,3,-1
 1260 1 l 1,0,-1
1230 205 m 1,4,-1
 1230 0 l 1,5,-1
 -31 0 l 1,6,-1
 -31 287 l 1,7,-1
 323 287 l 1,8,-1
 204 406 l 1,9,-1
 204 492 l 1,10,-1
 204 697 l 1,11,-1
 409 901 l 1,12,-1
 1025 901 l 1,13,-1
 1230 697 l 1,14,-1
 1230 205 l 1,4,-1
819 287 m 1,15,-1
 819 614 l 1,16,-1
 613 614 l 1,17,-1
 613 492 l 1,18,-1
 613 406 l 1,19,-1
 733 287 l 1,20,-1
 819 287 l 1,15,-1
568 1202 m 1,21,-1
 568 1268 l 1,22,-1
 665 1367 l 1,23,-1
 730 1367 l 1,24,-1
 793 1367 l 1,25,-1
 880 1274 l 1,26,-1
 880 1203 l 1,27,-1
 880 1133 l 1,28,-1
 788 1037 l 1,29,-1
 724 1037 l 1,30,-1
 661 1037 l 1,31,-1
 568 1135 l 1,32,-1
 568 1202 l 1,21,-1
EndSplineSet
EndChar

StartChar: qafisolated
Encoding: 65237 65237 172
Width: 1911
Flags: W
AnchorPoint: "ArabicBelow" 955 -742 basechar 0
AnchorPoint: "ArabicAbove" 955 1687 basechar 0
LayerCount: 2
Fore
SplineSet
1906 -287 m 1,0,-1
 1701 -492 l 1,1,-1
 389 -492 l 1,2,-1
 184 -288 l 1,3,-1
 184 613 l 1,4,-1
 594 613 l 1,5,-1
 594 -205 l 1,6,-1
 1496 -205 l 1,7,-1
 1496 0 l 1,8,-1
 1084 0 l 1,9,-1
 880 0 l 1,10,-1
 880 205 l 1,11,-1
 880 694 l 1,12,-1
 1084 898 l 1,13,-1
 1701 898 l 1,14,-1
 1906 694 l 1,15,-1
 1906 -287 l 1,0,-1
1547 305 m 1,16,-1
 1547 597 l 1,17,-1
 1255 597 l 1,18,-1
 1255 305 l 1,19,20
 1547 305 l 1,16,-1
1072 1270 m 1,21,-1
 1072 1336 l 1,22,-1
 1169 1435 l 1,23,-1
 1234 1435 l 1,24,-1
 1297 1435 l 1,25,-1
 1384 1342 l 1,26,-1
 1384 1271 l 1,27,-1
 1384 1201 l 1,28,-1
 1292 1105 l 1,29,-1
 1228 1105 l 1,30,-1
 1165 1105 l 1,31,-1
 1072 1203 l 1,32,-1
 1072 1270 l 1,21,-1
1399 1272 m 1,33,-1
 1399 1338 l 1,34,-1
 1496 1437 l 1,35,-1
 1561 1437 l 1,36,-1
 1624 1437 l 1,37,-1
 1711 1344 l 1,38,-1
 1711 1273 l 1,39,-1
 1711 1203 l 1,40,-1
 1619 1107 l 1,41,-1
 1555 1107 l 1,42,-1
 1492 1107 l 1,43,-1
 1399 1205 l 1,44,-1
 1399 1272 l 1,33,-1
EndSplineSet
EndChar

StartChar: qaffinal
Encoding: 65238 65238 173
Width: 2036
Flags: W
AnchorPoint: "ArabicBelow" 1018 -252 basechar 0
AnchorPoint: "ArabicAbove" 1018 1807 basechar 0
LayerCount: 2
Fore
SplineSet
2053 1 m 1,0,-1
 2021 1 l 1,1,-1
 2021 287 l 1,2,-1
 2053 287 l 1,3,-1
 2053 1 l 1,0,-1
2026 203 m 1,4,-1
 2025 -2 l 1,5,-1
 1821 -2 l 1,6,-1
 269 -2 l 1,7,-1
 64 202 l 1,8,-1
 64 763 l 1,9,-1
 474 763 l 1,10,-1
 474 285 l 1,11,-1
 1616 285 l 1,12,-1
 1616 380 l 1,13,-1
 1214 380 l 1,14,-1
 1010 380 l 1,15,-1
 1010 914 l 1,16,-1
 1214 1118 l 1,17,-1
 2026 1118 l 1,18,-1
 2026 203 l 1,4,-1
1687 625 m 1,19,-1
 1687 817 l 1,20,-1
 1355 817 l 1,21,-1
 1355 625 l 1,22,-1
 1687 625 l 1,19,-1
1262 1390 m 1,23,-1
 1262 1456 l 1,24,-1
 1359 1555 l 1,25,-1
 1424 1555 l 1,26,-1
 1487 1555 l 1,27,-1
 1574 1462 l 1,28,-1
 1574 1391 l 1,29,-1
 1574 1321 l 1,30,-1
 1482 1225 l 1,31,-1
 1418 1225 l 1,32,-1
 1355 1225 l 1,33,-1
 1262 1323 l 1,34,-1
 1262 1390 l 1,23,-1
1589 1392 m 1,35,-1
 1589 1458 l 1,36,-1
 1686 1557 l 1,37,-1
 1751 1557 l 1,38,-1
 1814 1557 l 1,39,-1
 1901 1464 l 1,40,-1
 1901 1393 l 1,41,-1
 1901 1323 l 1,42,-1
 1809 1227 l 1,43,-1
 1745 1227 l 1,44,-1
 1682 1227 l 1,45,-1
 1589 1325 l 1,46,-1
 1589 1392 l 1,35,-1
EndSplineSet
EndChar

StartChar: qafinitial
Encoding: 65239 65239 174
Width: 1234
Flags: W
AnchorPoint: "ArabicBelow" 617 -250 basechar 0
AnchorPoint: "ArabicAbove" 617 1619 basechar 0
LayerCount: 2
Fore
SplineSet
1230 205 m 1,0,-1
 1025 0 l 1,1,-1
 -31 0 l 1,2,-1
 -31 287 l 1,3,-1
 323 287 l 1,4,-1
 204 406 l 1,5,-1
 204 492 l 1,6,-1
 204 697 l 1,7,-1
 409 901 l 1,8,-1
 1025 901 l 1,9,-1
 1230 697 l 1,10,-1
 1230 205 l 1,0,-1
819 287 m 1,11,-1
 819 614 l 1,12,-1
 613 614 l 1,13,-1
 613 492 l 1,14,-1
 613 406 l 1,15,-1
 734 287 l 1,16,-1
 819 287 l 1,11,-1
398 1202 m 1,17,-1
 398 1268 l 1,18,-1
 495 1367 l 1,19,-1
 560 1367 l 1,20,-1
 623 1367 l 1,21,-1
 710 1274 l 1,22,-1
 710 1203 l 1,23,-1
 710 1133 l 1,24,-1
 618 1037 l 1,25,-1
 554 1037 l 1,26,-1
 491 1037 l 1,27,-1
 398 1135 l 1,28,-1
 398 1202 l 1,17,-1
725 1204 m 1,29,-1
 725 1270 l 1,30,-1
 822 1369 l 1,31,-1
 887 1369 l 1,32,-1
 950 1369 l 1,33,-1
 1037 1276 l 1,34,-1
 1037 1205 l 1,35,-1
 1037 1135 l 1,36,-1
 945 1039 l 1,37,-1
 881 1039 l 1,38,-1
 818 1039 l 1,39,-1
 725 1137 l 1,40,-1
 725 1204 l 1,29,-1
EndSplineSet
EndChar

StartChar: qafmedial
Encoding: 65240 65240 175
Width: 1247
Flags: W
AnchorPoint: "ArabicBelow" 623 -250 basechar 0
AnchorPoint: "ArabicAbove" 623 1619 basechar 0
LayerCount: 2
Fore
SplineSet
1259 0 m 1,0,-1
 1227 0 l 1,1,-1
 1227 286 l 1,2,-1
 1259 286 l 1,3,-1
 1259 0 l 1,0,-1
1230 0 m 1,4,-1
 -31 0 l 1,5,-1
 -31 287 l 1,6,-1
 323 287 l 1,7,-1
 204 406 l 1,8,-1
 204 492 l 1,9,-1
 204 697 l 1,10,-1
 409 901 l 1,11,-1
 1025 901 l 1,12,-1
 1230 697 l 1,13,-1
 1230 0 l 1,4,-1
819 287 m 1,14,-1
 819 614 l 1,15,-1
 613 614 l 1,16,-1
 613 492 l 1,17,-1
 613 406 l 1,18,-1
 732 287 l 1,19,-1
 819 287 l 1,14,-1
398 1268 m 1,20,-1
 495 1367 l 1,21,-1
 623 1367 l 1,22,-1
 710 1274 l 1,23,-1
 710 1133 l 1,24,-1
 618 1037 l 1,25,-1
 491 1037 l 1,26,-1
 398 1135 l 1,27,-1
 398 1268 l 1,20,-1
725 1270 m 1,28,-1
 822 1369 l 1,29,-1
 950 1369 l 1,30,-1
 1037 1276 l 1,31,-1
 1037 1135 l 1,32,-1
 945 1039 l 1,33,-1
 818 1039 l 1,34,-1
 725 1137 l 1,35,-1
 725 1270 l 1,28,-1
EndSplineSet
EndChar

StartChar: kafisolated
Encoding: 65241 65241 176
Width: 2107
Flags: W
AnchorPoint: "ArabicBelow" 1053 -737 basechar 0
AnchorPoint: "ArabicAbove" 1053 1811 basechar 0
LayerCount: 2
Fore
SplineSet
2098 -282 m 1,0,-1
 1893 -487 l 1,1,-1
 382 -487 l 1,2,-1
 177 -282 l 1,3,-1
 177 129 l 1,4,-1
 587 129 l 1,5,-1
 587 -200 l 1,6,-1
 1688 -200 l 1,7,-1
 1688 1561 l 1,8,-1
 2098 1561 l 1,9,-1
 2098 -282 l 1,0,-1
1376 127 m 1,10,-1
 882 127 l 1,11,-1
 882 265 l 1,12,-1
 960 265 l 1,13,-1
 960 401 l 1,14,-1
 1058 499 l 1,15,-1
 1317 499 l 1,16,-1
 1317 362 l 1,17,-1
 1157 362 l 1,18,-1
 1157 265 l 1,19,-1
 1376 265 l 1,20,-1
 1376 127 l 1,10,-1
EndSplineSet
EndChar

StartChar: arabickaffinal
Encoding: 65242 65242 177
Width: 2119
Flags: W
AnchorPoint: "ArabicBelow" 1059 -737 basechar 0
AnchorPoint: "ArabicAbove" 1059 1811 basechar 0
LayerCount: 2
Fore
SplineSet
2129 1 m 1,0,-1
 2097 1 l 1,1,-1
 2097 287 l 1,2,-1
 2129 287 l 1,3,-1
 2129 1 l 1,0,-1
2098 -282 m 1,4,-1
 1893 -487 l 1,5,-1
 382 -487 l 1,6,-1
 177 -282 l 1,7,-1
 177 129 l 1,8,-1
 587 129 l 1,9,-1
 587 -200 l 1,10,-1
 1688 -200 l 1,11,-1
 1688 1561 l 1,12,-1
 2098 1561 l 1,13,-1
 2098 -282 l 1,4,-1
1376 127 m 1,14,-1
 882 127 l 1,15,-1
 882 265 l 1,16,-1
 960 265 l 1,17,-1
 960 401 l 1,18,-1
 1058 499 l 1,19,-1
 1317 499 l 1,20,-1
 1317 362 l 1,21,-1
 1157 362 l 1,22,-1
 1157 265 l 1,23,-1
 1376 265 l 1,24,-1
 1376 127 l 1,14,-1
EndSplineSet
EndChar

StartChar: kafinitial
Encoding: 65243 65243 178
Width: 1484
Flags: W
AnchorPoint: "ArabicBelow" 742 -250 basechar 0
AnchorPoint: "ArabicAbove" 742 1438 basechar 0
LayerCount: 2
Fore
SplineSet
1446 942 m 1,0,-1
 614 942 l 1,1,-1
 614 778 l 1,2,-1
 1229 778 l 1,3,-1
 1433 574 l 1,4,-1
 1433 204 l 1,5,-1
 1228 0 l 1,6,-1
 -31 0 l 1,7,-1
 -31 287 l 1,8,-1
 1023 287 l 1,9,-1
 1023 492 l 1,10,-1
 204 492 l 1,11,-1
 204 984 l 1,12,-1
 409 1188 l 1,13,-1
 1446 1188 l 1,14,-1
 1446 942 l 1,0,-1
EndSplineSet
EndChar

StartChar: kafmedial
Encoding: 65244 65244 179
Width: 1461
Flags: W
AnchorPoint: "ArabicBelow" 730 -250 basechar 0
AnchorPoint: "ArabicAbove" 730 1438 basechar 0
LayerCount: 2
Fore
SplineSet
1465 1 m 1,0,-1
 1433 1 l 1,1,-1
 1433 287 l 1,2,-1
 1465 287 l 1,3,-1
 1465 1 l 1,0,-1
1446 942 m 1,4,-1
 614 942 l 1,5,-1
 614 778 l 1,6,-1
 1229 778 l 1,7,-1
 1433 574 l 1,8,-1
 1433 204 l 1,9,-1
 1433 0 l 1,10,-1
 -31 0 l 1,11,-1
 -31 287 l 1,12,-1
 1023 287 l 1,13,-1
 1023 492 l 1,14,-1
 204 492 l 1,15,-1
 204 984 l 1,16,-1
 409 1188 l 1,17,-1
 1446 1188 l 1,18,-1
 1446 942 l 1,4,-1
EndSplineSet
EndChar

StartChar: lamisolated
Encoding: 65245 65245 180
Width: 1520
Flags: W
AnchorPoint: "ArabicBelow" 760 -742 basechar 0
AnchorPoint: "ArabicAbove" 760 1806 basechar 0
LayerCount: 2
Fore
SplineSet
1495 -287 m 1,0,-1
 1290 -492 l 1,1,-1
 389 -492 l 1,2,-1
 184 -287 l 1,3,-1
 184 474 l 1,4,-1
 594 474 l 1,5,-1
 594 -205 l 1,6,-1
 1085 -205 l 1,7,-1
 1085 1556 l 1,8,-1
 1495 1556 l 1,9,-1
 1495 -287 l 1,0,-1
EndSplineSet
EndChar

StartChar: lamfinal
Encoding: 65246 65246 181
Width: 1500
Flags: W
AnchorPoint: "ArabicBelow" 750 -742 basechar 0
AnchorPoint: "ArabicAbove" 750 1806 basechar 0
LayerCount: 2
Fore
SplineSet
1528 1 m 1,0,-1
 1496 1 l 1,1,-1
 1496 287 l 1,2,-1
 1528 287 l 1,3,-1
 1528 1 l 1,0,-1
1495 -287 m 1,4,-1
 1290 -492 l 1,5,-1
 389 -492 l 1,6,-1
 184 -287 l 1,7,-1
 184 474 l 1,8,-1
 594 474 l 1,9,-1
 594 -205 l 1,10,-1
 1085 -205 l 1,11,-1
 1085 1556 l 1,12,-1
 1495 1556 l 1,13,-1
 1495 -287 l 1,4,-1
EndSplineSet
EndChar

StartChar: laminitial
Encoding: 65247 65247 182
Width: 634
Flags: W
AnchorPoint: "ArabicBelow" 317 -249 basechar 0
AnchorPoint: "ArabicAbove" 317 1806 basechar 0
LayerCount: 2
Fore
SplineSet
614 206 m 1,0,-1
 410 1 l 1,1,-1
 120 1 l 1,2,-1
 -31 1 l 1,3,-1
 -31 144 l 1,4,-1
 -31 287 l 1,5,-1
 205 287 l 1,6,-1
 205 1556 l 1,7,-1
 614 1556 l 1,8,-1
 614 206 l 1,0,-1
EndSplineSet
EndChar

StartChar: lammedial
Encoding: 65248 65248 183
Width: 848
Flags: W
AnchorPoint: "ArabicBelow" 424 -249 basechar 0
AnchorPoint: "ArabicAbove" 424 1806 basechar 0
LayerCount: 2
Fore
SplineSet
614 284 m 1,0,-1
 873 284 l 1,1,-1
 873 1 l 1,2,-1
 410 1 l 1,3,-1
 -31 1 l 1,4,-1
 -31 287 l 1,5,-1
 205 287 l 1,6,-1
 205 1556 l 1,7,-1
 614 1556 l 1,8,-1
 614 284 l 1,0,-1
EndSplineSet
EndChar

StartChar: meemisolated
Encoding: 65249 65249 184
Width: 1624
Flags: W
AnchorPoint: "ArabicBelow" 812 -742 basechar 0
AnchorPoint: "ArabicAbove" 812 1028 basechar 0
LayerCount: 2
Fore
SplineSet
1618 207 m 1,0,-1
 1618 1 l 1,1,-1
 1413 1 l 1,2,-1
 594 1 l 1,3,-1
 594 -492 l 1,4,-1
 184 -492 l 1,5,-1
 184 82 l 1,6,-1
 389 287 l 1,7,-1
 594 287 l 1,8,-1
 594 574 l 1,9,-1
 799 778 l 1,10,-1
 1413 778 l 1,11,-1
 1618 574 l 1,12,-1
 1618 207 l 1,0,-1
1208 287 m 1,13,-1
 1208 492 l 1,14,-1
 1004 492 l 1,15,-1
 1004 287 l 1,16,-1
 1208 287 l 1,13,-1
EndSplineSet
EndChar

StartChar: meemfinal
Encoding: 65250 65250 185
Width: 1644
Flags: W
AnchorPoint: "ArabicBelow" 822 -742 basechar 0
AnchorPoint: "ArabicAbove" 822 1028 basechar 0
LayerCount: 2
Fore
SplineSet
1208 287 m 1,0,-1
 1208 492 l 1,1,-1
 1004 492 l 1,2,-1
 1004 287 l 1,3,-1
 1208 287 l 1,0,-1
1651 1 m 1,4,-1
 1619 1 l 1,5,-1
 1619 287 l 1,6,-1
 1651 287 l 1,7,-1
 1651 1 l 1,4,-1
1618 207 m 1,8,-1
 1618 1 l 1,9,-1
 1413 1 l 1,10,-1
 594 1 l 1,11,-1
 594 -492 l 1,12,-1
 184 -492 l 1,13,-1
 184 82 l 1,14,-1
 389 287 l 1,15,-1
 594 287 l 1,16,-1
 594 574 l 1,17,-1
 799 778 l 1,18,-1
 1413 778 l 1,19,-1
 1618 574 l 1,20,-1
 1618 207 l 1,8,-1
EndSplineSet
EndChar

StartChar: meeminitial
Encoding: 65251 65251 186
Width: 1243
Flags: W
AnchorPoint: "ArabicBelow" 621 -249 basechar 0
AnchorPoint: "ArabicAbove" 621 1028 basechar 0
LayerCount: 2
Fore
SplineSet
1229 207 m 1,0,-1
 1229 1 l 1,1,-1
 1024 1 l 1,2,-1
 614 1 l 1,3,-1
 614 287 l 1,4,-1
 819 287 l 1,5,-1
 819 492 l 1,6,-1
 614 492 l 1,7,-1
 614 207 l 1,8,-1
 507 1 l 1,9,-1
 410 1 l 1,10,-1
 -31 1 l 1,11,-1
 -31 287 l 1,12,-1
 205 287 l 1,13,-1
 205 574 l 1,14,-1
 410 778 l 1,15,-1
 1024 778 l 1,16,-1
 1229 574 l 1,17,-1
 1229 207 l 1,0,-1
EndSplineSet
EndChar

StartChar: meemmedial
Encoding: 65252 65252 187
Width: 1242
Flags: W
AnchorPoint: "ArabicBelow" 621 -249 basechar 0
AnchorPoint: "ArabicAbove" 621 1028 basechar 0
LayerCount: 2
Fore
SplineSet
1261 1 m 1,0,-1
 1229 1 l 1,1,-1
 1229 287 l 1,2,-1
 1261 287 l 1,3,-1
 1261 1 l 1,0,-1
1229 207 m 1,4,-1
 1229 1 l 1,5,-1
 1024 1 l 1,6,-1
 614 1 l 1,7,-1
 614 287 l 1,8,-1
 819 287 l 1,9,-1
 819 492 l 1,10,-1
 614 492 l 1,11,-1
 614 207 l 1,12,-1
 507 1 l 1,13,-1
 410 1 l 1,14,-1
 -31 1 l 1,15,-1
 -31 287 l 1,16,-1
 205 287 l 1,17,-1
 205 574 l 1,18,-1
 410 778 l 1,19,-1
 1024 778 l 1,20,-1
 1229 574 l 1,21,-1
 1229 207 l 1,4,-1
EndSplineSet
EndChar

StartChar: noonisolated
Encoding: 65253 65253 188
Width: 1503
Flags: W
AnchorPoint: "ArabicBelow" 751 -742 basechar 0
AnchorPoint: "ArabicAbove" 751 1032 basechar 0
LayerCount: 2
Fore
SplineSet
1495 -287 m 1,0,-1
 1290 -492 l 1,1,-1
 389 -492 l 1,2,-1
 184 -287 l 1,3,-1
 184 778 l 1,4,-1
 594 778 l 1,5,-1
 594 -205 l 1,6,-1
 1085 -205 l 1,7,-1
 1085 778 l 1,8,-1
 1495 778 l 1,9,-1
 1495 -287 l 1,0,-1
681 617 m 1,10,-1
 681 683 l 1,11,-1
 778 782 l 1,12,-1
 843 782 l 1,13,-1
 906 782 l 1,14,-1
 993 689 l 1,15,-1
 993 618 l 1,16,-1
 993 548 l 1,17,-1
 901 452 l 1,18,-1
 837 452 l 1,19,-1
 774 452 l 1,20,-1
 681 550 l 1,21,-1
 681 617 l 1,10,-1
EndSplineSet
EndChar

StartChar: noonfinal
Encoding: 65254 65254 189
Width: 1509
Flags: W
AnchorPoint: "ArabicBelow" 754 -742 basechar 0
AnchorPoint: "ArabicAbove" 754 1032 basechar 0
LayerCount: 2
Fore
SplineSet
1527 1 m 1,0,-1
 1495 1 l 1,1,-1
 1495 287 l 1,2,-1
 1527 287 l 1,3,-1
 1527 1 l 1,0,-1
1495 -287 m 1,4,-1
 1290 -492 l 1,5,-1
 389 -492 l 1,6,-1
 184 -287 l 1,7,-1
 184 778 l 1,8,-1
 594 778 l 1,9,-1
 594 -205 l 1,10,-1
 1085 -205 l 1,11,-1
 1085 778 l 1,12,-1
 1495 778 l 1,13,-1
 1495 -287 l 1,4,-1
681 617 m 1,14,-1
 681 683 l 1,15,-1
 778 782 l 1,16,-1
 843 782 l 1,17,-1
 906 782 l 1,18,-1
 993 689 l 1,19,-1
 993 618 l 1,20,-1
 993 548 l 1,21,-1
 901 452 l 1,22,-1
 837 452 l 1,23,-1
 774 452 l 1,24,-1
 681 550 l 1,25,-1
 681 617 l 1,14,-1
EndSplineSet
EndChar

StartChar: nooninitial
Encoding: 65255 65255 190
Width: 627
Flags: W
AnchorPoint: "ArabicBelow" 313 -249 basechar 0
AnchorPoint: "ArabicAbove" 313 1617 basechar 0
LayerCount: 2
Fore
SplineSet
615 205 m 1,0,-1
 411 1 l 1,1,-1
 -32 1 l 1,2,-1
 -32 287 l 1,3,-1
 206 287 l 1,4,-1
 206 778 l 1,5,-1
 615 778 l 1,6,-1
 615 205 l 1,0,-1
238 1202 m 1,7,-1
 238 1268 l 1,8,-1
 335 1367 l 1,9,-1
 400 1367 l 1,10,-1
 463 1367 l 1,11,-1
 550 1274 l 1,12,-1
 550 1203 l 1,13,-1
 550 1133 l 1,14,-1
 458 1037 l 1,15,-1
 394 1037 l 1,16,-1
 331 1037 l 1,17,-1
 238 1135 l 1,18,-1
 238 1202 l 1,7,-1
EndSplineSet
EndChar

StartChar: noonmedial
Encoding: 65256 65256 191
Width: 639
Flags: W
AnchorPoint: "ArabicBelow" 319 -249 basechar 0
AnchorPoint: "ArabicAbove" 319 1617 basechar 0
LayerCount: 2
Fore
SplineSet
647 1 m 1,0,-1
 615 1 l 1,1,-1
 615 287 l 1,2,-1
 647 287 l 1,3,-1
 647 1 l 1,0,-1
615 205 m 1,4,-1
 615 1 l 1,5,-1
 411 1 l 1,6,-1
 -32 1 l 1,7,-1
 -32 287 l 1,8,-1
 206 287 l 1,9,-1
 206 778 l 1,10,-1
 615 778 l 1,11,-1
 615 205 l 1,4,-1
238 1202 m 1,12,-1
 238 1268 l 1,13,-1
 335 1367 l 1,14,-1
 400 1367 l 1,15,-1
 463 1367 l 1,16,-1
 550 1274 l 1,17,-1
 550 1203 l 1,18,-1
 550 1133 l 1,19,-1
 458 1037 l 1,20,-1
 394 1037 l 1,21,-1
 331 1037 l 1,22,-1
 238 1135 l 1,23,-1
 238 1202 l 1,12,-1
EndSplineSet
EndChar

StartChar: hehisolated
Encoding: 65257 65257 192
Width: 1256
Flags: W
AnchorPoint: "ArabicBelow" 628 -249 basechar 0
AnchorPoint: "ArabicAbove" 628 1028 basechar 0
LayerCount: 2
Fore
SplineSet
1208 207 m 1,0,-1
 1208 1 l 1,1,-1
 1004 1 l 1,2,-1
 390 1 l 1,3,-1
 184 1 l 1,4,-1
 184 202 l 1,5,-1
 184 574 l 1,6,-1
 389 778 l 1,7,-1
 1004 778 l 1,8,-1
 1208 574 l 1,9,-1
 1208 207 l 1,0,-1
799 287 m 1,10,-1
 799 492 l 1,11,-1
 594 492 l 1,12,-1
 594 287 l 1,13,-1
 799 287 l 1,10,-1
EndSplineSet
EndChar

StartChar: hehfinal
Encoding: 65258 65258 193
Width: 1221
Flags: W
AnchorPoint: "ArabicBelow" 610 -249 basechar 0
AnchorPoint: "ArabicAbove" 610 1028 basechar 0
LayerCount: 2
Fore
SplineSet
1239 1 m 1,0,-1
 1207 1 l 1,1,-1
 1207 287 l 1,2,-1
 1239 287 l 1,3,-1
 1239 1 l 1,0,-1
1207 1 m 1,4,-1
 1002 1 l 1,5,-1
 798 1 l 1,6,-1
 798 207 l 1,7,-1
 798 492 l 1,8,-1
 593 492 l 1,9,-1
 593 287 l 1,10,-1
 716 287 l 1,11,-1
 716 1 l 1,12,-1
 388 1 l 1,13,-1
 183 1 l 1,14,-1
 183 207 l 1,15,-1
 183 574 l 1,16,-1
 388 778 l 1,17,-1
 1002 778 l 1,18,-1
 1207 574 l 1,19,-1
 1207 1 l 1,4,-1
EndSplineSet
EndChar

StartChar: hehinitial
Encoding: 65259 65259 194
Width: 1864
Flags: W
AnchorPoint: "ArabicBelow" 932 -249 basechar 0
AnchorPoint: "ArabicAbove" 932 1233 basechar 0
LayerCount: 2
Fore
SplineSet
1843 207 m 1,0,-1
 1843 1 l 1,1,-1
 1638 1 l 1,2,-1
 -31 1 l 1,3,-1
 -31 287 l 1,4,-1
 205 287 l 1,5,-1
 205 574 l 1,6,-1
 410 778 l 1,7,-1
 819 778 l 1,8,-1
 819 983 l 1,9,-1
 1229 983 l 1,10,-1
 1229 778 l 1,11,-1
 1638 778 l 1,12,-1
 1843 574 l 1,13,-1
 1843 207 l 1,0,-1
1434 287 m 1,14,-1
 1434 492 l 1,15,-1
 1229 492 l 1,16,-1
 1229 287 l 1,17,-1
 1434 287 l 1,14,-1
819 287 m 1,18,-1
 819 492 l 1,19,-1
 614 492 l 1,20,-1
 614 287 l 1,21,-1
 819 287 l 1,18,-1
EndSplineSet
EndChar

StartChar: hehmedial
Encoding: 65260 65260 195
Width: 1897
Flags: W
AnchorPoint: "ArabicBelow" 948 -249 basechar 0
AnchorPoint: "ArabicAbove" 948 1233 basechar 0
LayerCount: 2
Fore
SplineSet
1843 287 m 1,0,-1
 1960 287 l 1,1,-1
 1960 2 l 1,2,-1
 1843 1 l 1,3,-1
 1638 1 l 1,4,-1
 -31 1 l 1,5,-1
 -31 287 l 1,6,-1
 205 287 l 1,7,-1
 205 574 l 1,8,-1
 410 778 l 1,9,-1
 819 778 l 1,10,-1
 819 983 l 1,11,-1
 1229 983 l 1,12,-1
 1229 778 l 1,13,-1
 1638 778 l 1,14,-1
 1843 574 l 1,15,-1
 1843 287 l 1,0,-1
1434 287 m 1,16,-1
 1434 492 l 1,17,-1
 1229 492 l 1,18,-1
 1229 287 l 1,19,-1
 1434 287 l 1,16,-1
819 287 m 1,20,-1
 819 492 l 1,21,-1
 614 492 l 1,22,-1
 614 287 l 1,23,-1
 819 287 l 1,20,-1
EndSplineSet
EndChar

StartChar: wawisolated
Encoding: 65261 65261 196
Width: 1235
Flags: W
AnchorPoint: "ArabicBelow" 617 -742 basechar 0
AnchorPoint: "ArabicAbove" 617 1028 basechar 0
LayerCount: 2
Fore
SplineSet
1208 -287 m 1,0,-1
 1208 -492 l 1,1,-1
 1004 -492 l 1,2,-1
 184 -492 l 1,3,-1
 184 -205 l 1,4,-1
 799 -205 l 1,5,-1
 799 1 l 1,6,-1
 184 1 l 1,7,-1
 184 574 l 1,8,-1
 389 778 l 1,9,-1
 1004 778 l 1,10,-1
 1208 574 l 1,11,-1
 1208 -287 l 1,0,-1
799 287 m 1,12,-1
 799 492 l 1,13,-1
 594 492 l 1,14,-1
 594 287 l 1,15,-1
 799 287 l 1,12,-1
EndSplineSet
EndChar

StartChar: wawfinal
Encoding: 65262 65262 197
Width: 1210
Flags: W
AnchorPoint: "ArabicBelow" 605 -742 basechar 0
AnchorPoint: "ArabicAbove" 605 1028 basechar 0
LayerCount: 2
Fore
SplineSet
1240 1 m 1,0,-1
 1208 1 l 1,1,-1
 1208 287 l 1,2,-1
 1240 287 l 1,3,-1
 1240 1 l 1,0,-1
1208 -287 m 1,4,-1
 1208 -492 l 1,5,-1
 1004 -492 l 1,6,-1
 184 -492 l 1,7,-1
 184 -205 l 1,8,-1
 799 -205 l 1,9,-1
 799 1 l 1,10,-1
 184 1 l 1,11,-1
 184 574 l 1,12,-1
 389 778 l 1,13,-1
 1004 778 l 1,14,-1
 1208 574 l 1,15,-1
 1208 -287 l 1,4,-1
799 287 m 1,16,-1
 799 492 l 1,17,-1
 594 492 l 1,18,-1
 594 287 l 1,19,-1
 799 287 l 1,16,-1
EndSplineSet
EndChar

StartChar: alefmaksuraisolated
Encoding: 65263 65263 198
Width: 1635
Flags: W
AnchorPoint: "ArabicBelow" 817 -742 basechar 0
AnchorPoint: "ArabicAbove" 817 1028 basechar 0
LayerCount: 2
Fore
SplineSet
1618 -287 m 1,0,-1
 1413 -492 l 1,1,-1
 389 -492 l 1,2,-1
 184 -287 l 1,3,-1
 184 492 l 1,4,-1
 594 492 l 1,5,-1
 594 -205 l 1,6,-1
 1208 -205 l 1,7,-1
 1208 1 l 1,8,-1
 799 1 l 1,9,-1
 799 573 l 1,10,-1
 1004 778 l 1,11,-1
 1618 778 l 1,12,-1
 1618 492 l 1,13,-1
 1208 492 l 1,14,-1
 1208 287 l 1,15,-1
 1618 287 l 1,16,-1
 1618 -287 l 1,0,-1
EndSplineSet
EndChar

StartChar: alefmaksurafinal
Encoding: 65264 65264 199
Width: 1627
Flags: W
AnchorPoint: "ArabicBelow" 813 -742 basechar 0
AnchorPoint: "ArabicAbove" 813 742 basechar 0
LayerCount: 2
Fore
SplineSet
1650 1 m 1,0,-1
 1618 1 l 1,1,-1
 1618 287 l 1,2,-1
 1650 287 l 1,3,-1
 1650 1 l 1,0,-1
1618 -287 m 1,4,-1
 1413 -492 l 1,5,-1
 389 -492 l 1,6,-1
 184 -287 l 1,7,-1
 184 492 l 1,8,-1
 594 492 l 1,9,-1
 594 -205 l 1,10,-1
 1208 -205 l 1,11,-1
 1208 1 l 1,12,-1
 799 1 l 1,13,-1
 799 287 l 1,14,-1
 1618 287 l 1,15,-1
 1618 -287 l 1,4,-1
EndSplineSet
EndChar

StartChar: yehisolated
Encoding: 65265 65265 200
Width: 1644
Flags: W
AnchorPoint: "ArabicBelow" 822 -1134 basechar 0
AnchorPoint: "ArabicAbove" 822 1028 basechar 0
LayerCount: 2
Fore
SplineSet
1618 -287 m 1,0,-1
 1413 -492 l 1,1,-1
 389 -492 l 1,2,-1
 184 -287 l 1,3,-1
 184 492 l 1,4,-1
 594 492 l 1,5,-1
 594 -205 l 1,6,-1
 1208 -205 l 1,7,-1
 1208 1 l 1,8,-1
 799 1 l 1,9,-1
 799 573 l 1,10,-1
 1004 778 l 1,11,-1
 1618 778 l 1,12,-1
 1618 492 l 1,13,-1
 1208 492 l 1,14,-1
 1208 287 l 1,15,-1
 1618 287 l 1,16,-1
 1618 -287 l 1,0,-1
519 -719 m 1,17,-1
 519 -653 l 1,18,-1
 616 -554 l 1,19,-1
 681 -554 l 1,20,-1
 744 -554 l 1,21,-1
 831 -647 l 1,22,-1
 831 -718 l 1,23,-1
 831 -788 l 1,24,-1
 739 -884 l 1,25,-1
 675 -884 l 1,26,-1
 612 -884 l 1,27,-1
 519 -786 l 1,28,-1
 519 -719 l 1,17,-1
846 -717 m 1,29,-1
 846 -651 l 1,30,-1
 943 -552 l 1,31,-1
 1008 -552 l 1,32,-1
 1071 -552 l 1,33,-1
 1158 -645 l 1,34,-1
 1158 -716 l 1,35,-1
 1158 -786 l 1,36,-1
 1066 -882 l 1,37,-1
 1002 -882 l 1,38,-1
 939 -882 l 1,39,-1
 846 -784 l 1,40,-1
 846 -717 l 1,29,-1
EndSplineSet
EndChar

StartChar: yehfinal
Encoding: 65266 65266 201
Width: 1633
Flags: W
AnchorPoint: "ArabicBelow" 816 -1132 basechar 0
AnchorPoint: "ArabicAbove" 816 742 basechar 0
LayerCount: 2
Fore
SplineSet
1650 1 m 1,0,-1
 1618 1 l 1,1,-1
 1618 287 l 1,2,-1
 1650 287 l 1,3,-1
 1650 1 l 1,0,-1
1618 -287 m 1,4,-1
 1413 -492 l 1,5,-1
 389 -492 l 1,6,-1
 184 -287 l 1,7,-1
 184 492 l 1,8,-1
 594 492 l 1,9,-1
 594 -205 l 1,10,-1
 1208 -205 l 1,11,-1
 1208 1 l 1,12,-1
 799 1 l 1,13,-1
 799 287 l 1,14,-1
 1618 287 l 1,15,-1
 1618 -287 l 1,4,-1
524 -717 m 1,16,-1
 524 -651 l 1,17,-1
 621 -552 l 1,18,-1
 686 -552 l 1,19,-1
 749 -552 l 1,20,-1
 836 -645 l 1,21,-1
 836 -716 l 1,22,-1
 836 -786 l 1,23,-1
 744 -882 l 1,24,-1
 680 -882 l 1,25,-1
 617 -882 l 1,26,-1
 524 -784 l 1,27,-1
 524 -717 l 1,16,-1
851 -715 m 1,28,-1
 851 -649 l 1,29,-1
 948 -550 l 1,30,-1
 1013 -550 l 1,31,-1
 1076 -550 l 1,32,-1
 1163 -643 l 1,33,-1
 1163 -714 l 1,34,-1
 1163 -784 l 1,35,-1
 1071 -880 l 1,36,-1
 1007 -880 l 1,37,-1
 944 -880 l 1,38,-1
 851 -782 l 1,39,-1
 851 -715 l 1,28,-1
EndSplineSet
EndChar

StartChar: yehinitial
Encoding: 65267 65267 202
Width: 832
Flags: W
AnchorPoint: "ArabicBelow" 416 -695 basechar 0
AnchorPoint: "ArabicAbove" 416 1028 basechar 0
LayerCount: 2
Fore
SplineSet
820 205 m 1,0,-1
 615 1 l 1,1,-1
 -32 1 l 1,2,-1
 -32 287 l 1,3,-1
 411 287 l 1,4,-1
 411 778 l 1,5,-1
 820 778 l 1,6,-1
 820 205 l 1,0,-1
91 -280 m 1,7,-1
 91 -214 l 1,8,-1
 188 -115 l 1,9,-1
 253 -115 l 1,10,-1
 316 -115 l 1,11,-1
 403 -208 l 1,12,-1
 403 -279 l 1,13,-1
 403 -349 l 1,14,-1
 311 -445 l 1,15,-1
 247 -445 l 1,16,-1
 184 -445 l 1,17,-1
 91 -347 l 1,18,-1
 91 -280 l 1,7,-1
418 -278 m 1,19,-1
 418 -212 l 1,20,-1
 515 -113 l 1,21,-1
 580 -113 l 1,22,-1
 643 -113 l 1,23,-1
 730 -206 l 1,24,-1
 730 -277 l 1,25,-1
 730 -347 l 1,26,-1
 638 -443 l 1,27,-1
 574 -443 l 1,28,-1
 511 -443 l 1,29,-1
 418 -345 l 1,30,-1
 418 -278 l 1,19,-1
EndSplineSet
EndChar

StartChar: yehmedial
Encoding: 65268 65268 203
Width: 837
Flags: W
AnchorPoint: "ArabicBelow" 418 -695 basechar 0
AnchorPoint: "ArabicAbove" 418 1028 basechar 0
LayerCount: 2
Fore
SplineSet
851 1 m 1,0,-1
 819 1 l 1,1,-1
 819 287 l 1,2,-1
 851 287 l 1,3,-1
 851 1 l 1,0,-1
820 1 m 1,4,-1
 -32 1 l 1,5,-1
 -32 287 l 1,6,-1
 411 287 l 1,7,-1
 411 778 l 1,8,-1
 820 778 l 1,9,-1
 820 1 l 1,4,-1
91 -280 m 1,10,-1
 91 -214 l 1,11,-1
 188 -115 l 1,12,-1
 253 -115 l 1,13,-1
 316 -115 l 1,14,-1
 403 -208 l 1,15,-1
 403 -279 l 1,16,-1
 403 -349 l 1,17,-1
 311 -445 l 1,18,-1
 247 -445 l 1,19,-1
 184 -445 l 1,20,-1
 91 -347 l 1,21,-1
 91 -280 l 1,10,-1
418 -278 m 1,22,-1
 418 -212 l 1,23,-1
 515 -113 l 1,24,-1
 580 -113 l 1,25,-1
 643 -113 l 1,26,-1
 730 -206 l 1,27,-1
 730 -277 l 1,28,-1
 730 -347 l 1,29,-1
 638 -443 l 1,30,-1
 574 -443 l 1,31,-1
 511 -443 l 1,32,-1
 418 -345 l 1,33,-1
 418 -278 l 1,22,-1
EndSplineSet
EndChar

StartChar: lamwithalefmaddaaboveisolatedd
Encoding: 65269 65269 204
Width: 1237
Flags: W
AnchorPoint: "ArabicBelowLigature" 300 -100 baselig 1
AnchorPoint: "ArabicBelowLigature" 700 -100 baselig 0
AnchorPoint: "ArabicAboveLigature" 300 1646 baselig 1
AnchorPoint: "ArabicAboveLigature" 700 1646 baselig 0
LayerCount: 2
Fore
SplineSet
1218 205 m 1,0,-1
 1014 0 l 1,1,-1
 194 0 l 1,2,-1
 194 287 l 1,3,-1
 809 287 l 1,4,-1
 809 1546 l 1,5,-1
 1218 1546 l 1,6,-1
 1218 205 l 1,0,-1
604 410 m 1,7,-1
 194 410 l 1,8,-1
 194 1144 l 1,9,-1
 604 1144 l 1,10,-1
 604 410 l 1,7,-1
770 1339 m 1,11,-1
 448 1339 l 1,12,-1
 448 1404 l 1,13,-1
 341 1404 l 1,14,-1
 341 1339 l 1,15,-1
 126 1339 l 1,16,-1
 126 1404 l 1,17,-1
 126 1448 l 1,18,-1
 189 1511 l 1,19,-1
 234 1511 l 1,20,-1
 555 1511 l 1,21,-1
 555 1446 l 1,22,-1
 662 1446 l 1,23,-1
 662 1511 l 1,24,-1
 770 1511 l 1,25,-1
 770 1339 l 1,11,-1
EndSplineSet
Ligature2: "'liga' Standard Ligatures in Arabic lookup 6 subtable" laminitial alefwithmaddaabovefinal
EndChar

StartChar: lamwithalefmaddaabovefinal
Encoding: 65270 65270 205
Width: 1224
Flags: W
AnchorPoint: "ArabicBelowLigature" 300 -99 baselig 1
AnchorPoint: "ArabicBelowLigature" 700 -99 baselig 0
AnchorPoint: "ArabicAboveLigature" 300 1647 baselig 1
AnchorPoint: "ArabicAboveLigature" 700 1647 baselig 0
LayerCount: 2
Fore
SplineSet
770 1340 m 1,0,-1
 448 1340 l 1,1,-1
 448 1405 l 1,2,-1
 341 1405 l 1,3,-1
 341 1340 l 1,4,-1
 126 1340 l 1,5,-1
 126 1405 l 1,6,-1
 126 1449 l 1,7,-1
 189 1512 l 1,8,-1
 234 1512 l 1,9,-1
 555 1512 l 1,10,-1
 555 1447 l 1,11,-1
 662 1447 l 1,12,-1
 662 1512 l 1,13,-1
 770 1512 l 1,14,-1
 770 1340 l 1,0,-1
1218 206 m 1,15,-1
 1218 1 l 1,16,-1
 194 1 l 1,17,-1
 194 288 l 1,18,-1
 809 288 l 1,19,-1
 809 1547 l 1,20,-1
 1218 1547 l 1,21,-1
 1218 206 l 1,15,-1
604 411 m 1,22,-1
 194 411 l 1,23,-1
 194 1145 l 1,24,-1
 604 1145 l 1,25,-1
 604 411 l 1,22,-1
1250 1 m 1,26,-1
 1218 1 l 1,27,-1
 1218 287 l 1,28,-1
 1250 287 l 1,29,-1
 1250 1 l 1,26,-1
EndSplineSet
Ligature2: "'liga' Standard Ligatures in Arabic lookup 6 subtable" lammedial alefwithmaddaabovefinal
EndChar

StartChar: lamwithalefhamzaaboveisolatedd
Encoding: 65271 65271 206
Width: 1211
Flags: W
AnchorPoint: "ArabicBelowLigature" 300 -100 baselig 1
AnchorPoint: "ArabicBelowLigature" 700 -100 baselig 0
AnchorPoint: "ArabicAboveLigature" 300 1646 baselig 1
AnchorPoint: "ArabicAboveLigature" 700 1646 baselig 0
LayerCount: 2
Fore
SplineSet
604 410 m 1,0,-1
 194 410 l 1,1,-1
 194 1144 l 1,2,-1
 604 1144 l 1,3,-1
 604 410 l 1,0,-1
571 1234 m 1,4,-1
 199 1234 l 1,5,-1
 199 1349 l 1,6,-1
 264 1349 l 1,7,-1
 264 1462 l 1,8,-1
 346 1544 l 1,9,-1
 562 1544 l 1,10,-1
 562 1430 l 1,11,-1
 428 1430 l 1,12,-1
 428 1349 l 1,13,-1
 571 1349 l 1,14,-1
 571 1234 l 1,4,-1
1218 205 m 1,15,-1
 1014 0 l 1,16,-1
 194 0 l 1,17,-1
 194 287 l 1,18,-1
 809 287 l 1,19,-1
 809 1546 l 1,20,-1
 1218 1546 l 1,21,-1
 1218 205 l 1,15,-1
604 410 m 1,22,-1
 194 410 l 1,23,-1
 194 1144 l 1,24,-1
 604 1144 l 1,25,-1
 604 410 l 1,22,-1
571 1234 m 1,26,-1
 199 1234 l 1,27,-1
 199 1349 l 1,28,-1
 264 1349 l 1,29,-1
 264 1462 l 1,30,-1
 346 1544 l 1,31,-1
 562 1544 l 1,32,-1
 562 1430 l 1,33,-1
 428 1430 l 1,34,-1
 428 1349 l 1,35,-1
 571 1349 l 1,36,-1
 571 1234 l 1,26,-1
EndSplineSet
Ligature2: "'liga' Standard Ligatures in Arabic lookup 6 subtable" laminitial alefwithhamzaabovefinal
EndChar

StartChar: lamwithalefhamzaabovefinal
Encoding: 65272 65272 207
Width: 1228
Flags: W
AnchorPoint: "ArabicBelowLigature" 300 -99 baselig 1
AnchorPoint: "ArabicBelowLigature" 700 -99 baselig 0
AnchorPoint: "ArabicAboveLigature" 300 1647 baselig 1
AnchorPoint: "ArabicAboveLigature" 700 1647 baselig 0
LayerCount: 2
Fore
SplineSet
1218 206 m 1,0,-1
 1218 1 l 1,1,-1
 194 1 l 1,2,-1
 194 288 l 1,3,-1
 809 288 l 1,4,-1
 809 1547 l 1,5,-1
 1218 1547 l 1,6,-1
 1218 206 l 1,0,-1
604 411 m 1,7,-1
 194 411 l 1,8,-1
 194 1145 l 1,9,-1
 604 1145 l 1,10,-1
 604 411 l 1,7,-1
571 1235 m 1,11,-1
 199 1235 l 1,12,-1
 199 1350 l 1,13,-1
 264 1350 l 1,14,-1
 264 1463 l 1,15,-1
 346 1545 l 1,16,-1
 562 1545 l 1,17,-1
 562 1431 l 1,18,-1
 428 1431 l 1,19,-1
 428 1350 l 1,20,-1
 571 1350 l 1,21,-1
 571 1235 l 1,11,-1
1248 1 m 1,22,-1
 1216 1 l 1,23,-1
 1216 287 l 1,24,-1
 1248 287 l 1,25,-1
 1248 1 l 1,22,-1
EndSplineSet
Ligature2: "'liga' Standard Ligatures in Arabic lookup 6 subtable" lammedial alefwithhamzaabovefinal
EndChar

StartChar: lamwithalefhamzabelowisolated
Encoding: 65273 65273 208
Width: 1240
Flags: W
AnchorPoint: "ArabicBelowLigature" 300 -545 baselig 1
AnchorPoint: "ArabicBelowLigature" 700 -545 baselig 0
AnchorPoint: "ArabicAboveLigature" 300 1646 baselig 1
AnchorPoint: "ArabicAboveLigature" 700 1646 baselig 0
LayerCount: 2
Fore
SplineSet
1218 205 m 1,0,-1
 1014 0 l 1,1,-1
 194 0 l 1,2,-1
 194 287 l 1,3,-1
 809 287 l 1,4,-1
 809 1546 l 1,5,-1
 1218 1546 l 1,6,-1
 1218 205 l 1,0,-1
604 410 m 1,7,-1
 194 410 l 1,8,-1
 194 1544 l 1,9,-1
 604 1544 l 1,10,-1
 604 410 l 1,7,-1
564 -445 m 1,11,-1
 192 -445 l 1,12,-1
 192 -330 l 1,13,-1
 257 -330 l 1,14,-1
 257 -217 l 1,15,-1
 339 -135 l 1,16,-1
 555 -135 l 1,17,-1
 555 -249 l 1,18,-1
 421 -249 l 1,19,-1
 421 -330 l 1,20,-1
 564 -330 l 1,21,-1
 564 -445 l 1,11,-1
EndSplineSet
Ligature2: "'liga' Standard Ligatures in Arabic lookup 6 subtable" laminitial alefwithhamzabelowfinal
EndChar

StartChar: lamwithalefhamzabelowfinal
Encoding: 65274 65274 209
Width: 1225
Flags: W
AnchorPoint: "ArabicBelowLigature" 300 -544 baselig 1
AnchorPoint: "ArabicBelowLigature" 700 -544 baselig 0
AnchorPoint: "ArabicAboveLigature" 300 1647 baselig 1
AnchorPoint: "ArabicAboveLigature" 700 1647 baselig 0
LayerCount: 2
Fore
SplineSet
1249 1 m 1,0,-1
 1217 1 l 1,1,-1
 1217 287 l 1,2,-1
 1249 287 l 1,3,-1
 1249 1 l 1,0,-1
1218 206 m 1,4,-1
 1218 1 l 1,5,-1
 194 1 l 1,6,-1
 194 288 l 1,7,-1
 809 288 l 1,8,-1
 809 1547 l 1,9,-1
 1218 1547 l 1,10,-1
 1218 206 l 1,4,-1
604 411 m 1,11,-1
 194 411 l 1,12,-1
 194 1545 l 1,13,-1
 604 1545 l 1,14,-1
 604 411 l 1,11,-1
564 -444 m 1,15,-1
 192 -444 l 1,16,-1
 192 -329 l 1,17,-1
 257 -329 l 1,18,-1
 257 -216 l 1,19,-1
 339 -134 l 1,20,-1
 555 -134 l 1,21,-1
 555 -248 l 1,22,-1
 421 -248 l 1,23,-1
 421 -329 l 1,24,-1
 564 -329 l 1,25,-1
 564 -444 l 1,15,-1
EndSplineSet
Ligature2: "'liga' Standard Ligatures in Arabic lookup 6 subtable" lammedial alefwithhamzabelowfinal
EndChar

StartChar: lamwithalefisolated
Encoding: 65275 65275 210
Width: 1221
Flags: W
AnchorPoint: "ArabicBelowLigature" 300 -100 baselig 1
AnchorPoint: "ArabicBelowLigature" 700 -100 baselig 0
AnchorPoint: "ArabicAboveLigature" 300 1656 baselig 1
AnchorPoint: "ArabicAboveLigature" 700 1656 baselig 0
LayerCount: 2
Fore
SplineSet
1208 205 m 1,0,-1
 1004 0 l 1,1,-1
 184 0 l 1,2,-1
 184 287 l 1,3,-1
 799 287 l 1,4,-1
 799 1556 l 1,5,-1
 1208 1556 l 1,6,-1
 1208 205 l 1,0,-1
594 410 m 1,7,-1
 184 410 l 1,8,-1
 184 1555 l 1,9,-1
 594 1555 l 1,10,-1
 594 410 l 1,7,-1
EndSplineSet
Ligature2: "'liga' Standard Ligatures in Arabic lookup 6 subtable" laminitial aleffinal
EndChar

StartChar: lamwithaleffinal
Encoding: 65276 65276 211
Width: 1233
Flags: W
AnchorPoint: "ArabicBelowLigature" 300 -100 baselig 1
AnchorPoint: "ArabicBelowLigature" 700 -100 baselig 0
AnchorPoint: "ArabicAboveLigature" 300 1646 baselig 1
AnchorPoint: "ArabicAboveLigature" 700 1646 baselig 0
LayerCount: 2
Fore
SplineSet
1248 1 m 1,0,-1
 1216 1 l 1,1,-1
 1216 287 l 1,2,-1
 1248 287 l 1,3,-1
 1248 1 l 1,0,-1
1218 205 m 1,4,-1
 1218 0 l 1,5,-1
 194 0 l 1,6,-1
 194 287 l 1,7,-1
 809 287 l 1,8,-1
 809 1546 l 1,9,-1
 1218 1546 l 1,10,-1
 1218 205 l 1,4,-1
604 410 m 1,11,-1
 194 410 l 1,12,-1
 194 1544 l 1,13,-1
 604 1544 l 1,14,-1
 604 410 l 1,11,-1
EndSplineSet
Ligature2: "'liga' Standard Ligatures in Arabic lookup 6 subtable" lammedial aleffinal
EndChar

StartChar: zerowidthnobreakspace
Encoding: 65279 65279 212
Width: 895
Flags: W
LayerCount: 2
Fore
SplineSet
744 289 m 1,0,-1
 744 -1 l 1,1,-1
 2 0 l 1,2,-1
 3 289 l 1,3,-1
 744 289 l 1,0,-1
EndSplineSet
EndChar
